%TF.GenerationSoftware,KiCad,Pcbnew,7.0.8*%
%TF.CreationDate,2023-10-18T14:23:47-04:00*%
%TF.ProjectId,ball_heater_controller,62616c6c-5f68-4656-9174-65725f636f6e,rev?*%
%TF.SameCoordinates,Original*%
%TF.FileFunction,Legend,Top*%
%TF.FilePolarity,Positive*%
%FSLAX46Y46*%
G04 Gerber Fmt 4.6, Leading zero omitted, Abs format (unit mm)*
G04 Created by KiCad (PCBNEW 7.0.8) date 2023-10-18 14:23:47*
%MOMM*%
%LPD*%
G01*
G04 APERTURE LIST*
%ADD10C,0.200000*%
%ADD11C,0.150000*%
%ADD12C,0.300000*%
%ADD13C,0.120000*%
%ADD14C,0.100000*%
%ADD15C,0.127000*%
G04 APERTURE END LIST*
D10*
X100203000Y-113538000D02*
X100203000Y-114554000D01*
X100203000Y-109093000D02*
X100203000Y-110109000D01*
D11*
X106732229Y-108054580D02*
X106732229Y-107054580D01*
X106732229Y-107530770D02*
X107303657Y-107530770D01*
X107303657Y-108054580D02*
X107303657Y-107054580D01*
X108160800Y-108006961D02*
X108065562Y-108054580D01*
X108065562Y-108054580D02*
X107875086Y-108054580D01*
X107875086Y-108054580D02*
X107779848Y-108006961D01*
X107779848Y-108006961D02*
X107732229Y-107911722D01*
X107732229Y-107911722D02*
X107732229Y-107530770D01*
X107732229Y-107530770D02*
X107779848Y-107435532D01*
X107779848Y-107435532D02*
X107875086Y-107387913D01*
X107875086Y-107387913D02*
X108065562Y-107387913D01*
X108065562Y-107387913D02*
X108160800Y-107435532D01*
X108160800Y-107435532D02*
X108208419Y-107530770D01*
X108208419Y-107530770D02*
X108208419Y-107626008D01*
X108208419Y-107626008D02*
X107732229Y-107721246D01*
X109065562Y-108054580D02*
X109065562Y-107530770D01*
X109065562Y-107530770D02*
X109017943Y-107435532D01*
X109017943Y-107435532D02*
X108922705Y-107387913D01*
X108922705Y-107387913D02*
X108732229Y-107387913D01*
X108732229Y-107387913D02*
X108636991Y-107435532D01*
X109065562Y-108006961D02*
X108970324Y-108054580D01*
X108970324Y-108054580D02*
X108732229Y-108054580D01*
X108732229Y-108054580D02*
X108636991Y-108006961D01*
X108636991Y-108006961D02*
X108589372Y-107911722D01*
X108589372Y-107911722D02*
X108589372Y-107816484D01*
X108589372Y-107816484D02*
X108636991Y-107721246D01*
X108636991Y-107721246D02*
X108732229Y-107673627D01*
X108732229Y-107673627D02*
X108970324Y-107673627D01*
X108970324Y-107673627D02*
X109065562Y-107626008D01*
X109398896Y-107387913D02*
X109779848Y-107387913D01*
X109541753Y-107054580D02*
X109541753Y-107911722D01*
X109541753Y-107911722D02*
X109589372Y-108006961D01*
X109589372Y-108006961D02*
X109684610Y-108054580D01*
X109684610Y-108054580D02*
X109779848Y-108054580D01*
X110494134Y-108006961D02*
X110398896Y-108054580D01*
X110398896Y-108054580D02*
X110208420Y-108054580D01*
X110208420Y-108054580D02*
X110113182Y-108006961D01*
X110113182Y-108006961D02*
X110065563Y-107911722D01*
X110065563Y-107911722D02*
X110065563Y-107530770D01*
X110065563Y-107530770D02*
X110113182Y-107435532D01*
X110113182Y-107435532D02*
X110208420Y-107387913D01*
X110208420Y-107387913D02*
X110398896Y-107387913D01*
X110398896Y-107387913D02*
X110494134Y-107435532D01*
X110494134Y-107435532D02*
X110541753Y-107530770D01*
X110541753Y-107530770D02*
X110541753Y-107626008D01*
X110541753Y-107626008D02*
X110065563Y-107721246D01*
X110970325Y-108054580D02*
X110970325Y-107387913D01*
X110970325Y-107578389D02*
X111017944Y-107483151D01*
X111017944Y-107483151D02*
X111065563Y-107435532D01*
X111065563Y-107435532D02*
X111160801Y-107387913D01*
X111160801Y-107387913D02*
X111256039Y-107387913D01*
X112351278Y-107673627D02*
X113113183Y-107673627D01*
X100838094Y-81839415D02*
X100742856Y-81791796D01*
X100742856Y-81791796D02*
X100599999Y-81791796D01*
X100599999Y-81791796D02*
X100457142Y-81839415D01*
X100457142Y-81839415D02*
X100361904Y-81934653D01*
X100361904Y-81934653D02*
X100314285Y-82029891D01*
X100314285Y-82029891D02*
X100266666Y-82220367D01*
X100266666Y-82220367D02*
X100266666Y-82363224D01*
X100266666Y-82363224D02*
X100314285Y-82553700D01*
X100314285Y-82553700D02*
X100361904Y-82648938D01*
X100361904Y-82648938D02*
X100457142Y-82744177D01*
X100457142Y-82744177D02*
X100599999Y-82791796D01*
X100599999Y-82791796D02*
X100695237Y-82791796D01*
X100695237Y-82791796D02*
X100838094Y-82744177D01*
X100838094Y-82744177D02*
X100885713Y-82696557D01*
X100885713Y-82696557D02*
X100885713Y-82363224D01*
X100885713Y-82363224D02*
X100695237Y-82363224D01*
X101314285Y-82791796D02*
X101314285Y-81791796D01*
X101314285Y-81791796D02*
X101885713Y-82791796D01*
X101885713Y-82791796D02*
X101885713Y-81791796D01*
X102361904Y-82791796D02*
X102361904Y-81791796D01*
X102361904Y-81791796D02*
X102599999Y-81791796D01*
X102599999Y-81791796D02*
X102742856Y-81839415D01*
X102742856Y-81839415D02*
X102838094Y-81934653D01*
X102838094Y-81934653D02*
X102885713Y-82029891D01*
X102885713Y-82029891D02*
X102933332Y-82220367D01*
X102933332Y-82220367D02*
X102933332Y-82363224D01*
X102933332Y-82363224D02*
X102885713Y-82553700D01*
X102885713Y-82553700D02*
X102838094Y-82648938D01*
X102838094Y-82648938D02*
X102742856Y-82744177D01*
X102742856Y-82744177D02*
X102599999Y-82791796D01*
X102599999Y-82791796D02*
X102361904Y-82791796D01*
X92417099Y-81876630D02*
X91940909Y-81876630D01*
X91940909Y-81876630D02*
X91893290Y-82352820D01*
X91893290Y-82352820D02*
X91940909Y-82305201D01*
X91940909Y-82305201D02*
X92036147Y-82257582D01*
X92036147Y-82257582D02*
X92274242Y-82257582D01*
X92274242Y-82257582D02*
X92369480Y-82305201D01*
X92369480Y-82305201D02*
X92417099Y-82352820D01*
X92417099Y-82352820D02*
X92464718Y-82448058D01*
X92464718Y-82448058D02*
X92464718Y-82686153D01*
X92464718Y-82686153D02*
X92417099Y-82781391D01*
X92417099Y-82781391D02*
X92369480Y-82829011D01*
X92369480Y-82829011D02*
X92274242Y-82876630D01*
X92274242Y-82876630D02*
X92036147Y-82876630D01*
X92036147Y-82876630D02*
X91940909Y-82829011D01*
X91940909Y-82829011D02*
X91893290Y-82781391D01*
X92750433Y-81876630D02*
X93083766Y-82876630D01*
X93083766Y-82876630D02*
X93417099Y-81876630D01*
D12*
X195452415Y-104605081D02*
X195309558Y-104533653D01*
X195309558Y-104533653D02*
X195166701Y-104390796D01*
X195166701Y-104390796D02*
X194952415Y-104176510D01*
X194952415Y-104176510D02*
X194809558Y-104105081D01*
X194809558Y-104105081D02*
X194666701Y-104105081D01*
X194738130Y-104462224D02*
X194595273Y-104390796D01*
X194595273Y-104390796D02*
X194452415Y-104247938D01*
X194452415Y-104247938D02*
X194380987Y-103962224D01*
X194380987Y-103962224D02*
X194380987Y-103462224D01*
X194380987Y-103462224D02*
X194452415Y-103176510D01*
X194452415Y-103176510D02*
X194595273Y-103033653D01*
X194595273Y-103033653D02*
X194738130Y-102962224D01*
X194738130Y-102962224D02*
X195023844Y-102962224D01*
X195023844Y-102962224D02*
X195166701Y-103033653D01*
X195166701Y-103033653D02*
X195309558Y-103176510D01*
X195309558Y-103176510D02*
X195380987Y-103462224D01*
X195380987Y-103462224D02*
X195380987Y-103962224D01*
X195380987Y-103962224D02*
X195309558Y-104247938D01*
X195309558Y-104247938D02*
X195166701Y-104390796D01*
X195166701Y-104390796D02*
X195023844Y-104462224D01*
X195023844Y-104462224D02*
X194738130Y-104462224D01*
X195880987Y-103462224D02*
X196166702Y-104462224D01*
X196166702Y-104462224D02*
X196452416Y-103747938D01*
X196452416Y-103747938D02*
X196738130Y-104462224D01*
X196738130Y-104462224D02*
X197023844Y-103462224D01*
X197595273Y-104462224D02*
X197595273Y-103462224D01*
X197595273Y-102962224D02*
X197523845Y-103033653D01*
X197523845Y-103033653D02*
X197595273Y-103105081D01*
X197595273Y-103105081D02*
X197666702Y-103033653D01*
X197666702Y-103033653D02*
X197595273Y-102962224D01*
X197595273Y-102962224D02*
X197595273Y-103105081D01*
X198309559Y-104462224D02*
X198309559Y-103462224D01*
X198309559Y-102962224D02*
X198238131Y-103033653D01*
X198238131Y-103033653D02*
X198309559Y-103105081D01*
X198309559Y-103105081D02*
X198380988Y-103033653D01*
X198380988Y-103033653D02*
X198309559Y-102962224D01*
X198309559Y-102962224D02*
X198309559Y-103105081D01*
X199666703Y-104390796D02*
X199523845Y-104462224D01*
X199523845Y-104462224D02*
X199238131Y-104462224D01*
X199238131Y-104462224D02*
X199095274Y-104390796D01*
X199095274Y-104390796D02*
X199023845Y-104319367D01*
X199023845Y-104319367D02*
X198952417Y-104176510D01*
X198952417Y-104176510D02*
X198952417Y-103747938D01*
X198952417Y-103747938D02*
X199023845Y-103605081D01*
X199023845Y-103605081D02*
X199095274Y-103533653D01*
X199095274Y-103533653D02*
X199238131Y-103462224D01*
X199238131Y-103462224D02*
X199523845Y-103462224D01*
X199523845Y-103462224D02*
X199666703Y-103533653D01*
D11*
X98155237Y-89672438D02*
X98059999Y-89624819D01*
X98059999Y-89624819D02*
X97917142Y-89624819D01*
X97917142Y-89624819D02*
X97774285Y-89672438D01*
X97774285Y-89672438D02*
X97679047Y-89767676D01*
X97679047Y-89767676D02*
X97631428Y-89862914D01*
X97631428Y-89862914D02*
X97583809Y-90053390D01*
X97583809Y-90053390D02*
X97583809Y-90196247D01*
X97583809Y-90196247D02*
X97631428Y-90386723D01*
X97631428Y-90386723D02*
X97679047Y-90481961D01*
X97679047Y-90481961D02*
X97774285Y-90577200D01*
X97774285Y-90577200D02*
X97917142Y-90624819D01*
X97917142Y-90624819D02*
X98012380Y-90624819D01*
X98012380Y-90624819D02*
X98155237Y-90577200D01*
X98155237Y-90577200D02*
X98202856Y-90529580D01*
X98202856Y-90529580D02*
X98202856Y-90196247D01*
X98202856Y-90196247D02*
X98012380Y-90196247D01*
X99059999Y-90624819D02*
X99059999Y-90101009D01*
X99059999Y-90101009D02*
X99012380Y-90005771D01*
X99012380Y-90005771D02*
X98917142Y-89958152D01*
X98917142Y-89958152D02*
X98726666Y-89958152D01*
X98726666Y-89958152D02*
X98631428Y-90005771D01*
X99059999Y-90577200D02*
X98964761Y-90624819D01*
X98964761Y-90624819D02*
X98726666Y-90624819D01*
X98726666Y-90624819D02*
X98631428Y-90577200D01*
X98631428Y-90577200D02*
X98583809Y-90481961D01*
X98583809Y-90481961D02*
X98583809Y-90386723D01*
X98583809Y-90386723D02*
X98631428Y-90291485D01*
X98631428Y-90291485D02*
X98726666Y-90243866D01*
X98726666Y-90243866D02*
X98964761Y-90243866D01*
X98964761Y-90243866D02*
X99059999Y-90196247D01*
X99393333Y-89958152D02*
X99774285Y-89958152D01*
X99536190Y-89624819D02*
X99536190Y-90481961D01*
X99536190Y-90481961D02*
X99583809Y-90577200D01*
X99583809Y-90577200D02*
X99679047Y-90624819D01*
X99679047Y-90624819D02*
X99774285Y-90624819D01*
X100488571Y-90577200D02*
X100393333Y-90624819D01*
X100393333Y-90624819D02*
X100202857Y-90624819D01*
X100202857Y-90624819D02*
X100107619Y-90577200D01*
X100107619Y-90577200D02*
X100060000Y-90481961D01*
X100060000Y-90481961D02*
X100060000Y-90101009D01*
X100060000Y-90101009D02*
X100107619Y-90005771D01*
X100107619Y-90005771D02*
X100202857Y-89958152D01*
X100202857Y-89958152D02*
X100393333Y-89958152D01*
X100393333Y-89958152D02*
X100488571Y-90005771D01*
X100488571Y-90005771D02*
X100536190Y-90101009D01*
X100536190Y-90101009D02*
X100536190Y-90196247D01*
X100536190Y-90196247D02*
X100060000Y-90291485D01*
X171515833Y-108784819D02*
X171182500Y-108308628D01*
X170944405Y-108784819D02*
X170944405Y-107784819D01*
X170944405Y-107784819D02*
X171325357Y-107784819D01*
X171325357Y-107784819D02*
X171420595Y-107832438D01*
X171420595Y-107832438D02*
X171468214Y-107880057D01*
X171468214Y-107880057D02*
X171515833Y-107975295D01*
X171515833Y-107975295D02*
X171515833Y-108118152D01*
X171515833Y-108118152D02*
X171468214Y-108213390D01*
X171468214Y-108213390D02*
X171420595Y-108261009D01*
X171420595Y-108261009D02*
X171325357Y-108308628D01*
X171325357Y-108308628D02*
X170944405Y-108308628D01*
X171849167Y-107784819D02*
X172468214Y-107784819D01*
X172468214Y-107784819D02*
X172134881Y-108165771D01*
X172134881Y-108165771D02*
X172277738Y-108165771D01*
X172277738Y-108165771D02*
X172372976Y-108213390D01*
X172372976Y-108213390D02*
X172420595Y-108261009D01*
X172420595Y-108261009D02*
X172468214Y-108356247D01*
X172468214Y-108356247D02*
X172468214Y-108594342D01*
X172468214Y-108594342D02*
X172420595Y-108689580D01*
X172420595Y-108689580D02*
X172372976Y-108737200D01*
X172372976Y-108737200D02*
X172277738Y-108784819D01*
X172277738Y-108784819D02*
X171992024Y-108784819D01*
X171992024Y-108784819D02*
X171896786Y-108737200D01*
X171896786Y-108737200D02*
X171849167Y-108689580D01*
X197919466Y-113485763D02*
X197919466Y-114200048D01*
X197919466Y-114200048D02*
X197871847Y-114342905D01*
X197871847Y-114342905D02*
X197776609Y-114438144D01*
X197776609Y-114438144D02*
X197633752Y-114485763D01*
X197633752Y-114485763D02*
X197538514Y-114485763D01*
X198348038Y-113581001D02*
X198395657Y-113533382D01*
X198395657Y-113533382D02*
X198490895Y-113485763D01*
X198490895Y-113485763D02*
X198728990Y-113485763D01*
X198728990Y-113485763D02*
X198824228Y-113533382D01*
X198824228Y-113533382D02*
X198871847Y-113581001D01*
X198871847Y-113581001D02*
X198919466Y-113676239D01*
X198919466Y-113676239D02*
X198919466Y-113771477D01*
X198919466Y-113771477D02*
X198871847Y-113914334D01*
X198871847Y-113914334D02*
X198300419Y-114485763D01*
X198300419Y-114485763D02*
X198919466Y-114485763D01*
X163155333Y-122374819D02*
X162822000Y-121898628D01*
X162583905Y-122374819D02*
X162583905Y-121374819D01*
X162583905Y-121374819D02*
X162964857Y-121374819D01*
X162964857Y-121374819D02*
X163060095Y-121422438D01*
X163060095Y-121422438D02*
X163107714Y-121470057D01*
X163107714Y-121470057D02*
X163155333Y-121565295D01*
X163155333Y-121565295D02*
X163155333Y-121708152D01*
X163155333Y-121708152D02*
X163107714Y-121803390D01*
X163107714Y-121803390D02*
X163060095Y-121851009D01*
X163060095Y-121851009D02*
X162964857Y-121898628D01*
X162964857Y-121898628D02*
X162583905Y-121898628D01*
X164060095Y-121374819D02*
X163583905Y-121374819D01*
X163583905Y-121374819D02*
X163536286Y-121851009D01*
X163536286Y-121851009D02*
X163583905Y-121803390D01*
X163583905Y-121803390D02*
X163679143Y-121755771D01*
X163679143Y-121755771D02*
X163917238Y-121755771D01*
X163917238Y-121755771D02*
X164012476Y-121803390D01*
X164012476Y-121803390D02*
X164060095Y-121851009D01*
X164060095Y-121851009D02*
X164107714Y-121946247D01*
X164107714Y-121946247D02*
X164107714Y-122184342D01*
X164107714Y-122184342D02*
X164060095Y-122279580D01*
X164060095Y-122279580D02*
X164012476Y-122327200D01*
X164012476Y-122327200D02*
X163917238Y-122374819D01*
X163917238Y-122374819D02*
X163679143Y-122374819D01*
X163679143Y-122374819D02*
X163583905Y-122327200D01*
X163583905Y-122327200D02*
X163536286Y-122279580D01*
X166411240Y-108958869D02*
X166077907Y-108482678D01*
X165839812Y-108958869D02*
X165839812Y-107958869D01*
X165839812Y-107958869D02*
X166220764Y-107958869D01*
X166220764Y-107958869D02*
X166316002Y-108006488D01*
X166316002Y-108006488D02*
X166363621Y-108054107D01*
X166363621Y-108054107D02*
X166411240Y-108149345D01*
X166411240Y-108149345D02*
X166411240Y-108292202D01*
X166411240Y-108292202D02*
X166363621Y-108387440D01*
X166363621Y-108387440D02*
X166316002Y-108435059D01*
X166316002Y-108435059D02*
X166220764Y-108482678D01*
X166220764Y-108482678D02*
X165839812Y-108482678D01*
X167268383Y-108292202D02*
X167268383Y-108958869D01*
X167030288Y-107911250D02*
X166792193Y-108625535D01*
X166792193Y-108625535D02*
X167411240Y-108625535D01*
X192706666Y-75284819D02*
X192706666Y-75999104D01*
X192706666Y-75999104D02*
X192659047Y-76141961D01*
X192659047Y-76141961D02*
X192563809Y-76237200D01*
X192563809Y-76237200D02*
X192420952Y-76284819D01*
X192420952Y-76284819D02*
X192325714Y-76284819D01*
X193611428Y-75618152D02*
X193611428Y-76284819D01*
X193373333Y-75237200D02*
X193135238Y-75951485D01*
X193135238Y-75951485D02*
X193754285Y-75951485D01*
X181149523Y-109999819D02*
X180816190Y-109523628D01*
X180578095Y-109999819D02*
X180578095Y-108999819D01*
X180578095Y-108999819D02*
X180959047Y-108999819D01*
X180959047Y-108999819D02*
X181054285Y-109047438D01*
X181054285Y-109047438D02*
X181101904Y-109095057D01*
X181101904Y-109095057D02*
X181149523Y-109190295D01*
X181149523Y-109190295D02*
X181149523Y-109333152D01*
X181149523Y-109333152D02*
X181101904Y-109428390D01*
X181101904Y-109428390D02*
X181054285Y-109476009D01*
X181054285Y-109476009D02*
X180959047Y-109523628D01*
X180959047Y-109523628D02*
X180578095Y-109523628D01*
X181578095Y-109999819D02*
X181578095Y-108999819D01*
X181578095Y-108999819D02*
X182149523Y-109999819D01*
X182149523Y-109999819D02*
X182149523Y-108999819D01*
X183149523Y-109999819D02*
X182578095Y-109999819D01*
X182863809Y-109999819D02*
X182863809Y-108999819D01*
X182863809Y-108999819D02*
X182768571Y-109142676D01*
X182768571Y-109142676D02*
X182673333Y-109237914D01*
X182673333Y-109237914D02*
X182578095Y-109285533D01*
X163155333Y-118564819D02*
X162822000Y-118088628D01*
X162583905Y-118564819D02*
X162583905Y-117564819D01*
X162583905Y-117564819D02*
X162964857Y-117564819D01*
X162964857Y-117564819D02*
X163060095Y-117612438D01*
X163060095Y-117612438D02*
X163107714Y-117660057D01*
X163107714Y-117660057D02*
X163155333Y-117755295D01*
X163155333Y-117755295D02*
X163155333Y-117898152D01*
X163155333Y-117898152D02*
X163107714Y-117993390D01*
X163107714Y-117993390D02*
X163060095Y-118041009D01*
X163060095Y-118041009D02*
X162964857Y-118088628D01*
X162964857Y-118088628D02*
X162583905Y-118088628D01*
X164012476Y-117564819D02*
X163822000Y-117564819D01*
X163822000Y-117564819D02*
X163726762Y-117612438D01*
X163726762Y-117612438D02*
X163679143Y-117660057D01*
X163679143Y-117660057D02*
X163583905Y-117802914D01*
X163583905Y-117802914D02*
X163536286Y-117993390D01*
X163536286Y-117993390D02*
X163536286Y-118374342D01*
X163536286Y-118374342D02*
X163583905Y-118469580D01*
X163583905Y-118469580D02*
X163631524Y-118517200D01*
X163631524Y-118517200D02*
X163726762Y-118564819D01*
X163726762Y-118564819D02*
X163917238Y-118564819D01*
X163917238Y-118564819D02*
X164012476Y-118517200D01*
X164012476Y-118517200D02*
X164060095Y-118469580D01*
X164060095Y-118469580D02*
X164107714Y-118374342D01*
X164107714Y-118374342D02*
X164107714Y-118136247D01*
X164107714Y-118136247D02*
X164060095Y-118041009D01*
X164060095Y-118041009D02*
X164012476Y-117993390D01*
X164012476Y-117993390D02*
X163917238Y-117945771D01*
X163917238Y-117945771D02*
X163726762Y-117945771D01*
X163726762Y-117945771D02*
X163631524Y-117993390D01*
X163631524Y-117993390D02*
X163583905Y-118041009D01*
X163583905Y-118041009D02*
X163536286Y-118136247D01*
X190571523Y-122501819D02*
X190238190Y-122025628D01*
X190000095Y-122501819D02*
X190000095Y-121501819D01*
X190000095Y-121501819D02*
X190381047Y-121501819D01*
X190381047Y-121501819D02*
X190476285Y-121549438D01*
X190476285Y-121549438D02*
X190523904Y-121597057D01*
X190523904Y-121597057D02*
X190571523Y-121692295D01*
X190571523Y-121692295D02*
X190571523Y-121835152D01*
X190571523Y-121835152D02*
X190523904Y-121930390D01*
X190523904Y-121930390D02*
X190476285Y-121978009D01*
X190476285Y-121978009D02*
X190381047Y-122025628D01*
X190381047Y-122025628D02*
X190000095Y-122025628D01*
X191000095Y-122501819D02*
X191000095Y-121501819D01*
X191000095Y-121501819D02*
X191571523Y-122501819D01*
X191571523Y-122501819D02*
X191571523Y-121501819D01*
X192000095Y-121597057D02*
X192047714Y-121549438D01*
X192047714Y-121549438D02*
X192142952Y-121501819D01*
X192142952Y-121501819D02*
X192381047Y-121501819D01*
X192381047Y-121501819D02*
X192476285Y-121549438D01*
X192476285Y-121549438D02*
X192523904Y-121597057D01*
X192523904Y-121597057D02*
X192571523Y-121692295D01*
X192571523Y-121692295D02*
X192571523Y-121787533D01*
X192571523Y-121787533D02*
X192523904Y-121930390D01*
X192523904Y-121930390D02*
X191952476Y-122501819D01*
X191952476Y-122501819D02*
X192571523Y-122501819D01*
X107250057Y-101145238D02*
X107202438Y-101240476D01*
X107202438Y-101240476D02*
X107107200Y-101335714D01*
X107107200Y-101335714D02*
X106964342Y-101478571D01*
X106964342Y-101478571D02*
X106916723Y-101573809D01*
X106916723Y-101573809D02*
X106916723Y-101669047D01*
X107154819Y-101621428D02*
X107107200Y-101716666D01*
X107107200Y-101716666D02*
X107011961Y-101811904D01*
X107011961Y-101811904D02*
X106821485Y-101859523D01*
X106821485Y-101859523D02*
X106488152Y-101859523D01*
X106488152Y-101859523D02*
X106297676Y-101811904D01*
X106297676Y-101811904D02*
X106202438Y-101716666D01*
X106202438Y-101716666D02*
X106154819Y-101621428D01*
X106154819Y-101621428D02*
X106154819Y-101430952D01*
X106154819Y-101430952D02*
X106202438Y-101335714D01*
X106202438Y-101335714D02*
X106297676Y-101240476D01*
X106297676Y-101240476D02*
X106488152Y-101192857D01*
X106488152Y-101192857D02*
X106821485Y-101192857D01*
X106821485Y-101192857D02*
X107011961Y-101240476D01*
X107011961Y-101240476D02*
X107107200Y-101335714D01*
X107107200Y-101335714D02*
X107154819Y-101430952D01*
X107154819Y-101430952D02*
X107154819Y-101621428D01*
X106250057Y-100811904D02*
X106202438Y-100764285D01*
X106202438Y-100764285D02*
X106154819Y-100669047D01*
X106154819Y-100669047D02*
X106154819Y-100430952D01*
X106154819Y-100430952D02*
X106202438Y-100335714D01*
X106202438Y-100335714D02*
X106250057Y-100288095D01*
X106250057Y-100288095D02*
X106345295Y-100240476D01*
X106345295Y-100240476D02*
X106440533Y-100240476D01*
X106440533Y-100240476D02*
X106583390Y-100288095D01*
X106583390Y-100288095D02*
X107154819Y-100859523D01*
X107154819Y-100859523D02*
X107154819Y-100240476D01*
X105941905Y-112214819D02*
X105941905Y-111214819D01*
X105941905Y-111214819D02*
X106180000Y-111214819D01*
X106180000Y-111214819D02*
X106322857Y-111262438D01*
X106322857Y-111262438D02*
X106418095Y-111357676D01*
X106418095Y-111357676D02*
X106465714Y-111452914D01*
X106465714Y-111452914D02*
X106513333Y-111643390D01*
X106513333Y-111643390D02*
X106513333Y-111786247D01*
X106513333Y-111786247D02*
X106465714Y-111976723D01*
X106465714Y-111976723D02*
X106418095Y-112071961D01*
X106418095Y-112071961D02*
X106322857Y-112167200D01*
X106322857Y-112167200D02*
X106180000Y-112214819D01*
X106180000Y-112214819D02*
X105941905Y-112214819D01*
X107465714Y-112214819D02*
X106894286Y-112214819D01*
X107180000Y-112214819D02*
X107180000Y-111214819D01*
X107180000Y-111214819D02*
X107084762Y-111357676D01*
X107084762Y-111357676D02*
X106989524Y-111452914D01*
X106989524Y-111452914D02*
X106894286Y-111500533D01*
X101433333Y-75924580D02*
X101385714Y-75972200D01*
X101385714Y-75972200D02*
X101242857Y-76019819D01*
X101242857Y-76019819D02*
X101147619Y-76019819D01*
X101147619Y-76019819D02*
X101004762Y-75972200D01*
X101004762Y-75972200D02*
X100909524Y-75876961D01*
X100909524Y-75876961D02*
X100861905Y-75781723D01*
X100861905Y-75781723D02*
X100814286Y-75591247D01*
X100814286Y-75591247D02*
X100814286Y-75448390D01*
X100814286Y-75448390D02*
X100861905Y-75257914D01*
X100861905Y-75257914D02*
X100909524Y-75162676D01*
X100909524Y-75162676D02*
X101004762Y-75067438D01*
X101004762Y-75067438D02*
X101147619Y-75019819D01*
X101147619Y-75019819D02*
X101242857Y-75019819D01*
X101242857Y-75019819D02*
X101385714Y-75067438D01*
X101385714Y-75067438D02*
X101433333Y-75115057D01*
X101814286Y-75115057D02*
X101861905Y-75067438D01*
X101861905Y-75067438D02*
X101957143Y-75019819D01*
X101957143Y-75019819D02*
X102195238Y-75019819D01*
X102195238Y-75019819D02*
X102290476Y-75067438D01*
X102290476Y-75067438D02*
X102338095Y-75115057D01*
X102338095Y-75115057D02*
X102385714Y-75210295D01*
X102385714Y-75210295D02*
X102385714Y-75305533D01*
X102385714Y-75305533D02*
X102338095Y-75448390D01*
X102338095Y-75448390D02*
X101766667Y-76019819D01*
X101766667Y-76019819D02*
X102385714Y-76019819D01*
X112863333Y-98244819D02*
X112530000Y-97768628D01*
X112291905Y-98244819D02*
X112291905Y-97244819D01*
X112291905Y-97244819D02*
X112672857Y-97244819D01*
X112672857Y-97244819D02*
X112768095Y-97292438D01*
X112768095Y-97292438D02*
X112815714Y-97340057D01*
X112815714Y-97340057D02*
X112863333Y-97435295D01*
X112863333Y-97435295D02*
X112863333Y-97578152D01*
X112863333Y-97578152D02*
X112815714Y-97673390D01*
X112815714Y-97673390D02*
X112768095Y-97721009D01*
X112768095Y-97721009D02*
X112672857Y-97768628D01*
X112672857Y-97768628D02*
X112291905Y-97768628D01*
X113815714Y-98244819D02*
X113244286Y-98244819D01*
X113530000Y-98244819D02*
X113530000Y-97244819D01*
X113530000Y-97244819D02*
X113434762Y-97387676D01*
X113434762Y-97387676D02*
X113339524Y-97482914D01*
X113339524Y-97482914D02*
X113244286Y-97530533D01*
X137705354Y-81449104D02*
X138181544Y-81449104D01*
X137610116Y-81734819D02*
X137943449Y-80734819D01*
X137943449Y-80734819D02*
X138276782Y-81734819D01*
X139133925Y-81734819D02*
X138562497Y-81734819D01*
X138848211Y-81734819D02*
X138848211Y-80734819D01*
X138848211Y-80734819D02*
X138752973Y-80877676D01*
X138752973Y-80877676D02*
X138657735Y-80972914D01*
X138657735Y-80972914D02*
X138562497Y-81020533D01*
X168074878Y-86613784D02*
X168551068Y-86613784D01*
X167979640Y-86899499D02*
X168312973Y-85899499D01*
X168312973Y-85899499D02*
X168646306Y-86899499D01*
X168979640Y-86899499D02*
X168979640Y-86232832D01*
X168979640Y-86423308D02*
X169027259Y-86328070D01*
X169027259Y-86328070D02*
X169074878Y-86280451D01*
X169074878Y-86280451D02*
X169170116Y-86232832D01*
X169170116Y-86232832D02*
X169265354Y-86232832D01*
X170027259Y-86899499D02*
X170027259Y-85899499D01*
X170027259Y-86851880D02*
X169932021Y-86899499D01*
X169932021Y-86899499D02*
X169741545Y-86899499D01*
X169741545Y-86899499D02*
X169646307Y-86851880D01*
X169646307Y-86851880D02*
X169598688Y-86804260D01*
X169598688Y-86804260D02*
X169551069Y-86709022D01*
X169551069Y-86709022D02*
X169551069Y-86423308D01*
X169551069Y-86423308D02*
X169598688Y-86328070D01*
X169598688Y-86328070D02*
X169646307Y-86280451D01*
X169646307Y-86280451D02*
X169741545Y-86232832D01*
X169741545Y-86232832D02*
X169932021Y-86232832D01*
X169932021Y-86232832D02*
X170027259Y-86280451D01*
X170932021Y-86232832D02*
X170932021Y-86899499D01*
X170503450Y-86232832D02*
X170503450Y-86756641D01*
X170503450Y-86756641D02*
X170551069Y-86851880D01*
X170551069Y-86851880D02*
X170646307Y-86899499D01*
X170646307Y-86899499D02*
X170789164Y-86899499D01*
X170789164Y-86899499D02*
X170884402Y-86851880D01*
X170884402Y-86851880D02*
X170932021Y-86804260D01*
X171408212Y-86899499D02*
X171408212Y-86232832D01*
X171408212Y-85899499D02*
X171360593Y-85947118D01*
X171360593Y-85947118D02*
X171408212Y-85994737D01*
X171408212Y-85994737D02*
X171455831Y-85947118D01*
X171455831Y-85947118D02*
X171408212Y-85899499D01*
X171408212Y-85899499D02*
X171408212Y-85994737D01*
X171884402Y-86232832D02*
X171884402Y-86899499D01*
X171884402Y-86328070D02*
X171932021Y-86280451D01*
X171932021Y-86280451D02*
X172027259Y-86232832D01*
X172027259Y-86232832D02*
X172170116Y-86232832D01*
X172170116Y-86232832D02*
X172265354Y-86280451D01*
X172265354Y-86280451D02*
X172312973Y-86375689D01*
X172312973Y-86375689D02*
X172312973Y-86899499D01*
X172932021Y-86899499D02*
X172836783Y-86851880D01*
X172836783Y-86851880D02*
X172789164Y-86804260D01*
X172789164Y-86804260D02*
X172741545Y-86709022D01*
X172741545Y-86709022D02*
X172741545Y-86423308D01*
X172741545Y-86423308D02*
X172789164Y-86328070D01*
X172789164Y-86328070D02*
X172836783Y-86280451D01*
X172836783Y-86280451D02*
X172932021Y-86232832D01*
X172932021Y-86232832D02*
X173074878Y-86232832D01*
X173074878Y-86232832D02*
X173170116Y-86280451D01*
X173170116Y-86280451D02*
X173217735Y-86328070D01*
X173217735Y-86328070D02*
X173265354Y-86423308D01*
X173265354Y-86423308D02*
X173265354Y-86709022D01*
X173265354Y-86709022D02*
X173217735Y-86804260D01*
X173217735Y-86804260D02*
X173170116Y-86851880D01*
X173170116Y-86851880D02*
X173074878Y-86899499D01*
X173074878Y-86899499D02*
X172932021Y-86899499D01*
X173455831Y-86994737D02*
X174217735Y-86994737D01*
X174455831Y-85899499D02*
X174455831Y-86709022D01*
X174455831Y-86709022D02*
X174503450Y-86804260D01*
X174503450Y-86804260D02*
X174551069Y-86851880D01*
X174551069Y-86851880D02*
X174646307Y-86899499D01*
X174646307Y-86899499D02*
X174836783Y-86899499D01*
X174836783Y-86899499D02*
X174932021Y-86851880D01*
X174932021Y-86851880D02*
X174979640Y-86804260D01*
X174979640Y-86804260D02*
X175027259Y-86709022D01*
X175027259Y-86709022D02*
X175027259Y-85899499D01*
X175503450Y-86899499D02*
X175503450Y-85899499D01*
X175503450Y-85899499D02*
X176074878Y-86899499D01*
X176074878Y-86899499D02*
X176074878Y-85899499D01*
X176741545Y-85899499D02*
X176932021Y-85899499D01*
X176932021Y-85899499D02*
X177027259Y-85947118D01*
X177027259Y-85947118D02*
X177122497Y-86042356D01*
X177122497Y-86042356D02*
X177170116Y-86232832D01*
X177170116Y-86232832D02*
X177170116Y-86566165D01*
X177170116Y-86566165D02*
X177122497Y-86756641D01*
X177122497Y-86756641D02*
X177027259Y-86851880D01*
X177027259Y-86851880D02*
X176932021Y-86899499D01*
X176932021Y-86899499D02*
X176741545Y-86899499D01*
X176741545Y-86899499D02*
X176646307Y-86851880D01*
X176646307Y-86851880D02*
X176551069Y-86756641D01*
X176551069Y-86756641D02*
X176503450Y-86566165D01*
X176503450Y-86566165D02*
X176503450Y-86232832D01*
X176503450Y-86232832D02*
X176551069Y-86042356D01*
X176551069Y-86042356D02*
X176646307Y-85947118D01*
X176646307Y-85947118D02*
X176741545Y-85899499D01*
X177360593Y-86994737D02*
X178122497Y-86994737D01*
X178932021Y-86899499D02*
X178598688Y-86423308D01*
X178360593Y-86899499D02*
X178360593Y-85899499D01*
X178360593Y-85899499D02*
X178741545Y-85899499D01*
X178741545Y-85899499D02*
X178836783Y-85947118D01*
X178836783Y-85947118D02*
X178884402Y-85994737D01*
X178884402Y-85994737D02*
X178932021Y-86089975D01*
X178932021Y-86089975D02*
X178932021Y-86232832D01*
X178932021Y-86232832D02*
X178884402Y-86328070D01*
X178884402Y-86328070D02*
X178836783Y-86375689D01*
X178836783Y-86375689D02*
X178741545Y-86423308D01*
X178741545Y-86423308D02*
X178360593Y-86423308D01*
X179265355Y-85899499D02*
X179884402Y-85899499D01*
X179884402Y-85899499D02*
X179551069Y-86280451D01*
X179551069Y-86280451D02*
X179693926Y-86280451D01*
X179693926Y-86280451D02*
X179789164Y-86328070D01*
X179789164Y-86328070D02*
X179836783Y-86375689D01*
X179836783Y-86375689D02*
X179884402Y-86470927D01*
X179884402Y-86470927D02*
X179884402Y-86709022D01*
X179884402Y-86709022D02*
X179836783Y-86804260D01*
X179836783Y-86804260D02*
X179789164Y-86851880D01*
X179789164Y-86851880D02*
X179693926Y-86899499D01*
X179693926Y-86899499D02*
X179408212Y-86899499D01*
X179408212Y-86899499D02*
X179312974Y-86851880D01*
X179312974Y-86851880D02*
X179265355Y-86804260D01*
X139697735Y-93519499D02*
X139697735Y-94329022D01*
X139697735Y-94329022D02*
X139745354Y-94424260D01*
X139745354Y-94424260D02*
X139792973Y-94471880D01*
X139792973Y-94471880D02*
X139888211Y-94519499D01*
X139888211Y-94519499D02*
X140078687Y-94519499D01*
X140078687Y-94519499D02*
X140173925Y-94471880D01*
X140173925Y-94471880D02*
X140221544Y-94424260D01*
X140221544Y-94424260D02*
X140269163Y-94329022D01*
X140269163Y-94329022D02*
X140269163Y-93519499D01*
X140697735Y-94471880D02*
X140840592Y-94519499D01*
X140840592Y-94519499D02*
X141078687Y-94519499D01*
X141078687Y-94519499D02*
X141173925Y-94471880D01*
X141173925Y-94471880D02*
X141221544Y-94424260D01*
X141221544Y-94424260D02*
X141269163Y-94329022D01*
X141269163Y-94329022D02*
X141269163Y-94233784D01*
X141269163Y-94233784D02*
X141221544Y-94138546D01*
X141221544Y-94138546D02*
X141173925Y-94090927D01*
X141173925Y-94090927D02*
X141078687Y-94043308D01*
X141078687Y-94043308D02*
X140888211Y-93995689D01*
X140888211Y-93995689D02*
X140792973Y-93948070D01*
X140792973Y-93948070D02*
X140745354Y-93900451D01*
X140745354Y-93900451D02*
X140697735Y-93805213D01*
X140697735Y-93805213D02*
X140697735Y-93709975D01*
X140697735Y-93709975D02*
X140745354Y-93614737D01*
X140745354Y-93614737D02*
X140792973Y-93567118D01*
X140792973Y-93567118D02*
X140888211Y-93519499D01*
X140888211Y-93519499D02*
X141126306Y-93519499D01*
X141126306Y-93519499D02*
X141269163Y-93567118D01*
X142031068Y-93995689D02*
X142173925Y-94043308D01*
X142173925Y-94043308D02*
X142221544Y-94090927D01*
X142221544Y-94090927D02*
X142269163Y-94186165D01*
X142269163Y-94186165D02*
X142269163Y-94329022D01*
X142269163Y-94329022D02*
X142221544Y-94424260D01*
X142221544Y-94424260D02*
X142173925Y-94471880D01*
X142173925Y-94471880D02*
X142078687Y-94519499D01*
X142078687Y-94519499D02*
X141697735Y-94519499D01*
X141697735Y-94519499D02*
X141697735Y-93519499D01*
X141697735Y-93519499D02*
X142031068Y-93519499D01*
X142031068Y-93519499D02*
X142126306Y-93567118D01*
X142126306Y-93567118D02*
X142173925Y-93614737D01*
X142173925Y-93614737D02*
X142221544Y-93709975D01*
X142221544Y-93709975D02*
X142221544Y-93805213D01*
X142221544Y-93805213D02*
X142173925Y-93900451D01*
X142173925Y-93900451D02*
X142126306Y-93948070D01*
X142126306Y-93948070D02*
X142031068Y-93995689D01*
X142031068Y-93995689D02*
X141697735Y-93995689D01*
X156374402Y-93519499D02*
X156707735Y-94519499D01*
X156707735Y-94519499D02*
X157041068Y-93519499D01*
X157374402Y-94519499D02*
X157374402Y-93519499D01*
X157850592Y-94519499D02*
X157850592Y-93519499D01*
X157850592Y-93519499D02*
X158422020Y-94519499D01*
X158422020Y-94519499D02*
X158422020Y-93519499D01*
X144920830Y-87527252D02*
X144920830Y-84987252D01*
X144920830Y-84987252D02*
X145767497Y-86801538D01*
X145767497Y-86801538D02*
X146614164Y-84987252D01*
X146614164Y-84987252D02*
X146614164Y-87527252D01*
X148791306Y-87406300D02*
X148549402Y-87527252D01*
X148549402Y-87527252D02*
X148065592Y-87527252D01*
X148065592Y-87527252D02*
X147823687Y-87406300D01*
X147823687Y-87406300D02*
X147702735Y-87164395D01*
X147702735Y-87164395D02*
X147702735Y-86196776D01*
X147702735Y-86196776D02*
X147823687Y-85954871D01*
X147823687Y-85954871D02*
X148065592Y-85833919D01*
X148065592Y-85833919D02*
X148549402Y-85833919D01*
X148549402Y-85833919D02*
X148791306Y-85954871D01*
X148791306Y-85954871D02*
X148912259Y-86196776D01*
X148912259Y-86196776D02*
X148912259Y-86438680D01*
X148912259Y-86438680D02*
X147702735Y-86680585D01*
X149637973Y-85833919D02*
X150605592Y-85833919D01*
X150000830Y-84987252D02*
X150000830Y-87164395D01*
X150000830Y-87164395D02*
X150121783Y-87406300D01*
X150121783Y-87406300D02*
X150363688Y-87527252D01*
X150363688Y-87527252D02*
X150605592Y-87527252D01*
X151452259Y-87527252D02*
X151452259Y-85833919D01*
X151452259Y-86317728D02*
X151573212Y-86075823D01*
X151573212Y-86075823D02*
X151694164Y-85954871D01*
X151694164Y-85954871D02*
X151936069Y-85833919D01*
X151936069Y-85833919D02*
X152177974Y-85833919D01*
X153387498Y-87527252D02*
X153145593Y-87406300D01*
X153145593Y-87406300D02*
X153024640Y-87285347D01*
X153024640Y-87285347D02*
X152903688Y-87043442D01*
X152903688Y-87043442D02*
X152903688Y-86317728D01*
X152903688Y-86317728D02*
X153024640Y-86075823D01*
X153024640Y-86075823D02*
X153145593Y-85954871D01*
X153145593Y-85954871D02*
X153387498Y-85833919D01*
X153387498Y-85833919D02*
X153750355Y-85833919D01*
X153750355Y-85833919D02*
X153992259Y-85954871D01*
X153992259Y-85954871D02*
X154113212Y-86075823D01*
X154113212Y-86075823D02*
X154234164Y-86317728D01*
X154234164Y-86317728D02*
X154234164Y-87043442D01*
X154234164Y-87043442D02*
X154113212Y-87285347D01*
X154113212Y-87285347D02*
X153992259Y-87406300D01*
X153992259Y-87406300D02*
X153750355Y-87527252D01*
X153750355Y-87527252D02*
X153387498Y-87527252D01*
X157257973Y-87527252D02*
X157257973Y-84987252D01*
X157257973Y-84987252D02*
X158104640Y-86801538D01*
X158104640Y-86801538D02*
X158951307Y-84987252D01*
X158951307Y-84987252D02*
X158951307Y-87527252D01*
X160160830Y-87527252D02*
X160160830Y-85833919D01*
X160160830Y-84987252D02*
X160039878Y-85108204D01*
X160039878Y-85108204D02*
X160160830Y-85229157D01*
X160160830Y-85229157D02*
X160281783Y-85108204D01*
X160281783Y-85108204D02*
X160160830Y-84987252D01*
X160160830Y-84987252D02*
X160160830Y-85229157D01*
X161370354Y-85833919D02*
X161370354Y-87527252D01*
X161370354Y-86075823D02*
X161491307Y-85954871D01*
X161491307Y-85954871D02*
X161733212Y-85833919D01*
X161733212Y-85833919D02*
X162096069Y-85833919D01*
X162096069Y-85833919D02*
X162337973Y-85954871D01*
X162337973Y-85954871D02*
X162458926Y-86196776D01*
X162458926Y-86196776D02*
X162458926Y-87527252D01*
X163668449Y-87527252D02*
X163668449Y-85833919D01*
X163668449Y-84987252D02*
X163547497Y-85108204D01*
X163547497Y-85108204D02*
X163668449Y-85229157D01*
X163668449Y-85229157D02*
X163789402Y-85108204D01*
X163789402Y-85108204D02*
X163668449Y-84987252D01*
X163668449Y-84987252D02*
X163668449Y-85229157D01*
X160200116Y-83359499D02*
X160009640Y-83359499D01*
X160009640Y-83359499D02*
X159914402Y-83407118D01*
X159914402Y-83407118D02*
X159866783Y-83454737D01*
X159866783Y-83454737D02*
X159771545Y-83597594D01*
X159771545Y-83597594D02*
X159723926Y-83788070D01*
X159723926Y-83788070D02*
X159723926Y-84169022D01*
X159723926Y-84169022D02*
X159771545Y-84264260D01*
X159771545Y-84264260D02*
X159819164Y-84311880D01*
X159819164Y-84311880D02*
X159914402Y-84359499D01*
X159914402Y-84359499D02*
X160104878Y-84359499D01*
X160104878Y-84359499D02*
X160200116Y-84311880D01*
X160200116Y-84311880D02*
X160247735Y-84264260D01*
X160247735Y-84264260D02*
X160295354Y-84169022D01*
X160295354Y-84169022D02*
X160295354Y-83930927D01*
X160295354Y-83930927D02*
X160247735Y-83835689D01*
X160247735Y-83835689D02*
X160200116Y-83788070D01*
X160200116Y-83788070D02*
X160104878Y-83740451D01*
X160104878Y-83740451D02*
X159914402Y-83740451D01*
X159914402Y-83740451D02*
X159819164Y-83788070D01*
X159819164Y-83788070D02*
X159771545Y-83835689D01*
X159771545Y-83835689D02*
X159723926Y-83930927D01*
X161835354Y-94233784D02*
X162311544Y-94233784D01*
X161740116Y-94519499D02*
X162073449Y-93519499D01*
X162073449Y-93519499D02*
X162406782Y-94519499D01*
X162930592Y-93519499D02*
X163025830Y-93519499D01*
X163025830Y-93519499D02*
X163121068Y-93567118D01*
X163121068Y-93567118D02*
X163168687Y-93614737D01*
X163168687Y-93614737D02*
X163216306Y-93709975D01*
X163216306Y-93709975D02*
X163263925Y-93900451D01*
X163263925Y-93900451D02*
X163263925Y-94138546D01*
X163263925Y-94138546D02*
X163216306Y-94329022D01*
X163216306Y-94329022D02*
X163168687Y-94424260D01*
X163168687Y-94424260D02*
X163121068Y-94471880D01*
X163121068Y-94471880D02*
X163025830Y-94519499D01*
X163025830Y-94519499D02*
X162930592Y-94519499D01*
X162930592Y-94519499D02*
X162835354Y-94471880D01*
X162835354Y-94471880D02*
X162787735Y-94424260D01*
X162787735Y-94424260D02*
X162740116Y-94329022D01*
X162740116Y-94329022D02*
X162692497Y-94138546D01*
X162692497Y-94138546D02*
X162692497Y-93900451D01*
X162692497Y-93900451D02*
X162740116Y-93709975D01*
X162740116Y-93709975D02*
X162787735Y-93614737D01*
X162787735Y-93614737D02*
X162835354Y-93567118D01*
X162835354Y-93567118D02*
X162930592Y-93519499D01*
X175202021Y-83359499D02*
X175297259Y-83359499D01*
X175297259Y-83359499D02*
X175392497Y-83407118D01*
X175392497Y-83407118D02*
X175440116Y-83454737D01*
X175440116Y-83454737D02*
X175487735Y-83549975D01*
X175487735Y-83549975D02*
X175535354Y-83740451D01*
X175535354Y-83740451D02*
X175535354Y-83978546D01*
X175535354Y-83978546D02*
X175487735Y-84169022D01*
X175487735Y-84169022D02*
X175440116Y-84264260D01*
X175440116Y-84264260D02*
X175392497Y-84311880D01*
X175392497Y-84311880D02*
X175297259Y-84359499D01*
X175297259Y-84359499D02*
X175202021Y-84359499D01*
X175202021Y-84359499D02*
X175106783Y-84311880D01*
X175106783Y-84311880D02*
X175059164Y-84264260D01*
X175059164Y-84264260D02*
X175011545Y-84169022D01*
X175011545Y-84169022D02*
X174963926Y-83978546D01*
X174963926Y-83978546D02*
X174963926Y-83740451D01*
X174963926Y-83740451D02*
X175011545Y-83549975D01*
X175011545Y-83549975D02*
X175059164Y-83454737D01*
X175059164Y-83454737D02*
X175106783Y-83407118D01*
X175106783Y-83407118D02*
X175202021Y-83359499D01*
X142039163Y-84359499D02*
X141467735Y-84359499D01*
X141753449Y-84359499D02*
X141753449Y-83359499D01*
X141753449Y-83359499D02*
X141658211Y-83502356D01*
X141658211Y-83502356D02*
X141562973Y-83597594D01*
X141562973Y-83597594D02*
X141467735Y-83645213D01*
X142372497Y-83359499D02*
X142991544Y-83359499D01*
X142991544Y-83359499D02*
X142658211Y-83740451D01*
X142658211Y-83740451D02*
X142801068Y-83740451D01*
X142801068Y-83740451D02*
X142896306Y-83788070D01*
X142896306Y-83788070D02*
X142943925Y-83835689D01*
X142943925Y-83835689D02*
X142991544Y-83930927D01*
X142991544Y-83930927D02*
X142991544Y-84169022D01*
X142991544Y-84169022D02*
X142943925Y-84264260D01*
X142943925Y-84264260D02*
X142896306Y-84311880D01*
X142896306Y-84311880D02*
X142801068Y-84359499D01*
X142801068Y-84359499D02*
X142515354Y-84359499D01*
X142515354Y-84359499D02*
X142420116Y-84311880D01*
X142420116Y-84311880D02*
X142372497Y-84264260D01*
X174535354Y-94233784D02*
X175011544Y-94233784D01*
X174440116Y-94519499D02*
X174773449Y-93519499D01*
X174773449Y-93519499D02*
X175106782Y-94519499D01*
X175916306Y-93519499D02*
X175440116Y-93519499D01*
X175440116Y-93519499D02*
X175392497Y-93995689D01*
X175392497Y-93995689D02*
X175440116Y-93948070D01*
X175440116Y-93948070D02*
X175535354Y-93900451D01*
X175535354Y-93900451D02*
X175773449Y-93900451D01*
X175773449Y-93900451D02*
X175868687Y-93948070D01*
X175868687Y-93948070D02*
X175916306Y-93995689D01*
X175916306Y-93995689D02*
X175963925Y-94090927D01*
X175963925Y-94090927D02*
X175963925Y-94329022D01*
X175963925Y-94329022D02*
X175916306Y-94424260D01*
X175916306Y-94424260D02*
X175868687Y-94471880D01*
X175868687Y-94471880D02*
X175773449Y-94519499D01*
X175773449Y-94519499D02*
X175535354Y-94519499D01*
X175535354Y-94519499D02*
X175440116Y-94471880D01*
X175440116Y-94471880D02*
X175392497Y-94424260D01*
X110498095Y-102324819D02*
X111069523Y-102324819D01*
X110783809Y-103324819D02*
X110783809Y-102324819D01*
X111402857Y-103324819D02*
X111402857Y-102324819D01*
X111402857Y-102324819D02*
X111783809Y-102324819D01*
X111783809Y-102324819D02*
X111879047Y-102372438D01*
X111879047Y-102372438D02*
X111926666Y-102420057D01*
X111926666Y-102420057D02*
X111974285Y-102515295D01*
X111974285Y-102515295D02*
X111974285Y-102658152D01*
X111974285Y-102658152D02*
X111926666Y-102753390D01*
X111926666Y-102753390D02*
X111879047Y-102801009D01*
X111879047Y-102801009D02*
X111783809Y-102848628D01*
X111783809Y-102848628D02*
X111402857Y-102848628D01*
X112307619Y-102324819D02*
X112926666Y-102324819D01*
X112926666Y-102324819D02*
X112593333Y-102705771D01*
X112593333Y-102705771D02*
X112736190Y-102705771D01*
X112736190Y-102705771D02*
X112831428Y-102753390D01*
X112831428Y-102753390D02*
X112879047Y-102801009D01*
X112879047Y-102801009D02*
X112926666Y-102896247D01*
X112926666Y-102896247D02*
X112926666Y-103134342D01*
X112926666Y-103134342D02*
X112879047Y-103229580D01*
X112879047Y-103229580D02*
X112831428Y-103277200D01*
X112831428Y-103277200D02*
X112736190Y-103324819D01*
X112736190Y-103324819D02*
X112450476Y-103324819D01*
X112450476Y-103324819D02*
X112355238Y-103277200D01*
X112355238Y-103277200D02*
X112307619Y-103229580D01*
X102536666Y-123279819D02*
X102536666Y-123994104D01*
X102536666Y-123994104D02*
X102489047Y-124136961D01*
X102489047Y-124136961D02*
X102393809Y-124232200D01*
X102393809Y-124232200D02*
X102250952Y-124279819D01*
X102250952Y-124279819D02*
X102155714Y-124279819D01*
X103489047Y-123279819D02*
X103012857Y-123279819D01*
X103012857Y-123279819D02*
X102965238Y-123756009D01*
X102965238Y-123756009D02*
X103012857Y-123708390D01*
X103012857Y-123708390D02*
X103108095Y-123660771D01*
X103108095Y-123660771D02*
X103346190Y-123660771D01*
X103346190Y-123660771D02*
X103441428Y-123708390D01*
X103441428Y-123708390D02*
X103489047Y-123756009D01*
X103489047Y-123756009D02*
X103536666Y-123851247D01*
X103536666Y-123851247D02*
X103536666Y-124089342D01*
X103536666Y-124089342D02*
X103489047Y-124184580D01*
X103489047Y-124184580D02*
X103441428Y-124232200D01*
X103441428Y-124232200D02*
X103346190Y-124279819D01*
X103346190Y-124279819D02*
X103108095Y-124279819D01*
X103108095Y-124279819D02*
X103012857Y-124232200D01*
X103012857Y-124232200D02*
X102965238Y-124184580D01*
X149586410Y-73280778D02*
X149538791Y-73328398D01*
X149538791Y-73328398D02*
X149395934Y-73376017D01*
X149395934Y-73376017D02*
X149300696Y-73376017D01*
X149300696Y-73376017D02*
X149157839Y-73328398D01*
X149157839Y-73328398D02*
X149062601Y-73233159D01*
X149062601Y-73233159D02*
X149014982Y-73137921D01*
X149014982Y-73137921D02*
X148967363Y-72947445D01*
X148967363Y-72947445D02*
X148967363Y-72804588D01*
X148967363Y-72804588D02*
X149014982Y-72614112D01*
X149014982Y-72614112D02*
X149062601Y-72518874D01*
X149062601Y-72518874D02*
X149157839Y-72423636D01*
X149157839Y-72423636D02*
X149300696Y-72376017D01*
X149300696Y-72376017D02*
X149395934Y-72376017D01*
X149395934Y-72376017D02*
X149538791Y-72423636D01*
X149538791Y-72423636D02*
X149586410Y-72471255D01*
X150491172Y-72376017D02*
X150014982Y-72376017D01*
X150014982Y-72376017D02*
X149967363Y-72852207D01*
X149967363Y-72852207D02*
X150014982Y-72804588D01*
X150014982Y-72804588D02*
X150110220Y-72756969D01*
X150110220Y-72756969D02*
X150348315Y-72756969D01*
X150348315Y-72756969D02*
X150443553Y-72804588D01*
X150443553Y-72804588D02*
X150491172Y-72852207D01*
X150491172Y-72852207D02*
X150538791Y-72947445D01*
X150538791Y-72947445D02*
X150538791Y-73185540D01*
X150538791Y-73185540D02*
X150491172Y-73280778D01*
X150491172Y-73280778D02*
X150443553Y-73328398D01*
X150443553Y-73328398D02*
X150348315Y-73376017D01*
X150348315Y-73376017D02*
X150110220Y-73376017D01*
X150110220Y-73376017D02*
X150014982Y-73328398D01*
X150014982Y-73328398D02*
X149967363Y-73280778D01*
X176339667Y-119533200D02*
X176482524Y-119580819D01*
X176482524Y-119580819D02*
X176720619Y-119580819D01*
X176720619Y-119580819D02*
X176815857Y-119533200D01*
X176815857Y-119533200D02*
X176863476Y-119485580D01*
X176863476Y-119485580D02*
X176911095Y-119390342D01*
X176911095Y-119390342D02*
X176911095Y-119295104D01*
X176911095Y-119295104D02*
X176863476Y-119199866D01*
X176863476Y-119199866D02*
X176815857Y-119152247D01*
X176815857Y-119152247D02*
X176720619Y-119104628D01*
X176720619Y-119104628D02*
X176530143Y-119057009D01*
X176530143Y-119057009D02*
X176434905Y-119009390D01*
X176434905Y-119009390D02*
X176387286Y-118961771D01*
X176387286Y-118961771D02*
X176339667Y-118866533D01*
X176339667Y-118866533D02*
X176339667Y-118771295D01*
X176339667Y-118771295D02*
X176387286Y-118676057D01*
X176387286Y-118676057D02*
X176434905Y-118628438D01*
X176434905Y-118628438D02*
X176530143Y-118580819D01*
X176530143Y-118580819D02*
X176768238Y-118580819D01*
X176768238Y-118580819D02*
X176911095Y-118628438D01*
X177244429Y-118580819D02*
X177482524Y-119580819D01*
X177482524Y-119580819D02*
X177673000Y-118866533D01*
X177673000Y-118866533D02*
X177863476Y-119580819D01*
X177863476Y-119580819D02*
X178101572Y-118580819D01*
X179006333Y-119580819D02*
X178434905Y-119580819D01*
X178720619Y-119580819D02*
X178720619Y-118580819D01*
X178720619Y-118580819D02*
X178625381Y-118723676D01*
X178625381Y-118723676D02*
X178530143Y-118818914D01*
X178530143Y-118818914D02*
X178434905Y-118866533D01*
X192706666Y-87984819D02*
X192706666Y-88699104D01*
X192706666Y-88699104D02*
X192659047Y-88841961D01*
X192659047Y-88841961D02*
X192563809Y-88937200D01*
X192563809Y-88937200D02*
X192420952Y-88984819D01*
X192420952Y-88984819D02*
X192325714Y-88984819D01*
X193087619Y-87984819D02*
X193706666Y-87984819D01*
X193706666Y-87984819D02*
X193373333Y-88365771D01*
X193373333Y-88365771D02*
X193516190Y-88365771D01*
X193516190Y-88365771D02*
X193611428Y-88413390D01*
X193611428Y-88413390D02*
X193659047Y-88461009D01*
X193659047Y-88461009D02*
X193706666Y-88556247D01*
X193706666Y-88556247D02*
X193706666Y-88794342D01*
X193706666Y-88794342D02*
X193659047Y-88889580D01*
X193659047Y-88889580D02*
X193611428Y-88937200D01*
X193611428Y-88937200D02*
X193516190Y-88984819D01*
X193516190Y-88984819D02*
X193230476Y-88984819D01*
X193230476Y-88984819D02*
X193135238Y-88937200D01*
X193135238Y-88937200D02*
X193087619Y-88889580D01*
X158803572Y-103814334D02*
X158755953Y-103861954D01*
X158755953Y-103861954D02*
X158613096Y-103909573D01*
X158613096Y-103909573D02*
X158517858Y-103909573D01*
X158517858Y-103909573D02*
X158375001Y-103861954D01*
X158375001Y-103861954D02*
X158279763Y-103766715D01*
X158279763Y-103766715D02*
X158232144Y-103671477D01*
X158232144Y-103671477D02*
X158184525Y-103481001D01*
X158184525Y-103481001D02*
X158184525Y-103338144D01*
X158184525Y-103338144D02*
X158232144Y-103147668D01*
X158232144Y-103147668D02*
X158279763Y-103052430D01*
X158279763Y-103052430D02*
X158375001Y-102957192D01*
X158375001Y-102957192D02*
X158517858Y-102909573D01*
X158517858Y-102909573D02*
X158613096Y-102909573D01*
X158613096Y-102909573D02*
X158755953Y-102957192D01*
X158755953Y-102957192D02*
X158803572Y-103004811D01*
X159136906Y-102909573D02*
X159803572Y-102909573D01*
X159803572Y-102909573D02*
X159375001Y-103909573D01*
X133405714Y-71574819D02*
X133405714Y-70574819D01*
X133405714Y-70574819D02*
X133786666Y-70574819D01*
X133786666Y-70574819D02*
X133881904Y-70622438D01*
X133881904Y-70622438D02*
X133929523Y-70670057D01*
X133929523Y-70670057D02*
X133977142Y-70765295D01*
X133977142Y-70765295D02*
X133977142Y-70908152D01*
X133977142Y-70908152D02*
X133929523Y-71003390D01*
X133929523Y-71003390D02*
X133881904Y-71051009D01*
X133881904Y-71051009D02*
X133786666Y-71098628D01*
X133786666Y-71098628D02*
X133405714Y-71098628D01*
X134358095Y-71527200D02*
X134500952Y-71574819D01*
X134500952Y-71574819D02*
X134739047Y-71574819D01*
X134739047Y-71574819D02*
X134834285Y-71527200D01*
X134834285Y-71527200D02*
X134881904Y-71479580D01*
X134881904Y-71479580D02*
X134929523Y-71384342D01*
X134929523Y-71384342D02*
X134929523Y-71289104D01*
X134929523Y-71289104D02*
X134881904Y-71193866D01*
X134881904Y-71193866D02*
X134834285Y-71146247D01*
X134834285Y-71146247D02*
X134739047Y-71098628D01*
X134739047Y-71098628D02*
X134548571Y-71051009D01*
X134548571Y-71051009D02*
X134453333Y-71003390D01*
X134453333Y-71003390D02*
X134405714Y-70955771D01*
X134405714Y-70955771D02*
X134358095Y-70860533D01*
X134358095Y-70860533D02*
X134358095Y-70765295D01*
X134358095Y-70765295D02*
X134405714Y-70670057D01*
X134405714Y-70670057D02*
X134453333Y-70622438D01*
X134453333Y-70622438D02*
X134548571Y-70574819D01*
X134548571Y-70574819D02*
X134786666Y-70574819D01*
X134786666Y-70574819D02*
X134929523Y-70622438D01*
X135881904Y-71574819D02*
X135310476Y-71574819D01*
X135596190Y-71574819D02*
X135596190Y-70574819D01*
X135596190Y-70574819D02*
X135500952Y-70717676D01*
X135500952Y-70717676D02*
X135405714Y-70812914D01*
X135405714Y-70812914D02*
X135310476Y-70860533D01*
X105243333Y-75924580D02*
X105195714Y-75972200D01*
X105195714Y-75972200D02*
X105052857Y-76019819D01*
X105052857Y-76019819D02*
X104957619Y-76019819D01*
X104957619Y-76019819D02*
X104814762Y-75972200D01*
X104814762Y-75972200D02*
X104719524Y-75876961D01*
X104719524Y-75876961D02*
X104671905Y-75781723D01*
X104671905Y-75781723D02*
X104624286Y-75591247D01*
X104624286Y-75591247D02*
X104624286Y-75448390D01*
X104624286Y-75448390D02*
X104671905Y-75257914D01*
X104671905Y-75257914D02*
X104719524Y-75162676D01*
X104719524Y-75162676D02*
X104814762Y-75067438D01*
X104814762Y-75067438D02*
X104957619Y-75019819D01*
X104957619Y-75019819D02*
X105052857Y-75019819D01*
X105052857Y-75019819D02*
X105195714Y-75067438D01*
X105195714Y-75067438D02*
X105243333Y-75115057D01*
X105576667Y-75019819D02*
X106195714Y-75019819D01*
X106195714Y-75019819D02*
X105862381Y-75400771D01*
X105862381Y-75400771D02*
X106005238Y-75400771D01*
X106005238Y-75400771D02*
X106100476Y-75448390D01*
X106100476Y-75448390D02*
X106148095Y-75496009D01*
X106148095Y-75496009D02*
X106195714Y-75591247D01*
X106195714Y-75591247D02*
X106195714Y-75829342D01*
X106195714Y-75829342D02*
X106148095Y-75924580D01*
X106148095Y-75924580D02*
X106100476Y-75972200D01*
X106100476Y-75972200D02*
X106005238Y-76019819D01*
X106005238Y-76019819D02*
X105719524Y-76019819D01*
X105719524Y-76019819D02*
X105624286Y-75972200D01*
X105624286Y-75972200D02*
X105576667Y-75924580D01*
X189857142Y-117199580D02*
X189809523Y-117247200D01*
X189809523Y-117247200D02*
X189666666Y-117294819D01*
X189666666Y-117294819D02*
X189571428Y-117294819D01*
X189571428Y-117294819D02*
X189428571Y-117247200D01*
X189428571Y-117247200D02*
X189333333Y-117151961D01*
X189333333Y-117151961D02*
X189285714Y-117056723D01*
X189285714Y-117056723D02*
X189238095Y-116866247D01*
X189238095Y-116866247D02*
X189238095Y-116723390D01*
X189238095Y-116723390D02*
X189285714Y-116532914D01*
X189285714Y-116532914D02*
X189333333Y-116437676D01*
X189333333Y-116437676D02*
X189428571Y-116342438D01*
X189428571Y-116342438D02*
X189571428Y-116294819D01*
X189571428Y-116294819D02*
X189666666Y-116294819D01*
X189666666Y-116294819D02*
X189809523Y-116342438D01*
X189809523Y-116342438D02*
X189857142Y-116390057D01*
X190809523Y-117294819D02*
X190238095Y-117294819D01*
X190523809Y-117294819D02*
X190523809Y-116294819D01*
X190523809Y-116294819D02*
X190428571Y-116437676D01*
X190428571Y-116437676D02*
X190333333Y-116532914D01*
X190333333Y-116532914D02*
X190238095Y-116580533D01*
X191428571Y-116294819D02*
X191523809Y-116294819D01*
X191523809Y-116294819D02*
X191619047Y-116342438D01*
X191619047Y-116342438D02*
X191666666Y-116390057D01*
X191666666Y-116390057D02*
X191714285Y-116485295D01*
X191714285Y-116485295D02*
X191761904Y-116675771D01*
X191761904Y-116675771D02*
X191761904Y-116913866D01*
X191761904Y-116913866D02*
X191714285Y-117104342D01*
X191714285Y-117104342D02*
X191666666Y-117199580D01*
X191666666Y-117199580D02*
X191619047Y-117247200D01*
X191619047Y-117247200D02*
X191523809Y-117294819D01*
X191523809Y-117294819D02*
X191428571Y-117294819D01*
X191428571Y-117294819D02*
X191333333Y-117247200D01*
X191333333Y-117247200D02*
X191285714Y-117199580D01*
X191285714Y-117199580D02*
X191238095Y-117104342D01*
X191238095Y-117104342D02*
X191190476Y-116913866D01*
X191190476Y-116913866D02*
X191190476Y-116675771D01*
X191190476Y-116675771D02*
X191238095Y-116485295D01*
X191238095Y-116485295D02*
X191285714Y-116390057D01*
X191285714Y-116390057D02*
X191333333Y-116342438D01*
X191333333Y-116342438D02*
X191428571Y-116294819D01*
X188499761Y-109135057D02*
X188404523Y-109087438D01*
X188404523Y-109087438D02*
X188309285Y-108992200D01*
X188309285Y-108992200D02*
X188166428Y-108849342D01*
X188166428Y-108849342D02*
X188071190Y-108801723D01*
X188071190Y-108801723D02*
X187975952Y-108801723D01*
X188023571Y-109039819D02*
X187928333Y-108992200D01*
X187928333Y-108992200D02*
X187833095Y-108896961D01*
X187833095Y-108896961D02*
X187785476Y-108706485D01*
X187785476Y-108706485D02*
X187785476Y-108373152D01*
X187785476Y-108373152D02*
X187833095Y-108182676D01*
X187833095Y-108182676D02*
X187928333Y-108087438D01*
X187928333Y-108087438D02*
X188023571Y-108039819D01*
X188023571Y-108039819D02*
X188214047Y-108039819D01*
X188214047Y-108039819D02*
X188309285Y-108087438D01*
X188309285Y-108087438D02*
X188404523Y-108182676D01*
X188404523Y-108182676D02*
X188452142Y-108373152D01*
X188452142Y-108373152D02*
X188452142Y-108706485D01*
X188452142Y-108706485D02*
X188404523Y-108896961D01*
X188404523Y-108896961D02*
X188309285Y-108992200D01*
X188309285Y-108992200D02*
X188214047Y-109039819D01*
X188214047Y-109039819D02*
X188023571Y-109039819D01*
X189404523Y-109039819D02*
X188833095Y-109039819D01*
X189118809Y-109039819D02*
X189118809Y-108039819D01*
X189118809Y-108039819D02*
X189023571Y-108182676D01*
X189023571Y-108182676D02*
X188928333Y-108277914D01*
X188928333Y-108277914D02*
X188833095Y-108325533D01*
X108688333Y-96339819D02*
X108355000Y-95863628D01*
X108116905Y-96339819D02*
X108116905Y-95339819D01*
X108116905Y-95339819D02*
X108497857Y-95339819D01*
X108497857Y-95339819D02*
X108593095Y-95387438D01*
X108593095Y-95387438D02*
X108640714Y-95435057D01*
X108640714Y-95435057D02*
X108688333Y-95530295D01*
X108688333Y-95530295D02*
X108688333Y-95673152D01*
X108688333Y-95673152D02*
X108640714Y-95768390D01*
X108640714Y-95768390D02*
X108593095Y-95816009D01*
X108593095Y-95816009D02*
X108497857Y-95863628D01*
X108497857Y-95863628D02*
X108116905Y-95863628D01*
X109069286Y-95435057D02*
X109116905Y-95387438D01*
X109116905Y-95387438D02*
X109212143Y-95339819D01*
X109212143Y-95339819D02*
X109450238Y-95339819D01*
X109450238Y-95339819D02*
X109545476Y-95387438D01*
X109545476Y-95387438D02*
X109593095Y-95435057D01*
X109593095Y-95435057D02*
X109640714Y-95530295D01*
X109640714Y-95530295D02*
X109640714Y-95625533D01*
X109640714Y-95625533D02*
X109593095Y-95768390D01*
X109593095Y-95768390D02*
X109021667Y-96339819D01*
X109021667Y-96339819D02*
X109640714Y-96339819D01*
X109150289Y-60166511D02*
X109102670Y-60214131D01*
X109102670Y-60214131D02*
X108959813Y-60261750D01*
X108959813Y-60261750D02*
X108864575Y-60261750D01*
X108864575Y-60261750D02*
X108721718Y-60214131D01*
X108721718Y-60214131D02*
X108626480Y-60118892D01*
X108626480Y-60118892D02*
X108578861Y-60023654D01*
X108578861Y-60023654D02*
X108531242Y-59833178D01*
X108531242Y-59833178D02*
X108531242Y-59690321D01*
X108531242Y-59690321D02*
X108578861Y-59499845D01*
X108578861Y-59499845D02*
X108626480Y-59404607D01*
X108626480Y-59404607D02*
X108721718Y-59309369D01*
X108721718Y-59309369D02*
X108864575Y-59261750D01*
X108864575Y-59261750D02*
X108959813Y-59261750D01*
X108959813Y-59261750D02*
X109102670Y-59309369D01*
X109102670Y-59309369D02*
X109150289Y-59356988D01*
X110102670Y-60261750D02*
X109531242Y-60261750D01*
X109816956Y-60261750D02*
X109816956Y-59261750D01*
X109816956Y-59261750D02*
X109721718Y-59404607D01*
X109721718Y-59404607D02*
X109626480Y-59499845D01*
X109626480Y-59499845D02*
X109531242Y-59547464D01*
X162709142Y-114629580D02*
X162661523Y-114677200D01*
X162661523Y-114677200D02*
X162518666Y-114724819D01*
X162518666Y-114724819D02*
X162423428Y-114724819D01*
X162423428Y-114724819D02*
X162280571Y-114677200D01*
X162280571Y-114677200D02*
X162185333Y-114581961D01*
X162185333Y-114581961D02*
X162137714Y-114486723D01*
X162137714Y-114486723D02*
X162090095Y-114296247D01*
X162090095Y-114296247D02*
X162090095Y-114153390D01*
X162090095Y-114153390D02*
X162137714Y-113962914D01*
X162137714Y-113962914D02*
X162185333Y-113867676D01*
X162185333Y-113867676D02*
X162280571Y-113772438D01*
X162280571Y-113772438D02*
X162423428Y-113724819D01*
X162423428Y-113724819D02*
X162518666Y-113724819D01*
X162518666Y-113724819D02*
X162661523Y-113772438D01*
X162661523Y-113772438D02*
X162709142Y-113820057D01*
X163661523Y-114724819D02*
X163090095Y-114724819D01*
X163375809Y-114724819D02*
X163375809Y-113724819D01*
X163375809Y-113724819D02*
X163280571Y-113867676D01*
X163280571Y-113867676D02*
X163185333Y-113962914D01*
X163185333Y-113962914D02*
X163090095Y-114010533D01*
X164613904Y-114724819D02*
X164042476Y-114724819D01*
X164328190Y-114724819D02*
X164328190Y-113724819D01*
X164328190Y-113724819D02*
X164232952Y-113867676D01*
X164232952Y-113867676D02*
X164137714Y-113962914D01*
X164137714Y-113962914D02*
X164042476Y-114010533D01*
X166458479Y-103874747D02*
X166410860Y-103922367D01*
X166410860Y-103922367D02*
X166268003Y-103969986D01*
X166268003Y-103969986D02*
X166172765Y-103969986D01*
X166172765Y-103969986D02*
X166029908Y-103922367D01*
X166029908Y-103922367D02*
X165934670Y-103827128D01*
X165934670Y-103827128D02*
X165887051Y-103731890D01*
X165887051Y-103731890D02*
X165839432Y-103541414D01*
X165839432Y-103541414D02*
X165839432Y-103398557D01*
X165839432Y-103398557D02*
X165887051Y-103208081D01*
X165887051Y-103208081D02*
X165934670Y-103112843D01*
X165934670Y-103112843D02*
X166029908Y-103017605D01*
X166029908Y-103017605D02*
X166172765Y-102969986D01*
X166172765Y-102969986D02*
X166268003Y-102969986D01*
X166268003Y-102969986D02*
X166410860Y-103017605D01*
X166410860Y-103017605D02*
X166458479Y-103065224D01*
X167029908Y-103398557D02*
X166934670Y-103350938D01*
X166934670Y-103350938D02*
X166887051Y-103303319D01*
X166887051Y-103303319D02*
X166839432Y-103208081D01*
X166839432Y-103208081D02*
X166839432Y-103160462D01*
X166839432Y-103160462D02*
X166887051Y-103065224D01*
X166887051Y-103065224D02*
X166934670Y-103017605D01*
X166934670Y-103017605D02*
X167029908Y-102969986D01*
X167029908Y-102969986D02*
X167220384Y-102969986D01*
X167220384Y-102969986D02*
X167315622Y-103017605D01*
X167315622Y-103017605D02*
X167363241Y-103065224D01*
X167363241Y-103065224D02*
X167410860Y-103160462D01*
X167410860Y-103160462D02*
X167410860Y-103208081D01*
X167410860Y-103208081D02*
X167363241Y-103303319D01*
X167363241Y-103303319D02*
X167315622Y-103350938D01*
X167315622Y-103350938D02*
X167220384Y-103398557D01*
X167220384Y-103398557D02*
X167029908Y-103398557D01*
X167029908Y-103398557D02*
X166934670Y-103446176D01*
X166934670Y-103446176D02*
X166887051Y-103493795D01*
X166887051Y-103493795D02*
X166839432Y-103589033D01*
X166839432Y-103589033D02*
X166839432Y-103779509D01*
X166839432Y-103779509D02*
X166887051Y-103874747D01*
X166887051Y-103874747D02*
X166934670Y-103922367D01*
X166934670Y-103922367D02*
X167029908Y-103969986D01*
X167029908Y-103969986D02*
X167220384Y-103969986D01*
X167220384Y-103969986D02*
X167315622Y-103922367D01*
X167315622Y-103922367D02*
X167363241Y-103874747D01*
X167363241Y-103874747D02*
X167410860Y-103779509D01*
X167410860Y-103779509D02*
X167410860Y-103589033D01*
X167410860Y-103589033D02*
X167363241Y-103493795D01*
X167363241Y-103493795D02*
X167315622Y-103446176D01*
X167315622Y-103446176D02*
X167220384Y-103398557D01*
X157146666Y-112834819D02*
X157146666Y-113549104D01*
X157146666Y-113549104D02*
X157099047Y-113691961D01*
X157099047Y-113691961D02*
X157003809Y-113787200D01*
X157003809Y-113787200D02*
X156860952Y-113834819D01*
X156860952Y-113834819D02*
X156765714Y-113834819D01*
X158051428Y-112834819D02*
X157860952Y-112834819D01*
X157860952Y-112834819D02*
X157765714Y-112882438D01*
X157765714Y-112882438D02*
X157718095Y-112930057D01*
X157718095Y-112930057D02*
X157622857Y-113072914D01*
X157622857Y-113072914D02*
X157575238Y-113263390D01*
X157575238Y-113263390D02*
X157575238Y-113644342D01*
X157575238Y-113644342D02*
X157622857Y-113739580D01*
X157622857Y-113739580D02*
X157670476Y-113787200D01*
X157670476Y-113787200D02*
X157765714Y-113834819D01*
X157765714Y-113834819D02*
X157956190Y-113834819D01*
X157956190Y-113834819D02*
X158051428Y-113787200D01*
X158051428Y-113787200D02*
X158099047Y-113739580D01*
X158099047Y-113739580D02*
X158146666Y-113644342D01*
X158146666Y-113644342D02*
X158146666Y-113406247D01*
X158146666Y-113406247D02*
X158099047Y-113311009D01*
X158099047Y-113311009D02*
X158051428Y-113263390D01*
X158051428Y-113263390D02*
X157956190Y-113215771D01*
X157956190Y-113215771D02*
X157765714Y-113215771D01*
X157765714Y-113215771D02*
X157670476Y-113263390D01*
X157670476Y-113263390D02*
X157622857Y-113311009D01*
X157622857Y-113311009D02*
X157575238Y-113406247D01*
X190333333Y-114024580D02*
X190285714Y-114072200D01*
X190285714Y-114072200D02*
X190142857Y-114119819D01*
X190142857Y-114119819D02*
X190047619Y-114119819D01*
X190047619Y-114119819D02*
X189904762Y-114072200D01*
X189904762Y-114072200D02*
X189809524Y-113976961D01*
X189809524Y-113976961D02*
X189761905Y-113881723D01*
X189761905Y-113881723D02*
X189714286Y-113691247D01*
X189714286Y-113691247D02*
X189714286Y-113548390D01*
X189714286Y-113548390D02*
X189761905Y-113357914D01*
X189761905Y-113357914D02*
X189809524Y-113262676D01*
X189809524Y-113262676D02*
X189904762Y-113167438D01*
X189904762Y-113167438D02*
X190047619Y-113119819D01*
X190047619Y-113119819D02*
X190142857Y-113119819D01*
X190142857Y-113119819D02*
X190285714Y-113167438D01*
X190285714Y-113167438D02*
X190333333Y-113215057D01*
X190809524Y-114119819D02*
X191000000Y-114119819D01*
X191000000Y-114119819D02*
X191095238Y-114072200D01*
X191095238Y-114072200D02*
X191142857Y-114024580D01*
X191142857Y-114024580D02*
X191238095Y-113881723D01*
X191238095Y-113881723D02*
X191285714Y-113691247D01*
X191285714Y-113691247D02*
X191285714Y-113310295D01*
X191285714Y-113310295D02*
X191238095Y-113215057D01*
X191238095Y-113215057D02*
X191190476Y-113167438D01*
X191190476Y-113167438D02*
X191095238Y-113119819D01*
X191095238Y-113119819D02*
X190904762Y-113119819D01*
X190904762Y-113119819D02*
X190809524Y-113167438D01*
X190809524Y-113167438D02*
X190761905Y-113215057D01*
X190761905Y-113215057D02*
X190714286Y-113310295D01*
X190714286Y-113310295D02*
X190714286Y-113548390D01*
X190714286Y-113548390D02*
X190761905Y-113643628D01*
X190761905Y-113643628D02*
X190809524Y-113691247D01*
X190809524Y-113691247D02*
X190904762Y-113738866D01*
X190904762Y-113738866D02*
X191095238Y-113738866D01*
X191095238Y-113738866D02*
X191190476Y-113691247D01*
X191190476Y-113691247D02*
X191238095Y-113643628D01*
X191238095Y-113643628D02*
X191285714Y-113548390D01*
X96186666Y-55334819D02*
X96186666Y-56049104D01*
X96186666Y-56049104D02*
X96139047Y-56191961D01*
X96139047Y-56191961D02*
X96043809Y-56287200D01*
X96043809Y-56287200D02*
X95900952Y-56334819D01*
X95900952Y-56334819D02*
X95805714Y-56334819D01*
X97186666Y-56334819D02*
X96615238Y-56334819D01*
X96900952Y-56334819D02*
X96900952Y-55334819D01*
X96900952Y-55334819D02*
X96805714Y-55477676D01*
X96805714Y-55477676D02*
X96710476Y-55572914D01*
X96710476Y-55572914D02*
X96615238Y-55620533D01*
X171511946Y-103830900D02*
X171464327Y-103878520D01*
X171464327Y-103878520D02*
X171321470Y-103926139D01*
X171321470Y-103926139D02*
X171226232Y-103926139D01*
X171226232Y-103926139D02*
X171083375Y-103878520D01*
X171083375Y-103878520D02*
X170988137Y-103783281D01*
X170988137Y-103783281D02*
X170940518Y-103688043D01*
X170940518Y-103688043D02*
X170892899Y-103497567D01*
X170892899Y-103497567D02*
X170892899Y-103354710D01*
X170892899Y-103354710D02*
X170940518Y-103164234D01*
X170940518Y-103164234D02*
X170988137Y-103068996D01*
X170988137Y-103068996D02*
X171083375Y-102973758D01*
X171083375Y-102973758D02*
X171226232Y-102926139D01*
X171226232Y-102926139D02*
X171321470Y-102926139D01*
X171321470Y-102926139D02*
X171464327Y-102973758D01*
X171464327Y-102973758D02*
X171511946Y-103021377D01*
X172369089Y-102926139D02*
X172178613Y-102926139D01*
X172178613Y-102926139D02*
X172083375Y-102973758D01*
X172083375Y-102973758D02*
X172035756Y-103021377D01*
X172035756Y-103021377D02*
X171940518Y-103164234D01*
X171940518Y-103164234D02*
X171892899Y-103354710D01*
X171892899Y-103354710D02*
X171892899Y-103735662D01*
X171892899Y-103735662D02*
X171940518Y-103830900D01*
X171940518Y-103830900D02*
X171988137Y-103878520D01*
X171988137Y-103878520D02*
X172083375Y-103926139D01*
X172083375Y-103926139D02*
X172273851Y-103926139D01*
X172273851Y-103926139D02*
X172369089Y-103878520D01*
X172369089Y-103878520D02*
X172416708Y-103830900D01*
X172416708Y-103830900D02*
X172464327Y-103735662D01*
X172464327Y-103735662D02*
X172464327Y-103497567D01*
X172464327Y-103497567D02*
X172416708Y-103402329D01*
X172416708Y-103402329D02*
X172369089Y-103354710D01*
X172369089Y-103354710D02*
X172273851Y-103307091D01*
X172273851Y-103307091D02*
X172083375Y-103307091D01*
X172083375Y-103307091D02*
X171988137Y-103354710D01*
X171988137Y-103354710D02*
X171940518Y-103402329D01*
X171940518Y-103402329D02*
X171892899Y-103497567D01*
X94852151Y-78935712D02*
X95423579Y-78935712D01*
X95137865Y-79935712D02*
X95137865Y-78935712D01*
X95756913Y-79935712D02*
X95756913Y-78935712D01*
X95756913Y-78935712D02*
X96137865Y-78935712D01*
X96137865Y-78935712D02*
X96233103Y-78983331D01*
X96233103Y-78983331D02*
X96280722Y-79030950D01*
X96280722Y-79030950D02*
X96328341Y-79126188D01*
X96328341Y-79126188D02*
X96328341Y-79269045D01*
X96328341Y-79269045D02*
X96280722Y-79364283D01*
X96280722Y-79364283D02*
X96233103Y-79411902D01*
X96233103Y-79411902D02*
X96137865Y-79459521D01*
X96137865Y-79459521D02*
X95756913Y-79459521D01*
X96709294Y-79030950D02*
X96756913Y-78983331D01*
X96756913Y-78983331D02*
X96852151Y-78935712D01*
X96852151Y-78935712D02*
X97090246Y-78935712D01*
X97090246Y-78935712D02*
X97185484Y-78983331D01*
X97185484Y-78983331D02*
X97233103Y-79030950D01*
X97233103Y-79030950D02*
X97280722Y-79126188D01*
X97280722Y-79126188D02*
X97280722Y-79221426D01*
X97280722Y-79221426D02*
X97233103Y-79364283D01*
X97233103Y-79364283D02*
X96661675Y-79935712D01*
X96661675Y-79935712D02*
X97280722Y-79935712D01*
X104148095Y-87084819D02*
X104719523Y-87084819D01*
X104433809Y-88084819D02*
X104433809Y-87084819D01*
X105052857Y-88084819D02*
X105052857Y-87084819D01*
X105052857Y-87084819D02*
X105433809Y-87084819D01*
X105433809Y-87084819D02*
X105529047Y-87132438D01*
X105529047Y-87132438D02*
X105576666Y-87180057D01*
X105576666Y-87180057D02*
X105624285Y-87275295D01*
X105624285Y-87275295D02*
X105624285Y-87418152D01*
X105624285Y-87418152D02*
X105576666Y-87513390D01*
X105576666Y-87513390D02*
X105529047Y-87561009D01*
X105529047Y-87561009D02*
X105433809Y-87608628D01*
X105433809Y-87608628D02*
X105052857Y-87608628D01*
X106481428Y-87418152D02*
X106481428Y-88084819D01*
X106243333Y-87037200D02*
X106005238Y-87751485D01*
X106005238Y-87751485D02*
X106624285Y-87751485D01*
X124239710Y-73338940D02*
X124192091Y-73386560D01*
X124192091Y-73386560D02*
X124049234Y-73434179D01*
X124049234Y-73434179D02*
X123953996Y-73434179D01*
X123953996Y-73434179D02*
X123811139Y-73386560D01*
X123811139Y-73386560D02*
X123715901Y-73291321D01*
X123715901Y-73291321D02*
X123668282Y-73196083D01*
X123668282Y-73196083D02*
X123620663Y-73005607D01*
X123620663Y-73005607D02*
X123620663Y-72862750D01*
X123620663Y-72862750D02*
X123668282Y-72672274D01*
X123668282Y-72672274D02*
X123715901Y-72577036D01*
X123715901Y-72577036D02*
X123811139Y-72481798D01*
X123811139Y-72481798D02*
X123953996Y-72434179D01*
X123953996Y-72434179D02*
X124049234Y-72434179D01*
X124049234Y-72434179D02*
X124192091Y-72481798D01*
X124192091Y-72481798D02*
X124239710Y-72529417D01*
X125096853Y-72767512D02*
X125096853Y-73434179D01*
X124858758Y-72386560D02*
X124620663Y-73100845D01*
X124620663Y-73100845D02*
X125239710Y-73100845D01*
X103788018Y-78935712D02*
X104359446Y-78935712D01*
X104073732Y-79935712D02*
X104073732Y-78935712D01*
X104692780Y-79935712D02*
X104692780Y-78935712D01*
X104692780Y-78935712D02*
X105073732Y-78935712D01*
X105073732Y-78935712D02*
X105168970Y-78983331D01*
X105168970Y-78983331D02*
X105216589Y-79030950D01*
X105216589Y-79030950D02*
X105264208Y-79126188D01*
X105264208Y-79126188D02*
X105264208Y-79269045D01*
X105264208Y-79269045D02*
X105216589Y-79364283D01*
X105216589Y-79364283D02*
X105168970Y-79411902D01*
X105168970Y-79411902D02*
X105073732Y-79459521D01*
X105073732Y-79459521D02*
X104692780Y-79459521D01*
X106216589Y-79935712D02*
X105645161Y-79935712D01*
X105930875Y-79935712D02*
X105930875Y-78935712D01*
X105930875Y-78935712D02*
X105835637Y-79078569D01*
X105835637Y-79078569D02*
X105740399Y-79173807D01*
X105740399Y-79173807D02*
X105645161Y-79221426D01*
%TO.C,G\u002A\u002A\u002A*%
G36*
X177631704Y-56463203D02*
G01*
X177622872Y-56472035D01*
X177614040Y-56463203D01*
X177622872Y-56454371D01*
X177631704Y-56463203D01*
G37*
G36*
X175489646Y-54465397D02*
G01*
X175484378Y-54473425D01*
X175466463Y-54474674D01*
X175447615Y-54470360D01*
X175455791Y-54464002D01*
X175483397Y-54461896D01*
X175489646Y-54465397D01*
G37*
G36*
X176071435Y-54817561D02*
G01*
X176069010Y-54828062D01*
X176059659Y-54829337D01*
X176045120Y-54822874D01*
X176047884Y-54817561D01*
X176068846Y-54815447D01*
X176071435Y-54817561D01*
G37*
G36*
X176178519Y-54801002D02*
G01*
X176173251Y-54809030D01*
X176155336Y-54810279D01*
X176136489Y-54805965D01*
X176144664Y-54799607D01*
X176172270Y-54797501D01*
X176178519Y-54801002D01*
G37*
G36*
X176795635Y-56548576D02*
G01*
X176793211Y-56559077D01*
X176783860Y-56560352D01*
X176769321Y-56553889D01*
X176772084Y-56548576D01*
X176793046Y-56546462D01*
X176795635Y-56548576D01*
G37*
G36*
X175808909Y-54428784D02*
G01*
X175829341Y-54436519D01*
X175830035Y-54439156D01*
X175812747Y-54449378D01*
X175762026Y-54455853D01*
X175679591Y-54458377D01*
X175668120Y-54458405D01*
X175598462Y-54457734D01*
X175545509Y-54455933D01*
X175516604Y-54453322D01*
X175513565Y-54451700D01*
X175533317Y-54447363D01*
X175579828Y-54441486D01*
X175644620Y-54435078D01*
X175675480Y-54432451D01*
X175758406Y-54427462D01*
X175808909Y-54428784D01*
G37*
G36*
X176708452Y-56565634D02*
G01*
X176691394Y-56572282D01*
X176648544Y-56581368D01*
X176584543Y-56591988D01*
X176504031Y-56603239D01*
X176452284Y-56609616D01*
X176392597Y-56615178D01*
X176351600Y-56616153D01*
X176336757Y-56612435D01*
X176337472Y-56611225D01*
X176360306Y-56603170D01*
X176408849Y-56593356D01*
X176473620Y-56583081D01*
X176545133Y-56573640D01*
X176613905Y-56566330D01*
X176670452Y-56562449D01*
X176695079Y-56562327D01*
X176708452Y-56565634D01*
G37*
G36*
X179686466Y-54608142D02*
G01*
X179757535Y-54616928D01*
X179815553Y-54630561D01*
X179827583Y-54634932D01*
X179829529Y-54641892D01*
X179796732Y-54647027D01*
X179729728Y-54650289D01*
X179640918Y-54651583D01*
X179551878Y-54650795D01*
X179480874Y-54647738D01*
X179433595Y-54642800D01*
X179415732Y-54636374D01*
X179415709Y-54636121D01*
X179431880Y-54621015D01*
X179475052Y-54610640D01*
X179537214Y-54605021D01*
X179610355Y-54604181D01*
X179686466Y-54608142D01*
G37*
G36*
X177603663Y-54307945D02*
G01*
X177606497Y-54308443D01*
X177641191Y-54314172D01*
X177703629Y-54323940D01*
X177786608Y-54336642D01*
X177882920Y-54351170D01*
X177947340Y-54360783D01*
X178044368Y-54375675D01*
X178128726Y-54389521D01*
X178194398Y-54401261D01*
X178235365Y-54409837D01*
X178246146Y-54413413D01*
X178247905Y-54418566D01*
X178237537Y-54420666D01*
X178211177Y-54419276D01*
X178164961Y-54413959D01*
X178095025Y-54404278D01*
X177997505Y-54389797D01*
X177884788Y-54372581D01*
X177785016Y-54356609D01*
X177697488Y-54341409D01*
X177628156Y-54328111D01*
X177582973Y-54317845D01*
X177568135Y-54312498D01*
X177573213Y-54305845D01*
X177603663Y-54307945D01*
G37*
G36*
X176227752Y-56615197D02*
G01*
X176251447Y-56620781D01*
X176240571Y-56630125D01*
X176195017Y-56643260D01*
X176114677Y-56660217D01*
X175999446Y-56681025D01*
X175849216Y-56705715D01*
X175843282Y-56706657D01*
X175724567Y-56725656D01*
X175615486Y-56743468D01*
X175521569Y-56759161D01*
X175448349Y-56771804D01*
X175401358Y-56780464D01*
X175388449Y-56783257D01*
X175359378Y-56787752D01*
X175360388Y-56777375D01*
X175362025Y-56775529D01*
X175393614Y-56757252D01*
X175453935Y-56736076D01*
X175536643Y-56713274D01*
X175635390Y-56690122D01*
X175743829Y-56667894D01*
X175855615Y-56647864D01*
X175964400Y-56631308D01*
X176063838Y-56619500D01*
X176147582Y-56613714D01*
X176169592Y-56613342D01*
X176227752Y-56615197D01*
G37*
G36*
X177417937Y-54690140D02*
G01*
X177456614Y-54691341D01*
X177470550Y-54693817D01*
X177458173Y-54697761D01*
X177417912Y-54703371D01*
X177348196Y-54710841D01*
X177247453Y-54720365D01*
X177114111Y-54732140D01*
X177004652Y-54741479D01*
X176858927Y-54753838D01*
X176719404Y-54765769D01*
X176591319Y-54776817D01*
X176479907Y-54786527D01*
X176390406Y-54794443D01*
X176328050Y-54800111D01*
X176307535Y-54802074D01*
X176251328Y-54806387D01*
X176214004Y-54806744D01*
X176203655Y-54803097D01*
X176224943Y-54797343D01*
X176276476Y-54789399D01*
X176353271Y-54779730D01*
X176450343Y-54768799D01*
X176562712Y-54757069D01*
X176685393Y-54745005D01*
X176813404Y-54733069D01*
X176941762Y-54721725D01*
X177065484Y-54711437D01*
X177179587Y-54702668D01*
X177279089Y-54695881D01*
X177359006Y-54691541D01*
X177414356Y-54690111D01*
X177417937Y-54690140D01*
G37*
G36*
X178791415Y-54636487D02*
G01*
X178907635Y-54637503D01*
X179009191Y-54639106D01*
X179091919Y-54641309D01*
X179151656Y-54644122D01*
X179184239Y-54647561D01*
X179186085Y-54651467D01*
X179157190Y-54655420D01*
X179098045Y-54659794D01*
X179013722Y-54664346D01*
X178909292Y-54668834D01*
X178789824Y-54673016D01*
X178660392Y-54676650D01*
X178656182Y-54676754D01*
X178512845Y-54680413D01*
X178366849Y-54684405D01*
X178226185Y-54688494D01*
X178098847Y-54692442D01*
X177992825Y-54696010D01*
X177931982Y-54698299D01*
X177842425Y-54700747D01*
X177764730Y-54700672D01*
X177706151Y-54698242D01*
X177673940Y-54693622D01*
X177671046Y-54692283D01*
X177669897Y-54679468D01*
X177702413Y-54665268D01*
X177738632Y-54655828D01*
X177772507Y-54651669D01*
X177833352Y-54647970D01*
X177917003Y-54644745D01*
X178019298Y-54642006D01*
X178136072Y-54639766D01*
X178263162Y-54638037D01*
X178396404Y-54636833D01*
X178531637Y-54636164D01*
X178664695Y-54636045D01*
X178791415Y-54636487D01*
G37*
G36*
X178856935Y-55002456D02*
G01*
X178864111Y-55004771D01*
X178880510Y-55019111D01*
X178871727Y-55023097D01*
X178842926Y-55025391D01*
X178785428Y-55031263D01*
X178704464Y-55040096D01*
X178605263Y-55051269D01*
X178493056Y-55064164D01*
X178373073Y-55078162D01*
X178250545Y-55092644D01*
X178130703Y-55106991D01*
X178018776Y-55120585D01*
X177919994Y-55132805D01*
X177839590Y-55143033D01*
X177782791Y-55150650D01*
X177754830Y-55155038D01*
X177753169Y-55155470D01*
X177710354Y-55168364D01*
X177655079Y-55181696D01*
X177597385Y-55193520D01*
X177547311Y-55201891D01*
X177514900Y-55204862D01*
X177508060Y-55202960D01*
X177524453Y-55187434D01*
X177569341Y-55168377D01*
X177636286Y-55147519D01*
X177718849Y-55126591D01*
X177810592Y-55107325D01*
X177905079Y-55091451D01*
X177940814Y-55086612D01*
X178151584Y-55060898D01*
X178338653Y-55039488D01*
X178500264Y-55022538D01*
X178634656Y-55010204D01*
X178740072Y-55002642D01*
X178814751Y-55000007D01*
X178856935Y-55002456D01*
G37*
G36*
X178387891Y-54781794D02*
G01*
X178390235Y-54789263D01*
X178382399Y-54793246D01*
X178345954Y-54802794D01*
X178280911Y-54814527D01*
X178193871Y-54827651D01*
X178091438Y-54841374D01*
X177980215Y-54854903D01*
X177866804Y-54867446D01*
X177757807Y-54878209D01*
X177659828Y-54886400D01*
X177579469Y-54891226D01*
X177561050Y-54891865D01*
X177465938Y-54896307D01*
X177351564Y-54904464D01*
X177233645Y-54915091D01*
X177145960Y-54924700D01*
X177052564Y-54935998D01*
X176965386Y-54946514D01*
X176893859Y-54955113D01*
X176847416Y-54960657D01*
X176845682Y-54960862D01*
X176805419Y-54964141D01*
X176798028Y-54960194D01*
X176810355Y-54953419D01*
X176837441Y-54947044D01*
X176894258Y-54937728D01*
X176975405Y-54926213D01*
X177075477Y-54913245D01*
X177189073Y-54899567D01*
X177260772Y-54891407D01*
X177397705Y-54875900D01*
X177540953Y-54859231D01*
X177680758Y-54842564D01*
X177807364Y-54827067D01*
X177911017Y-54813906D01*
X177931982Y-54811146D01*
X178037579Y-54798339D01*
X178137462Y-54788453D01*
X178227032Y-54781674D01*
X178301691Y-54778182D01*
X178356844Y-54778161D01*
X178387891Y-54781794D01*
G37*
G36*
X184975714Y-53362179D02*
G01*
X184963291Y-53400258D01*
X184939540Y-53458624D01*
X184906626Y-53531588D01*
X184901213Y-53543060D01*
X184786329Y-53814045D01*
X184697220Y-54086555D01*
X184645468Y-54305284D01*
X184624166Y-54419809D01*
X184611534Y-54500708D01*
X184608293Y-54548778D01*
X184615165Y-54564815D01*
X184632869Y-54549614D01*
X184662128Y-54503972D01*
X184703662Y-54428684D01*
X184723416Y-54391321D01*
X184844870Y-54175462D01*
X184966374Y-53991720D01*
X185090474Y-53836976D01*
X185219716Y-53708107D01*
X185356648Y-53601993D01*
X185380207Y-53586423D01*
X185438797Y-53549305D01*
X185485635Y-53520973D01*
X185513237Y-53505901D01*
X185517099Y-53504580D01*
X185528328Y-53513442D01*
X185516380Y-53540934D01*
X185480294Y-53588419D01*
X185419114Y-53657257D01*
X185381322Y-53697475D01*
X185163035Y-53950122D01*
X184978139Y-54214229D01*
X184826581Y-54489874D01*
X184783245Y-54584831D01*
X184754059Y-54652662D01*
X184731061Y-54707134D01*
X184717297Y-54740980D01*
X184714736Y-54748407D01*
X184728831Y-54759283D01*
X184766177Y-54783033D01*
X184819365Y-54814984D01*
X184832357Y-54822593D01*
X184983921Y-54931051D01*
X185113715Y-55065735D01*
X185218904Y-55223046D01*
X185296655Y-55399388D01*
X185303816Y-55421061D01*
X185334931Y-55541651D01*
X185360933Y-55687829D01*
X185381050Y-55850123D01*
X185394509Y-56019061D01*
X185400538Y-56185171D01*
X185398362Y-56338982D01*
X185388609Y-56460220D01*
X185364696Y-56618050D01*
X185333414Y-56754491D01*
X185290876Y-56883311D01*
X185233192Y-57018276D01*
X185227597Y-57030193D01*
X185152825Y-57171264D01*
X185076948Y-57279145D01*
X184998282Y-57355972D01*
X184942457Y-57391504D01*
X184866346Y-57418230D01*
X184774348Y-57433445D01*
X184683888Y-57435139D01*
X184631390Y-57427353D01*
X184584466Y-57411711D01*
X184521780Y-57386185D01*
X184472419Y-57363644D01*
X184400408Y-57319258D01*
X184316553Y-57252310D01*
X184228066Y-57169982D01*
X184142157Y-57079461D01*
X184066036Y-56987931D01*
X184006914Y-56902576D01*
X184002861Y-56895763D01*
X183975177Y-56847413D01*
X183956411Y-56807582D01*
X183946347Y-56769169D01*
X183944773Y-56725070D01*
X183951472Y-56668181D01*
X183966230Y-56591402D01*
X183988834Y-56487627D01*
X183990329Y-56480867D01*
X184021848Y-56257320D01*
X184018444Y-56031046D01*
X183980294Y-55803296D01*
X183907578Y-55575319D01*
X183839382Y-55422617D01*
X183794492Y-55324760D01*
X183793096Y-55320419D01*
X183973858Y-55320419D01*
X184043850Y-55311031D01*
X184109485Y-55311486D01*
X184149515Y-55335290D01*
X184166308Y-55384215D01*
X184167170Y-55403398D01*
X184157751Y-55457444D01*
X184125558Y-55491322D01*
X184066123Y-55511041D01*
X184029932Y-55521166D01*
X184021499Y-55539124D01*
X184031953Y-55573012D01*
X184054839Y-55612520D01*
X184081285Y-55633794D01*
X184129042Y-55658088D01*
X184171751Y-55694438D01*
X184198507Y-55732462D01*
X184202497Y-55749181D01*
X184194381Y-55786231D01*
X184174252Y-55835418D01*
X184167971Y-55847706D01*
X184147903Y-55896166D01*
X184148432Y-55937847D01*
X184172077Y-55982469D01*
X184216404Y-56034461D01*
X184244538Y-56068906D01*
X184252347Y-56099057D01*
X184243432Y-56142210D01*
X184240740Y-56151322D01*
X184222117Y-56250681D01*
X184231169Y-56343525D01*
X184263257Y-56431382D01*
X184288647Y-56483030D01*
X184308509Y-56509282D01*
X184331497Y-56517095D01*
X184365468Y-56513556D01*
X184416764Y-56512244D01*
X184448567Y-56530352D01*
X184461980Y-56571049D01*
X184458105Y-56637503D01*
X184439601Y-56726630D01*
X184426897Y-56778095D01*
X184488583Y-56731045D01*
X184548797Y-56694312D01*
X184598155Y-56688367D01*
X184644052Y-56713751D01*
X184673253Y-56744543D01*
X184712718Y-56787327D01*
X184742288Y-56804082D01*
X184770990Y-56798611D01*
X184784015Y-56791200D01*
X184806348Y-56764345D01*
X184826819Y-56720448D01*
X184828174Y-56716401D01*
X184854518Y-56667888D01*
X184901353Y-56640093D01*
X184907679Y-56637957D01*
X184938618Y-56625245D01*
X184961644Y-56605695D01*
X184982106Y-56571616D01*
X185005355Y-56515318D01*
X185019291Y-56477552D01*
X185070436Y-56336692D01*
X185007398Y-56273654D01*
X184971043Y-56233727D01*
X184948265Y-56201841D01*
X184944360Y-56191237D01*
X184955402Y-56167997D01*
X184983653Y-56129705D01*
X185006182Y-56103429D01*
X185041164Y-56062407D01*
X185063575Y-56031708D01*
X185068004Y-56021977D01*
X185055954Y-56004111D01*
X185024573Y-55970587D01*
X184986728Y-55934331D01*
X184905452Y-55859707D01*
X184953035Y-55765807D01*
X184979779Y-55707919D01*
X184989640Y-55668937D01*
X184984900Y-55638091D01*
X184981700Y-55630385D01*
X184961705Y-55599142D01*
X184946001Y-55588864D01*
X184913374Y-55573359D01*
X184886490Y-55535262D01*
X184873860Y-55487198D01*
X184873707Y-55481622D01*
X184868602Y-55444262D01*
X184847427Y-55430897D01*
X184830698Y-55429893D01*
X184779890Y-55423367D01*
X184742381Y-55412667D01*
X184714800Y-55397921D01*
X184701383Y-55373832D01*
X184697239Y-55329224D01*
X184697072Y-55309140D01*
X184697072Y-55222840D01*
X184629123Y-55240977D01*
X184564703Y-55251724D01*
X184523824Y-55239952D01*
X184500339Y-55202288D01*
X184492026Y-55165766D01*
X184480644Y-55094585D01*
X184411477Y-55105645D01*
X184359466Y-55109056D01*
X184322179Y-55095057D01*
X184298009Y-55075088D01*
X184253709Y-55033470D01*
X184176654Y-55074348D01*
X184093648Y-55127690D01*
X184036512Y-55189082D01*
X184000703Y-55256169D01*
X183973858Y-55320419D01*
X183793096Y-55320419D01*
X183769457Y-55246894D01*
X183763212Y-55180543D01*
X183774693Y-55117233D01*
X183794585Y-55066007D01*
X183858713Y-54966152D01*
X183952186Y-54879968D01*
X184070767Y-54810158D01*
X184210222Y-54759423D01*
X184308477Y-54738210D01*
X184372569Y-54727326D01*
X184421511Y-54718198D01*
X184446259Y-54712533D01*
X184447460Y-54712004D01*
X184452317Y-54693798D01*
X184460919Y-54647362D01*
X184472104Y-54579451D01*
X184484712Y-54496820D01*
X184486405Y-54485279D01*
X184525746Y-54259466D01*
X184574397Y-54061327D01*
X184634301Y-53883984D01*
X184696215Y-53743036D01*
X184740850Y-53658944D01*
X184791931Y-53573992D01*
X184845007Y-53494463D01*
X184895627Y-53426639D01*
X184939340Y-53376801D01*
X184971695Y-53351231D01*
X184974644Y-53350078D01*
X184975714Y-53362179D01*
G37*
G36*
X160975019Y-52956704D02*
G01*
X161019256Y-52972305D01*
X161094636Y-53021037D01*
X161169631Y-53094832D01*
X161235597Y-53184403D01*
X161264005Y-53235223D01*
X161294469Y-53295509D01*
X161323817Y-53351997D01*
X161334586Y-53372104D01*
X161361051Y-53448152D01*
X161353867Y-53516091D01*
X161319313Y-53568229D01*
X161285911Y-53609685D01*
X161248754Y-53667463D01*
X161228580Y-53704318D01*
X161162475Y-53824663D01*
X161089774Y-53934065D01*
X161002464Y-54043700D01*
X160917864Y-54137858D01*
X160851252Y-54212078D01*
X160796062Y-54281702D01*
X160748968Y-54353054D01*
X160706647Y-54432460D01*
X160665773Y-54526245D01*
X160623022Y-54640734D01*
X160575068Y-54782253D01*
X160568319Y-54802842D01*
X160459023Y-55125739D01*
X160345001Y-55440976D01*
X160228849Y-55741848D01*
X160113159Y-56021650D01*
X160000525Y-56273677D01*
X159994484Y-56286569D01*
X159962941Y-56354353D01*
X159920216Y-56447094D01*
X159869627Y-56557538D01*
X159814494Y-56678428D01*
X159758137Y-56802509D01*
X159729951Y-56864773D01*
X159630975Y-57079129D01*
X159541385Y-57263205D01*
X159459445Y-57420249D01*
X159383418Y-57553513D01*
X159311568Y-57666244D01*
X159270887Y-57723823D01*
X159227891Y-57777355D01*
X159162929Y-57851745D01*
X159079510Y-57943376D01*
X158981145Y-58048633D01*
X158871343Y-58163900D01*
X158753615Y-58285561D01*
X158631469Y-58410000D01*
X158508417Y-58533601D01*
X158387967Y-58652748D01*
X158273629Y-58763824D01*
X158168914Y-58863215D01*
X158128706Y-58900551D01*
X157986463Y-59032121D01*
X157867977Y-59143836D01*
X157770751Y-59239481D01*
X157692289Y-59322839D01*
X157630096Y-59397697D01*
X157581677Y-59467838D01*
X157544536Y-59537049D01*
X157516178Y-59609112D01*
X157494106Y-59687814D01*
X157475826Y-59776940D01*
X157458843Y-59880273D01*
X157451724Y-59927296D01*
X157423710Y-60101478D01*
X157391553Y-60275422D01*
X157354227Y-60453014D01*
X157310707Y-60638142D01*
X157259968Y-60834694D01*
X157200985Y-61046557D01*
X157132731Y-61277618D01*
X157054183Y-61531765D01*
X156964315Y-61812885D01*
X156912441Y-61972017D01*
X156817141Y-62268355D01*
X156735050Y-62537030D01*
X156665293Y-62782775D01*
X156606992Y-63010323D01*
X156559273Y-63224407D01*
X156521257Y-63429762D01*
X156492070Y-63631121D01*
X156470835Y-63833216D01*
X156456676Y-64040782D01*
X156448716Y-64258552D01*
X156446079Y-64491228D01*
X156447087Y-64691842D01*
X156451032Y-64866399D01*
X156458570Y-65024095D01*
X156470358Y-65174128D01*
X156487055Y-65325693D01*
X156509318Y-65487987D01*
X156524362Y-65586360D01*
X156555183Y-65768321D01*
X156586720Y-65919746D01*
X156621426Y-66045384D01*
X156661757Y-66149982D01*
X156710164Y-66238289D01*
X156769100Y-66315053D01*
X156841021Y-66385022D01*
X156928378Y-66452945D01*
X156996008Y-66499174D01*
X157129260Y-66600626D01*
X157235767Y-66710511D01*
X157314158Y-66825895D01*
X157363062Y-66943844D01*
X157381109Y-67061426D01*
X157366928Y-67175708D01*
X157342648Y-67240909D01*
X157315300Y-67284426D01*
X157275650Y-67319900D01*
X157218382Y-67349917D01*
X157138185Y-67377061D01*
X157029744Y-67403917D01*
X156989894Y-67412518D01*
X156741836Y-67456297D01*
X156508526Y-67480569D01*
X156292415Y-67485558D01*
X156095952Y-67471486D01*
X155921589Y-67438577D01*
X155771774Y-67387052D01*
X155648959Y-67317137D01*
X155611277Y-67287026D01*
X155575705Y-67252340D01*
X155525547Y-67199012D01*
X155468739Y-67135616D01*
X155434643Y-67096172D01*
X155383258Y-67037192D01*
X155339300Y-66989262D01*
X155308303Y-66958269D01*
X155296971Y-66949700D01*
X155284503Y-66962688D01*
X155270299Y-67001175D01*
X155261208Y-67038918D01*
X155226748Y-67154070D01*
X155172073Y-67249855D01*
X155095263Y-67327247D01*
X154994397Y-67387220D01*
X154867557Y-67430751D01*
X154712821Y-67458812D01*
X154528270Y-67472380D01*
X154404305Y-67473980D01*
X154321337Y-67475378D01*
X154246787Y-67479947D01*
X154190796Y-67486894D01*
X154169114Y-67492328D01*
X154145208Y-67494874D01*
X154088777Y-67497249D01*
X154002467Y-67499451D01*
X153888924Y-67501478D01*
X153750795Y-67503328D01*
X153590727Y-67504999D01*
X153411364Y-67506488D01*
X153215354Y-67507794D01*
X153005344Y-67508914D01*
X152783978Y-67509846D01*
X152553904Y-67510588D01*
X152317768Y-67511137D01*
X152078217Y-67511493D01*
X151837895Y-67511652D01*
X151599451Y-67511612D01*
X151365529Y-67511372D01*
X151138777Y-67510929D01*
X150921841Y-67510280D01*
X150717367Y-67509425D01*
X150528000Y-67508360D01*
X150356389Y-67507084D01*
X150205178Y-67505594D01*
X150077015Y-67503889D01*
X149974545Y-67501965D01*
X149900415Y-67499822D01*
X149857271Y-67497456D01*
X149847142Y-67495825D01*
X149820544Y-67489698D01*
X149765864Y-67483091D01*
X149690327Y-67476689D01*
X149601158Y-67471176D01*
X149572071Y-67469763D01*
X149347704Y-67456396D01*
X149150538Y-67436786D01*
X148972699Y-67408896D01*
X148806312Y-67370688D01*
X148643503Y-67320125D01*
X148476398Y-67255170D01*
X148297121Y-67173785D01*
X148154211Y-67102915D01*
X147801680Y-66904475D01*
X147474263Y-66681250D01*
X147172124Y-66433469D01*
X146895431Y-66161361D01*
X146644351Y-65865156D01*
X146419049Y-65545081D01*
X146219692Y-65201367D01*
X146046447Y-64834241D01*
X145899481Y-64443934D01*
X145778959Y-64030673D01*
X145714780Y-63749364D01*
X145643143Y-63324694D01*
X145597122Y-62877363D01*
X145576754Y-62409077D01*
X145582074Y-61921540D01*
X145613119Y-61416457D01*
X145656280Y-61002702D01*
X145667993Y-60883057D01*
X145677058Y-60740977D01*
X145683479Y-60582901D01*
X145687261Y-60415269D01*
X145688407Y-60244519D01*
X145686921Y-60077093D01*
X145682809Y-59919429D01*
X145676073Y-59777966D01*
X145666719Y-59659144D01*
X145655345Y-59572724D01*
X145593816Y-59277536D01*
X145517542Y-59011131D01*
X145424566Y-58769359D01*
X145312929Y-58548072D01*
X145180674Y-58343122D01*
X145025844Y-58150359D01*
X144941071Y-58059023D01*
X144753711Y-57884495D01*
X144555053Y-57734399D01*
X144349690Y-57611607D01*
X144142219Y-57518991D01*
X144009381Y-57476594D01*
X143942654Y-57460755D01*
X143875007Y-57449672D01*
X143797702Y-57442519D01*
X143702000Y-57438468D01*
X143588322Y-57436756D01*
X143483003Y-57435774D01*
X143407240Y-57434087D01*
X143355260Y-57430887D01*
X143321294Y-57425362D01*
X143299569Y-57416703D01*
X143284314Y-57404100D01*
X143274572Y-57392715D01*
X143247023Y-57350981D01*
X143231129Y-57303719D01*
X143225936Y-57243035D01*
X143230491Y-57161036D01*
X143238286Y-57092110D01*
X143287260Y-56821882D01*
X143363691Y-56572803D01*
X143468515Y-56342685D01*
X143602668Y-56129339D01*
X143706541Y-55998040D01*
X143843144Y-55858129D01*
X143996622Y-55737968D01*
X144170504Y-55635699D01*
X144368318Y-55549459D01*
X144593591Y-55477390D01*
X144779605Y-55432183D01*
X144947326Y-55401676D01*
X145128437Y-55380185D01*
X145326642Y-55367619D01*
X145545642Y-55363885D01*
X145789139Y-55368894D01*
X146060837Y-55382554D01*
X146252636Y-55395900D01*
X146584928Y-55437485D01*
X146901763Y-55510717D01*
X147204107Y-55615968D01*
X147492928Y-55753608D01*
X147769192Y-55924008D01*
X147921829Y-56036260D01*
X148002056Y-56102973D01*
X148097786Y-56188996D01*
X148201422Y-56286911D01*
X148305370Y-56389300D01*
X148402033Y-56488744D01*
X148483816Y-56577825D01*
X148521731Y-56622174D01*
X148713169Y-56882600D01*
X148874992Y-57161853D01*
X149006396Y-57458314D01*
X149106577Y-57770369D01*
X149121149Y-57827731D01*
X149151638Y-57958988D01*
X149175378Y-58078300D01*
X149193135Y-58193259D01*
X149205676Y-58311458D01*
X149213766Y-58440488D01*
X149218173Y-58587942D01*
X149219663Y-58761413D01*
X149219676Y-58803606D01*
X149218355Y-58974074D01*
X149214244Y-59132051D01*
X149206674Y-59281984D01*
X149194971Y-59428322D01*
X149178467Y-59575511D01*
X149156488Y-59727998D01*
X149128366Y-59890230D01*
X149093427Y-60066656D01*
X149051002Y-60261722D01*
X149000420Y-60479874D01*
X148941009Y-60725561D01*
X148911849Y-60843732D01*
X148830113Y-61179807D01*
X148759130Y-61486380D01*
X148698300Y-61767401D01*
X148647020Y-62026820D01*
X148604688Y-62268586D01*
X148570704Y-62496651D01*
X148544465Y-62714963D01*
X148525370Y-62927474D01*
X148512817Y-63138132D01*
X148506205Y-63350888D01*
X148504782Y-63516286D01*
X148511705Y-63835274D01*
X148532010Y-64138906D01*
X148565169Y-64423676D01*
X148610655Y-64686078D01*
X148667942Y-64922603D01*
X148736503Y-65129746D01*
X148753700Y-65172598D01*
X148812565Y-65296132D01*
X148884616Y-65419083D01*
X148965156Y-65535369D01*
X149049485Y-65638910D01*
X149132904Y-65723623D01*
X149210713Y-65783427D01*
X149236866Y-65797891D01*
X149286507Y-65819754D01*
X149321151Y-65825777D01*
X149356682Y-65817280D01*
X149376203Y-65809486D01*
X149408593Y-65794821D01*
X149434326Y-65778212D01*
X149454371Y-65755551D01*
X149469700Y-65722734D01*
X149481284Y-65675656D01*
X149490094Y-65610211D01*
X149497101Y-65522294D01*
X149503276Y-65407800D01*
X149509590Y-65262625D01*
X149510445Y-65241924D01*
X149516014Y-65111528D01*
X149521696Y-64986985D01*
X149527180Y-64874464D01*
X149532157Y-64780135D01*
X149536319Y-64710168D01*
X149538780Y-64676694D01*
X149541307Y-64635282D01*
X149544437Y-64563153D01*
X149548020Y-64464908D01*
X149551909Y-64345150D01*
X149555955Y-64208480D01*
X149560010Y-64059499D01*
X149563924Y-63902811D01*
X149564422Y-63881840D01*
X149568610Y-63720294D01*
X149573419Y-63562253D01*
X149578637Y-63412988D01*
X149584053Y-63277769D01*
X149589455Y-63161868D01*
X149594631Y-63070554D01*
X149599369Y-63009100D01*
X149599530Y-63007501D01*
X149663515Y-62544327D01*
X149759941Y-62094808D01*
X149889101Y-61657956D01*
X150051288Y-61232784D01*
X150246792Y-60818303D01*
X150247345Y-60817237D01*
X150420372Y-60507579D01*
X150601934Y-60230385D01*
X150793965Y-59983413D01*
X150998398Y-59764423D01*
X151217169Y-59571172D01*
X151452210Y-59401421D01*
X151489840Y-59377310D01*
X151527869Y-59355077D01*
X151591854Y-59319634D01*
X151676334Y-59273919D01*
X151775848Y-59220873D01*
X151884934Y-59163434D01*
X151957921Y-59125377D01*
X152160754Y-59017900D01*
X152333832Y-58921158D01*
X152480245Y-58832881D01*
X152603084Y-58750798D01*
X152705440Y-58672640D01*
X152790402Y-58596135D01*
X152861062Y-58519015D01*
X152920510Y-58439007D01*
X152945262Y-58400081D01*
X152988980Y-58322777D01*
X153023626Y-58247585D01*
X153049850Y-58169612D01*
X153068308Y-58083962D01*
X153079650Y-57985741D01*
X153084530Y-57870054D01*
X153083602Y-57732008D01*
X153077516Y-57566707D01*
X153071658Y-57452355D01*
X153070936Y-57162320D01*
X153098903Y-56857567D01*
X153154383Y-56542248D01*
X153236200Y-56220514D01*
X153343176Y-55896515D01*
X153474136Y-55574403D01*
X153627904Y-55258329D01*
X153759937Y-55023634D01*
X153832138Y-54894960D01*
X155428899Y-54894960D01*
X155432562Y-54956971D01*
X155447936Y-55001728D01*
X155481309Y-55046884D01*
X155484196Y-55050190D01*
X155569116Y-55125941D01*
X155662733Y-55168233D01*
X155767509Y-55177727D01*
X155880892Y-55156594D01*
X155972169Y-55114473D01*
X156045731Y-55050937D01*
X156095975Y-54972677D01*
X156117298Y-54886387D01*
X156117656Y-54873779D01*
X156102440Y-54785680D01*
X156060510Y-54712920D01*
X155997449Y-54656519D01*
X155918838Y-54617496D01*
X155830260Y-54596871D01*
X155737294Y-54595662D01*
X155645523Y-54614889D01*
X155560529Y-54655572D01*
X155487893Y-54718730D01*
X155461283Y-54753907D01*
X155436267Y-54818748D01*
X155428899Y-54894960D01*
X153832138Y-54894960D01*
X153892445Y-54787483D01*
X153998908Y-54564527D01*
X154082277Y-54347784D01*
X154145504Y-54130271D01*
X154155669Y-54087473D01*
X154192469Y-53927842D01*
X154223023Y-53797700D01*
X154248660Y-53692030D01*
X154270704Y-53605813D01*
X154290482Y-53534034D01*
X154309321Y-53471673D01*
X154328547Y-53413715D01*
X154348694Y-53357301D01*
X154406044Y-53223468D01*
X154469162Y-53122543D01*
X154540810Y-53052232D01*
X154623746Y-53010245D01*
X154720731Y-52994289D01*
X154783785Y-52995999D01*
X154851186Y-53007650D01*
X154910806Y-53032780D01*
X154965057Y-53074590D01*
X155016350Y-53136283D01*
X155067097Y-53221059D01*
X155119709Y-53332120D01*
X155176597Y-53472669D01*
X155209841Y-53561673D01*
X155243893Y-53650487D01*
X155278048Y-53732115D01*
X155308621Y-53798205D01*
X155331926Y-53840406D01*
X155334406Y-53843942D01*
X155413323Y-53923320D01*
X155514656Y-53983050D01*
X155619813Y-54015531D01*
X155698691Y-54029967D01*
X155783187Y-54045402D01*
X155817378Y-54051638D01*
X155931074Y-54082157D01*
X156044494Y-54133560D01*
X156162514Y-54208741D01*
X156290008Y-54310592D01*
X156360683Y-54374142D01*
X156534256Y-54523130D01*
X156701500Y-54641145D01*
X156866636Y-54730931D01*
X156982994Y-54778366D01*
X157116968Y-54830467D01*
X157221441Y-54883754D01*
X157301995Y-54943566D01*
X157364210Y-55015240D01*
X157413668Y-55104114D01*
X157455951Y-55215528D01*
X157462924Y-55237406D01*
X157494108Y-55382712D01*
X157504894Y-55545499D01*
X157495476Y-55714542D01*
X157466049Y-55878618D01*
X157450903Y-55933300D01*
X157419254Y-56037309D01*
X157396891Y-56113346D01*
X157382564Y-56167163D01*
X157375025Y-56204507D01*
X157373024Y-56231128D01*
X157375313Y-56252775D01*
X157378464Y-56266721D01*
X157398378Y-56307593D01*
X157436981Y-56336577D01*
X157498074Y-56354717D01*
X157585463Y-56363056D01*
X157702948Y-56362639D01*
X157724890Y-56361825D01*
X157858890Y-56351968D01*
X157969526Y-56332226D01*
X158068179Y-56299085D01*
X158166235Y-56249029D01*
X158239200Y-56202987D01*
X158313625Y-56146200D01*
X158380294Y-56078581D01*
X158442802Y-55994976D01*
X158504746Y-55890231D01*
X158569719Y-55759190D01*
X158607793Y-55674628D01*
X158816544Y-55228152D01*
X159047155Y-54792279D01*
X159302707Y-54361801D01*
X159586277Y-53931507D01*
X159874956Y-53530786D01*
X159970517Y-53406175D01*
X160052473Y-53306969D01*
X160125710Y-53228472D01*
X160195118Y-53165988D01*
X160265583Y-53114824D01*
X160341994Y-53070283D01*
X160368560Y-53056631D01*
X160493979Y-53003897D01*
X160625021Y-52966541D01*
X160753999Y-52945560D01*
X160873227Y-52941948D01*
X160975019Y-52956704D01*
G37*
G36*
X181599948Y-56759920D02*
G01*
X181685628Y-56784241D01*
X181749847Y-56809606D01*
X182006749Y-56934782D01*
X182256757Y-57088522D01*
X182492157Y-57265287D01*
X182705234Y-57459540D01*
X182807306Y-57568633D01*
X182868344Y-57635366D01*
X182929607Y-57698058D01*
X182982430Y-57748041D01*
X183008194Y-57769653D01*
X183055498Y-57810744D01*
X183092888Y-57851970D01*
X183103711Y-57868253D01*
X183119829Y-57925093D01*
X183119447Y-58005612D01*
X183102288Y-58111598D01*
X183068073Y-58244839D01*
X183022810Y-58388516D01*
X182986430Y-58499833D01*
X182960551Y-58587850D01*
X182943012Y-58662249D01*
X182931654Y-58732710D01*
X182924314Y-58808913D01*
X182922283Y-58838933D01*
X182914463Y-58932095D01*
X182903210Y-59026762D01*
X182890401Y-59108196D01*
X182884031Y-59139211D01*
X182861835Y-59240846D01*
X182841268Y-59346051D01*
X182823187Y-59449044D01*
X182808449Y-59544043D01*
X182797914Y-59625267D01*
X182792437Y-59686932D01*
X182792879Y-59723258D01*
X182796308Y-59730477D01*
X182820202Y-59735191D01*
X182871906Y-59744343D01*
X182944358Y-59756711D01*
X183030496Y-59771078D01*
X183052211Y-59774653D01*
X183228188Y-59807172D01*
X183417423Y-59848516D01*
X183611917Y-59896494D01*
X183803670Y-59948915D01*
X183984684Y-60003588D01*
X184146958Y-60058323D01*
X184282494Y-60110927D01*
X184287147Y-60112914D01*
X184364968Y-60146272D01*
X184321246Y-60071079D01*
X184296702Y-60028203D01*
X184259508Y-59962408D01*
X184214152Y-59881670D01*
X184165120Y-59793961D01*
X184149687Y-59766263D01*
X184088899Y-59658607D01*
X184018857Y-59536963D01*
X183948378Y-59416527D01*
X183888309Y-59315846D01*
X183827817Y-59213806D01*
X183773915Y-59117732D01*
X183723991Y-59021966D01*
X183675430Y-58920854D01*
X183625619Y-58808739D01*
X183571944Y-58679966D01*
X183511791Y-58528879D01*
X183445881Y-58358525D01*
X183380658Y-58190218D01*
X183324993Y-58051036D01*
X183276965Y-57936696D01*
X183234655Y-57842913D01*
X183196141Y-57765402D01*
X183159504Y-57699878D01*
X183128731Y-57650903D01*
X183102287Y-57607106D01*
X183095821Y-57582055D01*
X183107230Y-57566918D01*
X183108530Y-57566073D01*
X183146578Y-57554982D01*
X183205778Y-57550576D01*
X183272658Y-57552532D01*
X183333744Y-57560523D01*
X183372316Y-57572444D01*
X183394270Y-57585963D01*
X183407416Y-57604588D01*
X183413999Y-57636699D01*
X183416259Y-57690678D01*
X183416474Y-57737478D01*
X183416474Y-57880093D01*
X183587169Y-58222622D01*
X183662419Y-58375929D01*
X183722991Y-58505260D01*
X183771608Y-58617381D01*
X183810993Y-58719059D01*
X183843869Y-58817061D01*
X183872959Y-58918154D01*
X183883891Y-58959976D01*
X183901094Y-59013784D01*
X183930170Y-59085891D01*
X183971934Y-59177922D01*
X184027205Y-59291499D01*
X184096800Y-59428245D01*
X184181537Y-59589782D01*
X184282233Y-59777734D01*
X184399706Y-59993723D01*
X184460135Y-60103909D01*
X184501525Y-60168608D01*
X184548758Y-60216246D01*
X184610587Y-60253005D01*
X184695764Y-60285068D01*
X184732399Y-60296233D01*
X184777281Y-60314678D01*
X184803053Y-60330728D01*
X184828006Y-60347077D01*
X184877225Y-60376322D01*
X184943919Y-60414521D01*
X185021297Y-60457733D01*
X185032677Y-60464003D01*
X185182569Y-60549488D01*
X185337452Y-60643241D01*
X185486812Y-60738636D01*
X185620135Y-60829043D01*
X185679148Y-60871524D01*
X185728634Y-60906711D01*
X185765805Y-60930567D01*
X185782967Y-60938173D01*
X185783164Y-60938036D01*
X185783122Y-60914008D01*
X185764322Y-60863724D01*
X185728133Y-60789962D01*
X185675920Y-60695501D01*
X185609050Y-60583119D01*
X185606581Y-60579091D01*
X185525613Y-60449380D01*
X185455344Y-60342952D01*
X185389755Y-60251968D01*
X185322830Y-60168589D01*
X185248551Y-60084975D01*
X185160900Y-59993288D01*
X185142661Y-59974736D01*
X185073960Y-59901908D01*
X185009961Y-59828340D01*
X184957349Y-59762091D01*
X184922807Y-59711221D01*
X184920215Y-59706573D01*
X184894959Y-59657759D01*
X184874306Y-59611447D01*
X184857723Y-59563392D01*
X184844675Y-59509348D01*
X184834628Y-59445071D01*
X184827047Y-59366316D01*
X184821397Y-59268836D01*
X184817144Y-59148388D01*
X184813754Y-59000725D01*
X184810965Y-58838933D01*
X184807900Y-58654166D01*
X184804921Y-58501357D01*
X184801757Y-58377141D01*
X184798133Y-58278151D01*
X184793777Y-58201022D01*
X184788416Y-58142388D01*
X184781777Y-58098882D01*
X184773587Y-58067139D01*
X184763573Y-58043791D01*
X184751462Y-58025474D01*
X184744304Y-58016886D01*
X184714600Y-57994286D01*
X184658763Y-57965356D01*
X184574644Y-57929144D01*
X184460096Y-57884704D01*
X184370299Y-57851678D01*
X184228656Y-57799915D01*
X184083368Y-57745949D01*
X183938457Y-57691348D01*
X183797943Y-57637685D01*
X183665847Y-57586529D01*
X183546189Y-57539452D01*
X183442990Y-57498024D01*
X183360270Y-57463816D01*
X183302052Y-57438399D01*
X183272354Y-57423344D01*
X183270568Y-57422043D01*
X183232539Y-57369934D01*
X183226223Y-57308003D01*
X183240083Y-57266420D01*
X183270545Y-57221350D01*
X183309715Y-57192862D01*
X183362196Y-57180669D01*
X183432595Y-57184483D01*
X183525516Y-57204017D01*
X183645564Y-57238983D01*
X183651163Y-57240751D01*
X183866285Y-57314077D01*
X184073648Y-57394818D01*
X184269086Y-57480839D01*
X184448431Y-57570004D01*
X184607517Y-57660180D01*
X184742177Y-57749233D01*
X184848243Y-57835026D01*
X184887426Y-57874044D01*
X184919039Y-57911445D01*
X184943106Y-57949682D01*
X184960237Y-57993631D01*
X184971042Y-58048169D01*
X184976132Y-58118172D01*
X184976114Y-58208517D01*
X184971601Y-58324081D01*
X184963200Y-58469740D01*
X184962771Y-58476596D01*
X184955255Y-58602397D01*
X184950620Y-58700281D01*
X184948976Y-58777545D01*
X184950427Y-58841489D01*
X184955082Y-58899413D01*
X184963048Y-58958614D01*
X184970507Y-59003887D01*
X184985928Y-59105383D01*
X185000417Y-59221200D01*
X185011419Y-59330372D01*
X185013546Y-59357156D01*
X185026276Y-59473725D01*
X185048138Y-59566122D01*
X185083653Y-59645198D01*
X185137343Y-59721805D01*
X185190821Y-59782630D01*
X185281607Y-59886667D01*
X185382629Y-60013750D01*
X185487959Y-60155513D01*
X185591669Y-60303589D01*
X185687833Y-60449612D01*
X185770522Y-60585215D01*
X185811595Y-60658832D01*
X185873444Y-60755107D01*
X185943596Y-60830928D01*
X186016436Y-60880997D01*
X186064934Y-60897690D01*
X186110806Y-60908699D01*
X186124356Y-60923424D01*
X186108331Y-60949841D01*
X186089888Y-60970138D01*
X186051966Y-61010504D01*
X186149911Y-61129615D01*
X186196822Y-61188326D01*
X186223011Y-61226607D01*
X186231450Y-61250233D01*
X186225107Y-61264977D01*
X186221196Y-61268220D01*
X186212356Y-61281149D01*
X186219455Y-61300305D01*
X186246078Y-61330492D01*
X186295810Y-61376516D01*
X186313909Y-61392496D01*
X186460448Y-61530578D01*
X186616842Y-61695050D01*
X186778450Y-61880084D01*
X186940630Y-62079855D01*
X187098740Y-62288536D01*
X187248140Y-62500302D01*
X187384188Y-62709325D01*
X187450861Y-62819677D01*
X187670285Y-63228424D01*
X187857654Y-63650127D01*
X188012901Y-64082752D01*
X188135960Y-64524264D01*
X188226764Y-64972629D01*
X188285246Y-65425812D01*
X188311339Y-65881778D01*
X188304978Y-66338494D01*
X188266095Y-66793924D01*
X188194624Y-67246034D01*
X188090497Y-67692790D01*
X187953650Y-68132156D01*
X187784013Y-68562099D01*
X187648463Y-68850902D01*
X187421185Y-69265719D01*
X187166748Y-69658797D01*
X186886557Y-70029184D01*
X186582019Y-70375930D01*
X186254539Y-70698081D01*
X185905522Y-70994686D01*
X185536374Y-71264792D01*
X185148501Y-71507448D01*
X184743307Y-71721701D01*
X184322199Y-71906599D01*
X183886582Y-72061191D01*
X183437862Y-72184525D01*
X182977443Y-72275648D01*
X182506808Y-72333601D01*
X182429021Y-72338505D01*
X182324978Y-72342460D01*
X182202380Y-72345418D01*
X182068928Y-72347333D01*
X181932325Y-72348157D01*
X181800272Y-72347845D01*
X181680471Y-72346349D01*
X181580623Y-72343624D01*
X181508825Y-72339654D01*
X181024504Y-72282700D01*
X180554090Y-72193344D01*
X180097760Y-72071656D01*
X179655692Y-71917706D01*
X179228063Y-71731563D01*
X178815051Y-71513297D01*
X178416831Y-71262979D01*
X178033582Y-70980677D01*
X178011467Y-70963043D01*
X177657410Y-70657263D01*
X177329423Y-70328641D01*
X177028225Y-69978925D01*
X176754537Y-69609863D01*
X176509077Y-69223203D01*
X176292566Y-68820690D01*
X176105722Y-68404074D01*
X175949265Y-67975102D01*
X175823915Y-67535520D01*
X175730392Y-67087076D01*
X175669414Y-66631518D01*
X175641701Y-66170594D01*
X175647973Y-65706050D01*
X175681238Y-65303746D01*
X175752948Y-64832032D01*
X175857855Y-64371550D01*
X175995272Y-63923549D01*
X176164507Y-63489279D01*
X176364873Y-63069990D01*
X176595680Y-62666933D01*
X176856238Y-62281356D01*
X177145858Y-61914510D01*
X177463851Y-61567646D01*
X177809527Y-61242012D01*
X178017621Y-61067236D01*
X178101211Y-60995961D01*
X178178219Y-60920876D01*
X178253532Y-60836207D01*
X178332038Y-60736181D01*
X178418626Y-60615023D01*
X178490938Y-60508127D01*
X178566395Y-60393811D01*
X178624011Y-60303830D01*
X178666132Y-60233525D01*
X178695104Y-60178241D01*
X178713272Y-60133320D01*
X178722983Y-60094105D01*
X178726582Y-60055939D01*
X178726836Y-60039829D01*
X178730148Y-59987604D01*
X178742212Y-59935623D01*
X178766220Y-59873984D01*
X178805363Y-59792783D01*
X178808373Y-59786856D01*
X178853258Y-59692837D01*
X178905498Y-59574030D01*
X178961590Y-59439266D01*
X179018034Y-59297375D01*
X179071326Y-59157186D01*
X179117965Y-59027528D01*
X179154448Y-58917234D01*
X179158390Y-58904354D01*
X179199243Y-58793254D01*
X179249612Y-58709265D01*
X179316779Y-58644238D01*
X179408027Y-58590029D01*
X179460666Y-58566240D01*
X179517342Y-58540353D01*
X179596936Y-58501345D01*
X179691486Y-58453251D01*
X179793029Y-58400107D01*
X179870215Y-58358695D01*
X179986980Y-58296176D01*
X180076116Y-58250602D01*
X180140327Y-58220811D01*
X180182315Y-58205642D01*
X180204786Y-58203934D01*
X180210563Y-58212503D01*
X180200288Y-58237125D01*
X180173559Y-58279782D01*
X180136522Y-58331353D01*
X180097905Y-58379684D01*
X179993814Y-58482059D01*
X179856594Y-58583310D01*
X179688437Y-58681890D01*
X179618218Y-58717674D01*
X179535223Y-58759951D01*
X179461331Y-58800364D01*
X179403694Y-58834804D01*
X179369465Y-58859167D01*
X179366073Y-58862452D01*
X179344855Y-58899161D01*
X179320439Y-58964140D01*
X179295173Y-59050770D01*
X179285296Y-59090249D01*
X179231193Y-59283053D01*
X179157558Y-59489660D01*
X179063424Y-59712143D01*
X178947823Y-59952572D01*
X178809791Y-60213020D01*
X178648360Y-60495558D01*
X178563882Y-60636981D01*
X178528675Y-60695182D01*
X178693651Y-60595145D01*
X179052960Y-60393522D01*
X179427986Y-60213801D01*
X179495195Y-60184727D01*
X179594424Y-60144264D01*
X179709493Y-60100189D01*
X179833586Y-60054838D01*
X179959883Y-60010546D01*
X180081569Y-59969648D01*
X180191826Y-59934479D01*
X180283838Y-59907374D01*
X180350786Y-59890668D01*
X180357705Y-59889304D01*
X180384314Y-59884133D01*
X180403151Y-59876707D01*
X180414998Y-59861851D01*
X180420638Y-59834387D01*
X180420852Y-59789138D01*
X180416422Y-59720928D01*
X180408131Y-59624579D01*
X180404272Y-59581104D01*
X180392565Y-59481134D01*
X180374301Y-59362496D01*
X180352062Y-59240648D01*
X180330436Y-59139519D01*
X180307378Y-59036868D01*
X180291582Y-58952771D01*
X180281692Y-58875140D01*
X180276349Y-58791884D01*
X180274199Y-58690914D01*
X180273910Y-58635804D01*
X180284974Y-58359647D01*
X180318620Y-58089754D01*
X180373523Y-57833605D01*
X180448356Y-57598678D01*
X180465552Y-57555009D01*
X180503832Y-57468991D01*
X180552732Y-57370728D01*
X180608173Y-57267320D01*
X180666072Y-57165864D01*
X180722348Y-57073459D01*
X180772921Y-56997204D01*
X180813710Y-56944196D01*
X180821612Y-56935700D01*
X180861658Y-56900287D01*
X180900487Y-56883318D01*
X180954539Y-56878395D01*
X180969127Y-56878294D01*
X181046733Y-56889100D01*
X181104520Y-56918840D01*
X181137479Y-56963498D01*
X181141179Y-57016356D01*
X181131841Y-57043355D01*
X181109652Y-57098407D01*
X181076379Y-57177404D01*
X181033786Y-57276238D01*
X180983642Y-57390800D01*
X180927710Y-57516983D01*
X180883584Y-57615537D01*
X180800148Y-57801158D01*
X180730002Y-57957658D01*
X180671961Y-58088140D01*
X180624840Y-58195709D01*
X180587457Y-58283470D01*
X180558626Y-58354525D01*
X180537164Y-58411980D01*
X180521886Y-58458938D01*
X180511608Y-58498504D01*
X180505146Y-58533783D01*
X180501315Y-58567877D01*
X180498932Y-58603892D01*
X180497742Y-58626972D01*
X180497139Y-58689265D01*
X180499727Y-58779166D01*
X180505115Y-58889138D01*
X180512909Y-59011645D01*
X180522717Y-59139151D01*
X180526983Y-59188375D01*
X180537707Y-59313127D01*
X180547203Y-59433286D01*
X180554990Y-59541966D01*
X180560587Y-59632280D01*
X180563514Y-59697341D01*
X180563832Y-59716173D01*
X180563832Y-59832707D01*
X180621238Y-59822586D01*
X180804039Y-59790853D01*
X180958445Y-59765251D01*
X181090685Y-59744888D01*
X181206985Y-59728873D01*
X181313572Y-59716314D01*
X181416675Y-59706318D01*
X181455835Y-59703039D01*
X181548407Y-59695365D01*
X181627553Y-59688381D01*
X181687042Y-59682672D01*
X181720642Y-59678820D01*
X181725781Y-59677777D01*
X181727220Y-59656967D01*
X181719409Y-59610111D01*
X181704388Y-59544636D01*
X181684195Y-59467970D01*
X181660871Y-59387541D01*
X181636453Y-59310777D01*
X181612983Y-59245105D01*
X181595955Y-59204910D01*
X181567230Y-59141896D01*
X181545860Y-59089158D01*
X181535678Y-59056312D01*
X181535320Y-59052784D01*
X181524309Y-59019110D01*
X181510573Y-58999295D01*
X181497104Y-58973002D01*
X181476676Y-58919760D01*
X181451490Y-58846740D01*
X181423745Y-58761113D01*
X181395642Y-58670047D01*
X181369382Y-58580715D01*
X181347165Y-58500285D01*
X181331193Y-58435929D01*
X181323665Y-58394815D01*
X181323359Y-58389284D01*
X181329206Y-58347806D01*
X181343876Y-58292084D01*
X181350700Y-58271509D01*
X181362894Y-58227210D01*
X181378470Y-58156086D01*
X181395812Y-58066284D01*
X181413307Y-57965950D01*
X181422039Y-57911604D01*
X181440960Y-57790562D01*
X181455472Y-57700015D01*
X181466540Y-57635541D01*
X181475130Y-57592719D01*
X181482206Y-57567128D01*
X181488735Y-57554347D01*
X181495681Y-57549955D01*
X181501101Y-57549504D01*
X181523274Y-57555288D01*
X181569556Y-57570540D01*
X181631281Y-57592103D01*
X181699785Y-57616823D01*
X181766399Y-57641544D01*
X181822459Y-57663112D01*
X181859299Y-57678372D01*
X181868775Y-57683359D01*
X181861867Y-57699447D01*
X181838761Y-57740956D01*
X181802094Y-57803422D01*
X181754500Y-57882377D01*
X181698616Y-57973357D01*
X181678893Y-58005114D01*
X181608359Y-58120706D01*
X181551928Y-58218047D01*
X181511177Y-58294228D01*
X181487681Y-58346342D01*
X181482330Y-58367681D01*
X181487615Y-58404179D01*
X181501837Y-58464383D01*
X181522549Y-58538554D01*
X181537490Y-58587018D01*
X181565718Y-58672310D01*
X181592350Y-58744208D01*
X181621986Y-58813328D01*
X181659227Y-58890282D01*
X181708672Y-58985684D01*
X181717592Y-59002555D01*
X181748339Y-59075865D01*
X181778490Y-59175023D01*
X181805848Y-59290590D01*
X181828217Y-59413124D01*
X181843403Y-59533183D01*
X181844884Y-59549886D01*
X181856276Y-59686778D01*
X182088809Y-59686883D01*
X182192597Y-59687840D01*
X182299327Y-59690358D01*
X182395884Y-59694045D01*
X182464292Y-59698119D01*
X182607243Y-59709249D01*
X182618509Y-59516963D01*
X182625905Y-59430026D01*
X182639050Y-59315963D01*
X182656840Y-59182302D01*
X182678168Y-59036572D01*
X182701929Y-58886303D01*
X182727017Y-58739022D01*
X182752327Y-58602260D01*
X182754397Y-58591645D01*
X182768158Y-58533300D01*
X182790035Y-58453688D01*
X182816592Y-58364925D01*
X182835305Y-58306334D01*
X182865257Y-58209783D01*
X182883372Y-58135412D01*
X182891621Y-58072886D01*
X182891975Y-58011869D01*
X182891875Y-58009759D01*
X182886572Y-57901346D01*
X182702665Y-57839716D01*
X182425428Y-57729352D01*
X182151943Y-57585182D01*
X181881346Y-57406697D01*
X181627322Y-57205877D01*
X181526080Y-57117983D01*
X181450750Y-57048149D01*
X181399399Y-56992690D01*
X181370096Y-56947925D01*
X181360907Y-56910171D01*
X181369901Y-56875746D01*
X181395146Y-56840966D01*
X181421765Y-56814141D01*
X181474714Y-56774777D01*
X181531876Y-56756734D01*
X181599948Y-56759920D01*
G37*
G36*
X177470553Y-53788766D02*
G01*
X177721380Y-53798639D01*
X177835135Y-53805396D01*
X178151308Y-53831873D01*
X178496707Y-53872123D01*
X178868301Y-53925512D01*
X179263063Y-53991404D01*
X179677962Y-54069163D01*
X180109970Y-54158153D01*
X180556057Y-54257740D01*
X181013195Y-54367286D01*
X181478354Y-54486157D01*
X181948504Y-54613717D01*
X182420618Y-54749330D01*
X182626457Y-54810863D01*
X182840786Y-54877093D01*
X183023895Y-54937206D01*
X183178990Y-54993013D01*
X183309278Y-55046326D01*
X183417963Y-55098957D01*
X183508252Y-55152717D01*
X183583351Y-55209416D01*
X183646465Y-55270868D01*
X183700801Y-55338883D01*
X183749565Y-55415272D01*
X183773966Y-55459248D01*
X183845618Y-55624896D01*
X183897521Y-55811035D01*
X183928484Y-56008096D01*
X183937314Y-56206511D01*
X183922819Y-56396708D01*
X183903483Y-56498530D01*
X183859879Y-56642322D01*
X183798718Y-56790383D01*
X183726391Y-56928723D01*
X183662464Y-57026131D01*
X183598528Y-57112146D01*
X183481006Y-57100702D01*
X183411149Y-57096029D01*
X183361085Y-57099981D01*
X183315869Y-57114757D01*
X183285306Y-57129499D01*
X183208895Y-57186498D01*
X183161356Y-57263776D01*
X183142935Y-57360910D01*
X183142691Y-57374834D01*
X183141222Y-57422791D01*
X183131405Y-57451368D01*
X183105128Y-57471688D01*
X183055516Y-57494338D01*
X182998706Y-57515844D01*
X182949760Y-57529410D01*
X182930878Y-57531840D01*
X182901895Y-57519077D01*
X182851576Y-57482076D01*
X182782312Y-57422769D01*
X182696496Y-57343089D01*
X182692662Y-57339418D01*
X182605954Y-57259952D01*
X182510042Y-57177992D01*
X182415450Y-57102194D01*
X182332703Y-57041213D01*
X182317512Y-57030897D01*
X182237228Y-56980421D01*
X182142871Y-56925852D01*
X182040201Y-56870025D01*
X181934978Y-56815775D01*
X181832960Y-56765936D01*
X181739909Y-56723344D01*
X181661583Y-56690833D01*
X181603744Y-56671239D01*
X181577591Y-56666720D01*
X181503167Y-56679858D01*
X181429146Y-56713958D01*
X181363530Y-56762696D01*
X181314319Y-56819742D01*
X181289517Y-56878771D01*
X181288032Y-56895674D01*
X181289857Y-56911397D01*
X181296866Y-56929520D01*
X181311362Y-56952483D01*
X181335649Y-56982723D01*
X181372030Y-57022677D01*
X181422807Y-57074785D01*
X181490283Y-57141483D01*
X181576761Y-57225211D01*
X181684545Y-57328407D01*
X181806278Y-57444324D01*
X181866377Y-57503961D01*
X181905781Y-57548493D01*
X181922095Y-57575017D01*
X181919332Y-57581198D01*
X181892381Y-57578270D01*
X181840609Y-57566161D01*
X181772650Y-57547038D01*
X181727859Y-57533151D01*
X181614960Y-57489905D01*
X181494556Y-57431957D01*
X181378254Y-57365708D01*
X181277661Y-57297563D01*
X181229428Y-57258208D01*
X181204797Y-57234509D01*
X181190815Y-57211987D01*
X181185547Y-57181094D01*
X181187053Y-57132284D01*
X181191892Y-57073256D01*
X181197488Y-57003108D01*
X181197856Y-56958394D01*
X181190904Y-56929362D01*
X181174541Y-56906258D01*
X181151198Y-56883557D01*
X181106739Y-56844322D01*
X181065749Y-56811652D01*
X181060141Y-56807640D01*
X181033528Y-56777568D01*
X181002866Y-56726175D01*
X180979306Y-56675186D01*
X180949743Y-56613507D01*
X180916319Y-56561259D01*
X180884304Y-56525034D01*
X180858968Y-56511426D01*
X180850960Y-56514623D01*
X180852570Y-56533751D01*
X180863468Y-56577927D01*
X180881228Y-56638872D01*
X180903421Y-56708307D01*
X180927619Y-56777952D01*
X180930406Y-56785561D01*
X180922160Y-56802465D01*
X180885018Y-56807640D01*
X180830463Y-56820562D01*
X180779637Y-56851274D01*
X180743430Y-56891055D01*
X180695438Y-56957733D01*
X180638806Y-57046189D01*
X180576677Y-57151301D01*
X180512197Y-57267950D01*
X180450025Y-57387984D01*
X180412567Y-57467986D01*
X180373430Y-57560332D01*
X180335280Y-57657662D01*
X180300787Y-57752617D01*
X180272616Y-57837837D01*
X180253435Y-57905962D01*
X180245913Y-57949632D01*
X180245890Y-57951201D01*
X180236905Y-57989728D01*
X180207887Y-58031004D01*
X180155747Y-58077789D01*
X180077391Y-58132844D01*
X179969730Y-58198931D01*
X179966075Y-58201077D01*
X179883036Y-58248517D01*
X179773938Y-58308896D01*
X179644289Y-58379295D01*
X179499598Y-58456796D01*
X179345374Y-58538482D01*
X179187127Y-58621433D01*
X179030363Y-58702732D01*
X178880594Y-58779461D01*
X178746575Y-58847078D01*
X178563576Y-58929667D01*
X178401450Y-58984032D01*
X178259902Y-59010228D01*
X178138634Y-59008313D01*
X178043547Y-58981239D01*
X177983098Y-58943309D01*
X177932198Y-58886371D01*
X177887509Y-58805357D01*
X177845692Y-58695199D01*
X177836727Y-58667129D01*
X177783976Y-58475055D01*
X177741661Y-58274708D01*
X177711067Y-58075144D01*
X177693482Y-57885418D01*
X177690191Y-57714588D01*
X177693029Y-57655484D01*
X177702543Y-57552277D01*
X177716717Y-57436686D01*
X177733763Y-57320972D01*
X177751892Y-57217397D01*
X177767406Y-57145688D01*
X177777831Y-57103973D01*
X177506054Y-57116461D01*
X177404865Y-57119883D01*
X177298122Y-57120866D01*
X177182107Y-57119221D01*
X177053107Y-57114758D01*
X176907405Y-57107288D01*
X176741287Y-57096622D01*
X176551037Y-57082570D01*
X176332939Y-57064945D01*
X176095574Y-57044630D01*
X175919848Y-57029176D01*
X175775374Y-57016032D01*
X175658202Y-57004538D01*
X175564381Y-56994036D01*
X175489962Y-56983865D01*
X175430996Y-56973365D01*
X175383531Y-56961879D01*
X175343619Y-56948745D01*
X175307308Y-56933304D01*
X175270650Y-56914897D01*
X175248867Y-56903247D01*
X175171712Y-56856883D01*
X175127105Y-56816280D01*
X175115299Y-56781633D01*
X175203056Y-56781633D01*
X175223892Y-56801182D01*
X175248451Y-56809808D01*
X175271600Y-56818970D01*
X175266277Y-56823543D01*
X175248119Y-56828843D01*
X175259163Y-56838963D01*
X175293828Y-56852542D01*
X175346534Y-56868216D01*
X175411702Y-56884623D01*
X175483751Y-56900401D01*
X175557102Y-56914187D01*
X175626173Y-56924618D01*
X175685386Y-56930334D01*
X175706391Y-56931001D01*
X175772669Y-56932982D01*
X175859875Y-56938066D01*
X175960725Y-56945563D01*
X176067935Y-56954782D01*
X176174222Y-56965030D01*
X176272301Y-56975617D01*
X176354888Y-56985851D01*
X176414699Y-56995041D01*
X176439423Y-57000577D01*
X176469050Y-57004289D01*
X176529755Y-57007529D01*
X176617288Y-57010216D01*
X176727403Y-57012271D01*
X176855851Y-57013612D01*
X176998384Y-57014160D01*
X177142981Y-57013872D01*
X177312062Y-57012983D01*
X177449297Y-57011968D01*
X177558168Y-57010637D01*
X177642156Y-57008801D01*
X177704743Y-57006272D01*
X177749409Y-57002861D01*
X177779637Y-56998379D01*
X177798907Y-56992638D01*
X177810700Y-56985449D01*
X177818026Y-56977277D01*
X177835946Y-56943689D01*
X177858932Y-56888527D01*
X177880844Y-56827138D01*
X177924864Y-56706354D01*
X177969365Y-56613224D01*
X178018222Y-56540236D01*
X178044282Y-56510232D01*
X178099784Y-56451281D01*
X177993804Y-56463016D01*
X177948336Y-56469556D01*
X177877293Y-56481575D01*
X177787148Y-56497811D01*
X177684373Y-56517006D01*
X177575438Y-56537897D01*
X177466818Y-56559224D01*
X177364983Y-56579726D01*
X177276407Y-56598143D01*
X177207560Y-56613214D01*
X177164915Y-56623677D01*
X177157809Y-56625865D01*
X177138951Y-56628982D01*
X177146899Y-56615886D01*
X177169732Y-56605772D01*
X177221104Y-56590690D01*
X177294841Y-56572213D01*
X177384767Y-56551916D01*
X177456009Y-56537072D01*
X177549664Y-56517392D01*
X177627650Y-56499410D01*
X177684962Y-56484416D01*
X177716591Y-56473698D01*
X177720021Y-56469064D01*
X177717417Y-56462606D01*
X177725771Y-56460259D01*
X177796562Y-56460259D01*
X177798987Y-56470760D01*
X177808338Y-56472035D01*
X177822877Y-56465572D01*
X177820114Y-56460259D01*
X177799151Y-56458145D01*
X177796562Y-56460259D01*
X177725771Y-56460259D01*
X177744152Y-56455095D01*
X177801790Y-56446284D01*
X177891892Y-56435923D01*
X177987823Y-56426406D01*
X178096282Y-56406657D01*
X178176058Y-56369816D01*
X178230199Y-56314315D01*
X178240486Y-56296573D01*
X178268089Y-56243193D01*
X178219264Y-56251825D01*
X178189433Y-56255893D01*
X178129449Y-56263095D01*
X178044290Y-56272867D01*
X177938937Y-56284648D01*
X177818369Y-56297875D01*
X177687565Y-56311985D01*
X177667031Y-56314179D01*
X177312694Y-56353628D01*
X176981086Y-56393866D01*
X176674674Y-56434548D01*
X176395923Y-56475329D01*
X176147297Y-56515863D01*
X175931264Y-56555807D01*
X175910769Y-56559912D01*
X175802440Y-56581465D01*
X175704849Y-56600269D01*
X175623683Y-56615276D01*
X175564630Y-56625441D01*
X175533377Y-56629717D01*
X175531005Y-56629775D01*
X175531625Y-56623604D01*
X175559488Y-56608543D01*
X175608641Y-56587778D01*
X175611806Y-56586549D01*
X175660620Y-56572229D01*
X175740252Y-56554478D01*
X175846433Y-56533982D01*
X175974897Y-56511429D01*
X176121373Y-56487509D01*
X176281596Y-56462908D01*
X176451296Y-56438314D01*
X176626207Y-56414417D01*
X176802058Y-56391903D01*
X176872177Y-56383382D01*
X176933271Y-56375909D01*
X177023208Y-56364677D01*
X177135794Y-56350469D01*
X177264839Y-56334072D01*
X177404151Y-56316270D01*
X177547538Y-56297847D01*
X177577097Y-56294037D01*
X177715295Y-56276566D01*
X177846020Y-56260711D01*
X177964097Y-56247050D01*
X178064348Y-56236158D01*
X178141598Y-56228611D01*
X178190670Y-56224985D01*
X178199597Y-56224747D01*
X178241839Y-56222375D01*
X178281569Y-56212938D01*
X178292416Y-56208167D01*
X180650515Y-56208167D01*
X180686391Y-56258551D01*
X180724817Y-56305627D01*
X180769305Y-56350105D01*
X180813508Y-56387065D01*
X180851078Y-56411585D01*
X180875667Y-56418743D01*
X180881773Y-56410020D01*
X180874883Y-56390099D01*
X180857355Y-56349558D01*
X180845301Y-56323404D01*
X180803391Y-56248712D01*
X180761798Y-56206399D01*
X180717265Y-56193697D01*
X180696202Y-56196700D01*
X180650515Y-56208167D01*
X178292416Y-56208167D01*
X178327005Y-56192954D01*
X178386366Y-56158943D01*
X178451051Y-56118238D01*
X178512957Y-56080921D01*
X180549788Y-56080921D01*
X180558993Y-56104348D01*
X180593708Y-56135933D01*
X180643798Y-56164040D01*
X180684586Y-56166344D01*
X180709451Y-56143791D01*
X180713971Y-56118766D01*
X180710478Y-56091762D01*
X180693870Y-56077669D01*
X180654950Y-56071056D01*
X180630070Y-56069224D01*
X180573272Y-56069595D01*
X180549788Y-56080921D01*
X178512957Y-56080921D01*
X178531693Y-56069627D01*
X178614854Y-56024661D01*
X178688555Y-55989589D01*
X178724970Y-55975309D01*
X178780415Y-55953543D01*
X178801475Y-55942132D01*
X180381722Y-55942132D01*
X180415371Y-55979544D01*
X180481301Y-56028473D01*
X180562243Y-56045481D01*
X180650221Y-56032763D01*
X180692789Y-56008892D01*
X180718613Y-55981534D01*
X180744775Y-55942132D01*
X180563249Y-55942132D01*
X180381722Y-55942132D01*
X178801475Y-55942132D01*
X178819335Y-55932455D01*
X178832816Y-55917653D01*
X178821295Y-55914069D01*
X178785737Y-55914431D01*
X178724651Y-55918902D01*
X178636544Y-55927643D01*
X178519926Y-55940818D01*
X178373305Y-55958590D01*
X178195189Y-55981122D01*
X177984087Y-56008575D01*
X177909903Y-56018350D01*
X177733496Y-56041765D01*
X177567873Y-56063961D01*
X177416296Y-56084485D01*
X177282033Y-56102885D01*
X177168346Y-56118708D01*
X177078500Y-56131504D01*
X177015761Y-56140818D01*
X176983393Y-56146200D01*
X176979629Y-56147188D01*
X176975895Y-56155053D01*
X176986089Y-56160059D01*
X177012780Y-56162019D01*
X177058539Y-56160747D01*
X177125936Y-56156055D01*
X177217541Y-56147757D01*
X177335924Y-56135666D01*
X177483655Y-56119596D01*
X177663304Y-56099360D01*
X177707245Y-56094345D01*
X177905534Y-56071809D01*
X178071262Y-56053325D01*
X178206934Y-56038673D01*
X178315058Y-56027636D01*
X178398140Y-56019995D01*
X178458686Y-56015532D01*
X178499202Y-56014029D01*
X178522196Y-56015266D01*
X178530173Y-56019026D01*
X178528418Y-56022794D01*
X178509990Y-56026239D01*
X178460599Y-56033121D01*
X178384391Y-56042960D01*
X178285511Y-56055270D01*
X178168105Y-56069570D01*
X178036320Y-56085377D01*
X177894300Y-56102208D01*
X177746191Y-56119580D01*
X177596139Y-56137010D01*
X177448290Y-56154016D01*
X177306789Y-56170114D01*
X177175782Y-56184822D01*
X177059415Y-56197657D01*
X176961833Y-56208136D01*
X176887183Y-56215777D01*
X176839609Y-56220096D01*
X176828018Y-56220832D01*
X176799870Y-56225312D01*
X176742694Y-56236999D01*
X176661770Y-56254672D01*
X176562377Y-56277108D01*
X176449794Y-56303085D01*
X176329301Y-56331381D01*
X176206176Y-56360773D01*
X176085699Y-56390040D01*
X175973148Y-56417959D01*
X175936015Y-56427336D01*
X175859041Y-56449247D01*
X175768844Y-56478627D01*
X175672387Y-56512779D01*
X175576637Y-56549006D01*
X175488557Y-56584610D01*
X175415113Y-56616893D01*
X175363269Y-56643158D01*
X175343016Y-56657026D01*
X175317270Y-56677807D01*
X175275496Y-56708099D01*
X175259246Y-56719323D01*
X175214734Y-56755240D01*
X175203056Y-56781633D01*
X175115299Y-56781633D01*
X175113747Y-56777079D01*
X175130341Y-56734922D01*
X175175588Y-56685452D01*
X175182189Y-56679439D01*
X175225941Y-56641567D01*
X175269236Y-56608351D01*
X175315894Y-56578246D01*
X175369735Y-56549709D01*
X175434580Y-56521200D01*
X175514249Y-56491174D01*
X175612563Y-56458089D01*
X175733343Y-56420402D01*
X175880408Y-56376571D01*
X176057580Y-56325053D01*
X176065511Y-56322763D01*
X176293491Y-56258375D01*
X176513168Y-56199515D01*
X176727364Y-56145808D01*
X176938904Y-56096882D01*
X177150611Y-56052362D01*
X177365308Y-56011875D01*
X177585818Y-55975048D01*
X177814964Y-55941506D01*
X178055571Y-55910876D01*
X178310461Y-55882784D01*
X178582459Y-55856857D01*
X178874386Y-55832722D01*
X178922617Y-55829240D01*
X180131452Y-55829240D01*
X180137458Y-55841139D01*
X180140581Y-55844393D01*
X180191127Y-55880816D01*
X180259660Y-55904327D01*
X180351124Y-55915896D01*
X180470464Y-55916492D01*
X180502010Y-55915196D01*
X180588781Y-55910378D01*
X180647396Y-55904772D01*
X180685018Y-55896831D01*
X180708810Y-55885006D01*
X180725933Y-55867749D01*
X180726826Y-55866609D01*
X180749413Y-55832520D01*
X180757737Y-55811388D01*
X180741339Y-55805544D01*
X180695801Y-55803081D01*
X180627164Y-55804140D01*
X180569916Y-55806972D01*
X180473290Y-55812044D01*
X180372243Y-55815976D01*
X180282729Y-55818197D01*
X180248189Y-55818488D01*
X180181310Y-55819241D01*
X180144233Y-55822383D01*
X180131452Y-55829240D01*
X178922617Y-55829240D01*
X179189067Y-55810004D01*
X179529325Y-55788329D01*
X179897983Y-55767325D01*
X180297864Y-55746618D01*
X180490045Y-55737234D01*
X180601920Y-55730741D01*
X180683100Y-55722714D01*
X180738212Y-55711778D01*
X180771889Y-55696558D01*
X180788760Y-55675680D01*
X180793455Y-55647767D01*
X180793456Y-55647127D01*
X180787217Y-55630960D01*
X180763096Y-55625711D01*
X180712988Y-55629741D01*
X180709555Y-55630170D01*
X180667916Y-55633981D01*
X180595035Y-55639066D01*
X180494963Y-55645224D01*
X180371756Y-55652255D01*
X180229466Y-55659960D01*
X180072146Y-55668140D01*
X179903851Y-55676593D01*
X179728632Y-55685121D01*
X179550543Y-55693524D01*
X179373639Y-55701601D01*
X179201971Y-55709154D01*
X179039594Y-55715982D01*
X178890561Y-55721886D01*
X178758924Y-55726666D01*
X178735668Y-55727449D01*
X178508824Y-55733185D01*
X178310261Y-55734063D01*
X178133223Y-55729773D01*
X177970958Y-55720003D01*
X177816713Y-55704447D01*
X177663735Y-55682792D01*
X177626031Y-55676582D01*
X177260666Y-55603381D01*
X176897298Y-55506998D01*
X176531197Y-55385817D01*
X176157630Y-55238223D01*
X175771866Y-55062602D01*
X175647581Y-55001475D01*
X175522245Y-54938324D01*
X175423794Y-54887330D01*
X175347224Y-54845450D01*
X175287531Y-54809642D01*
X175239710Y-54776862D01*
X175198758Y-54744069D01*
X175159670Y-54708218D01*
X175150280Y-54699086D01*
X175067302Y-54603814D01*
X175018778Y-54513417D01*
X175007850Y-54446629D01*
X175097165Y-54446629D01*
X175112526Y-54464095D01*
X175118421Y-54468660D01*
X175140104Y-54486958D01*
X175133213Y-54492590D01*
X175118628Y-54493170D01*
X175099119Y-54496152D01*
X175097690Y-54510362D01*
X175113902Y-54545235D01*
X175116012Y-54549324D01*
X175166670Y-54625219D01*
X175223854Y-54672598D01*
X175280471Y-54688029D01*
X175317365Y-54683245D01*
X175379562Y-54670198D01*
X175458550Y-54650851D01*
X175545816Y-54627164D01*
X175550641Y-54625787D01*
X175818718Y-54557374D01*
X176060931Y-54512910D01*
X176153396Y-54501539D01*
X176209876Y-54494493D01*
X176237072Y-54486602D01*
X176240971Y-54475069D01*
X176233643Y-54464043D01*
X176225700Y-54450407D01*
X176234796Y-54443956D01*
X176266754Y-54443882D01*
X176327398Y-54449377D01*
X176334204Y-54450090D01*
X176411171Y-54458824D01*
X176487070Y-54468447D01*
X176536572Y-54475533D01*
X176565995Y-54480624D01*
X176583856Y-54485488D01*
X176587412Y-54490690D01*
X176573919Y-54496795D01*
X176540634Y-54504368D01*
X176484815Y-54513973D01*
X176403717Y-54526175D01*
X176294597Y-54541539D01*
X176154712Y-54560629D01*
X176063132Y-54572994D01*
X175871793Y-54600213D01*
X175706019Y-54626765D01*
X175567450Y-54652293D01*
X175457725Y-54676440D01*
X175378487Y-54698850D01*
X175331376Y-54719165D01*
X175317796Y-54735098D01*
X175332623Y-54752870D01*
X175370755Y-54778748D01*
X175422662Y-54807796D01*
X175478817Y-54835077D01*
X175529691Y-54855657D01*
X175565757Y-54864598D01*
X175567905Y-54864663D01*
X175594982Y-54875585D01*
X175600410Y-54889018D01*
X175615774Y-54903790D01*
X175658336Y-54929842D01*
X175722806Y-54964584D01*
X175803891Y-55005426D01*
X175896302Y-55049779D01*
X175994746Y-55095052D01*
X176093931Y-55138656D01*
X176188567Y-55178001D01*
X176200967Y-55182949D01*
X176332074Y-55233646D01*
X176463772Y-55282181D01*
X176590974Y-55326887D01*
X176708590Y-55366096D01*
X176811535Y-55398141D01*
X176894720Y-55421355D01*
X176953058Y-55434071D01*
X176973092Y-55435984D01*
X177016291Y-55438692D01*
X177037929Y-55446236D01*
X177038267Y-55450327D01*
X177037942Y-55460499D01*
X177052196Y-55471595D01*
X177085011Y-55484997D01*
X177140374Y-55502083D01*
X177222269Y-55524235D01*
X177333118Y-55552440D01*
X177585142Y-55609441D01*
X177809343Y-55647185D01*
X178007370Y-55665895D01*
X178179270Y-55665884D01*
X178254853Y-55662364D01*
X178356950Y-55658757D01*
X178476748Y-55655310D01*
X178605438Y-55652275D01*
X178734207Y-55649901D01*
X178753331Y-55649613D01*
X178884885Y-55646113D01*
X179047326Y-55639134D01*
X179236410Y-55628929D01*
X179447896Y-55615751D01*
X179677541Y-55599852D01*
X179921101Y-55581485D01*
X179994936Y-55575637D01*
X180847946Y-55507339D01*
X180980914Y-55362834D01*
X181055574Y-55287744D01*
X181139158Y-55213200D01*
X181218719Y-55150494D01*
X181246151Y-55131495D01*
X181302269Y-55092224D01*
X181342232Y-55059474D01*
X181360482Y-55038060D01*
X181359721Y-55033106D01*
X181341350Y-55013968D01*
X181355369Y-54998498D01*
X181402806Y-54986159D01*
X181464666Y-54978263D01*
X181525543Y-54970483D01*
X181569689Y-54961444D01*
X181588203Y-54953007D01*
X181588310Y-54952426D01*
X181573448Y-54937995D01*
X181537191Y-54921002D01*
X181532456Y-54919302D01*
X181494078Y-54902285D01*
X181487083Y-54891207D01*
X181507734Y-54888180D01*
X181552293Y-54895317D01*
X181567919Y-54899256D01*
X181618790Y-54908375D01*
X181674185Y-54906792D01*
X181747232Y-54893903D01*
X181763804Y-54890213D01*
X181826218Y-54874200D01*
X181874043Y-54858536D01*
X181897676Y-54846405D01*
X181898268Y-54845629D01*
X181919108Y-54838705D01*
X181967303Y-54833007D01*
X182034883Y-54829265D01*
X182088344Y-54828207D01*
X182168316Y-54827395D01*
X182217312Y-54825572D01*
X182239682Y-54821835D01*
X182239776Y-54815280D01*
X182221946Y-54805003D01*
X182215362Y-54801825D01*
X182187589Y-54792495D01*
X182128856Y-54775714D01*
X182042538Y-54752332D01*
X181932013Y-54723198D01*
X181800657Y-54689162D01*
X181651847Y-54651074D01*
X181488961Y-54609784D01*
X181315373Y-54566140D01*
X181134463Y-54520993D01*
X180949606Y-54475192D01*
X180764178Y-54429587D01*
X180581558Y-54385028D01*
X180405122Y-54342364D01*
X180238245Y-54302445D01*
X180113414Y-54272943D01*
X179643096Y-54166894D01*
X179203557Y-54076868D01*
X178794151Y-54002749D01*
X178414234Y-53944418D01*
X178117448Y-53907537D01*
X177996652Y-53897470D01*
X177847983Y-53890094D01*
X177678696Y-53885358D01*
X177496043Y-53883214D01*
X177307277Y-53883614D01*
X177119654Y-53886507D01*
X176940425Y-53891844D01*
X176776844Y-53899577D01*
X176636165Y-53909657D01*
X176554892Y-53918121D01*
X176446817Y-53932514D01*
X176369680Y-53945073D01*
X176324786Y-53955538D01*
X176313445Y-53963649D01*
X176316435Y-53965454D01*
X176318213Y-53972129D01*
X176288283Y-53977106D01*
X176230242Y-53979900D01*
X176206661Y-53980251D01*
X175953057Y-53996441D01*
X175708922Y-54039685D01*
X175480623Y-54108597D01*
X175338159Y-54169178D01*
X175270852Y-54202704D01*
X175218327Y-54230840D01*
X175186842Y-54250107D01*
X175180806Y-54256649D01*
X175200592Y-54258268D01*
X175247352Y-54256241D01*
X175312974Y-54251022D01*
X175354740Y-54246895D01*
X175442944Y-54239955D01*
X175551039Y-54234920D01*
X175663616Y-54232366D01*
X175741718Y-54232426D01*
X175814313Y-54233892D01*
X175861505Y-54235826D01*
X175880307Y-54238008D01*
X175867731Y-54240216D01*
X175856530Y-54240896D01*
X175792519Y-54245109D01*
X175708925Y-54251939D01*
X175612948Y-54260650D01*
X175511786Y-54270506D01*
X175412639Y-54280769D01*
X175322706Y-54290704D01*
X175249188Y-54299574D01*
X175199282Y-54306643D01*
X175183519Y-54309752D01*
X175152024Y-54331572D01*
X175121646Y-54372549D01*
X175116620Y-54382281D01*
X175098620Y-54423667D01*
X175097165Y-54446629D01*
X175007850Y-54446629D01*
X175004482Y-54426042D01*
X175024186Y-54339838D01*
X175077665Y-54252953D01*
X175093384Y-54234198D01*
X175165484Y-54172740D01*
X175271183Y-54113721D01*
X175408804Y-54057613D01*
X175576673Y-54004887D01*
X175773115Y-53956016D01*
X175996457Y-53911471D01*
X176245023Y-53871725D01*
X176492413Y-53840044D01*
X176757436Y-53812983D01*
X177000712Y-53795624D01*
X177234374Y-53787657D01*
X177470553Y-53788766D01*
G37*
D13*
%TO.C,R3*%
X171909564Y-107415000D02*
X171455436Y-107415000D01*
X171909564Y-105945000D02*
X171455436Y-105945000D01*
D11*
%TO.C,J2*%
X194715000Y-113030000D02*
X194715000Y-105410000D01*
X199795000Y-113030000D02*
X194715000Y-113030000D01*
X194715000Y-105410000D02*
X199795000Y-105410000D01*
X199795000Y-105410000D02*
X199795000Y-113030000D01*
D13*
%TO.C,R5*%
X166599436Y-121185000D02*
X167053564Y-121185000D01*
X166599436Y-122655000D02*
X167053564Y-122655000D01*
%TO.C,R4*%
X166375436Y-105945000D02*
X166829564Y-105945000D01*
X166375436Y-107415000D02*
X166829564Y-107415000D01*
%TO.C,J4*%
X187955000Y-76920000D02*
X198125000Y-76920000D01*
X187955000Y-77770000D02*
X187955000Y-76920000D01*
X187955000Y-81290000D02*
X187955000Y-82140000D01*
X187955000Y-82140000D02*
X190280000Y-82140000D01*
X190280000Y-82140000D02*
X190280000Y-84530000D01*
X198125000Y-76920000D02*
X198125000Y-77770000D01*
X198125000Y-81290000D02*
X198125000Y-82140000D01*
X198125000Y-82140000D02*
X195800000Y-82140000D01*
%TO.C,RN1*%
X180790000Y-108715000D02*
X182890000Y-108715000D01*
X180790000Y-103375000D02*
X182890000Y-103375000D01*
%TO.C,R6*%
X166599436Y-117375000D02*
X167053564Y-117375000D01*
X166599436Y-118845000D02*
X167053564Y-118845000D01*
%TO.C,RN2*%
X188224000Y-119606000D02*
X186124000Y-119606000D01*
X188224000Y-124946000D02*
X186124000Y-124946000D01*
D14*
%TO.C,Q2*%
X98130000Y-98140000D02*
X98430000Y-98140000D01*
X104760000Y-98180000D02*
X104760000Y-97680000D01*
X105070000Y-98480000D02*
X104760000Y-98180000D01*
X98130000Y-98540000D02*
X98130000Y-98140000D01*
X105070000Y-98860000D02*
X105070000Y-98480000D01*
X98130000Y-104260000D02*
X98130000Y-104560000D01*
X105070000Y-104560000D02*
X105070000Y-104260000D01*
X104770000Y-104560000D02*
X105070000Y-104560000D01*
X98130000Y-104560000D02*
X98530000Y-104560000D01*
%TO.C,D1*%
X99350000Y-110360000D02*
X99350000Y-110760000D01*
X99350000Y-110360000D02*
X99750000Y-110360000D01*
X99350000Y-113160000D02*
X99350000Y-112760000D01*
X99350000Y-113160000D02*
X99750000Y-113160000D01*
X100159820Y-110360460D02*
X100159820Y-110825280D01*
X100159820Y-110825280D02*
X100236020Y-110825280D01*
X100159820Y-112702340D02*
X100236020Y-112702340D01*
X100159820Y-113162080D02*
X100159820Y-112702340D01*
X100236020Y-110360460D02*
X100159820Y-110360460D01*
X100236020Y-110825280D02*
X100236020Y-110360460D01*
X100236020Y-112702340D02*
X100236020Y-113162080D01*
X100236020Y-113162080D02*
X100159820Y-113162080D01*
X103850000Y-110360000D02*
X103450000Y-110360000D01*
X103850000Y-110360000D02*
X103850000Y-110760000D01*
X103850000Y-113160000D02*
X103450000Y-113160000D01*
X103850000Y-113160000D02*
X103850000Y-112760000D01*
D13*
%TO.C,C2*%
X102335000Y-72531248D02*
X102335000Y-73053752D01*
X100865000Y-72531248D02*
X100865000Y-73053752D01*
%TO.C,R1*%
X112295000Y-95207064D02*
X112295000Y-94752936D01*
X113765000Y-95207064D02*
X113765000Y-94752936D01*
D11*
%TO.C,A1*%
X137146000Y-78824680D02*
X180326000Y-78824680D01*
X137149640Y-85809680D02*
X142864640Y-85809680D01*
X137149640Y-99144680D02*
X137149640Y-78824680D01*
X137149640Y-99144680D02*
X180329640Y-99144680D01*
X142864640Y-85809680D02*
X142864640Y-92159680D01*
X142864640Y-92159680D02*
X137149640Y-92159680D01*
X180329640Y-99144680D02*
X180329640Y-78824680D01*
X177789640Y-77554680D02*
G75*
G03*
X177789640Y-77554680I-635000J0D01*
G01*
D13*
%TO.C,TP3*%
X110920000Y-104775000D02*
G75*
G03*
X110920000Y-104775000I-1700000J0D01*
G01*
D15*
%TO.C,J5*%
X108000000Y-127080000D02*
X95200000Y-127080000D01*
X108000000Y-122080000D02*
X108000000Y-127080000D01*
X108000000Y-122080000D02*
X95200000Y-122080000D01*
X108000000Y-121208000D02*
X108000000Y-122080000D01*
X95200000Y-127080000D02*
X95200000Y-122080000D01*
X95200000Y-122080000D02*
X95200000Y-121208000D01*
D10*
X104700000Y-115880000D02*
G75*
G03*
X104700000Y-115880000I-100000J0D01*
G01*
D13*
%TO.C,C5*%
X150595000Y-69821248D02*
X150595000Y-70343752D01*
X149125000Y-69821248D02*
X149125000Y-70343752D01*
D14*
%TO.C,SW1*%
X182440000Y-113520000D02*
X173240000Y-113520000D01*
X173240000Y-113520000D02*
X173240000Y-126920000D01*
X182440000Y-126920000D02*
X182440000Y-113520000D01*
D13*
%TO.C,J3*%
X187955000Y-89620000D02*
X198125000Y-89620000D01*
X187955000Y-90470000D02*
X187955000Y-89620000D01*
X187955000Y-93990000D02*
X187955000Y-94840000D01*
X187955000Y-94840000D02*
X190280000Y-94840000D01*
X190280000Y-94840000D02*
X190280000Y-97230000D01*
X198125000Y-89620000D02*
X198125000Y-90470000D01*
X198125000Y-93990000D02*
X198125000Y-94840000D01*
X198125000Y-94840000D02*
X195800000Y-94840000D01*
%TO.C,C7*%
X159243752Y-102335000D02*
X158721248Y-102335000D01*
X159243752Y-100865000D02*
X158721248Y-100865000D01*
D15*
%TO.C,PS1*%
X127335000Y-68120000D02*
X127335000Y-74120000D01*
X127335000Y-68120000D02*
X128471000Y-68120000D01*
X127335000Y-74120000D02*
X146985000Y-74120000D01*
X145859000Y-68120000D02*
X146985000Y-68120000D01*
X146985000Y-74120000D02*
X146985000Y-68120000D01*
D10*
X126760000Y-69020000D02*
G75*
G03*
X126760000Y-69020000I-100000J0D01*
G01*
D13*
%TO.C,C3*%
X106145000Y-72531248D02*
X106145000Y-73053752D01*
X104675000Y-72531248D02*
X104675000Y-73053752D01*
%TO.C,C10*%
X186884748Y-115987000D02*
X187407252Y-115987000D01*
X186884748Y-117457000D02*
X187407252Y-117457000D01*
D14*
%TO.C,Q1*%
X187810000Y-106955000D02*
X188110000Y-106955000D01*
X189085000Y-106955000D02*
X189410000Y-106655000D01*
X187810000Y-106655000D02*
X187810000Y-106955000D01*
X189410000Y-106655000D02*
X189810000Y-106655000D01*
X187810000Y-104805000D02*
X187810000Y-104505000D01*
X189410000Y-104780000D02*
X189410000Y-104505000D01*
X187810000Y-104505000D02*
X188035000Y-104505000D01*
X189410000Y-104505000D02*
X189160000Y-104505000D01*
D13*
%TO.C,R2*%
X108627936Y-93245000D02*
X109082064Y-93245000D01*
X108627936Y-94715000D02*
X109082064Y-94715000D01*
%TO.C,C1*%
X104982918Y-59925000D02*
X106232918Y-59925000D01*
X105607918Y-59300000D02*
X105607918Y-60550000D01*
X111800000Y-57170000D02*
X111800000Y-69830000D01*
X111840000Y-57170000D02*
X111840000Y-69830000D01*
X111880000Y-57170000D02*
X111880000Y-69830000D01*
X111920000Y-57171000D02*
X111920000Y-69829000D01*
X111960000Y-57172000D02*
X111960000Y-69828000D01*
X112000000Y-57173000D02*
X112000000Y-69827000D01*
X112040000Y-57174000D02*
X112040000Y-69826000D01*
X112080000Y-57176000D02*
X112080000Y-69824000D01*
X112120000Y-57178000D02*
X112120000Y-69822000D01*
X112160000Y-57180000D02*
X112160000Y-69820000D01*
X112200000Y-57182000D02*
X112200000Y-69818000D01*
X112240000Y-57185000D02*
X112240000Y-69815000D01*
X112280000Y-57188000D02*
X112280000Y-69812000D01*
X112320000Y-57191000D02*
X112320000Y-69809000D01*
X112360000Y-57194000D02*
X112360000Y-69806000D01*
X112400000Y-57198000D02*
X112400000Y-69802000D01*
X112440000Y-57202000D02*
X112440000Y-69798000D01*
X112480000Y-57206000D02*
X112480000Y-69794000D01*
X112521000Y-57210000D02*
X112521000Y-69790000D01*
X112561000Y-57215000D02*
X112561000Y-69785000D01*
X112601000Y-57220000D02*
X112601000Y-69780000D01*
X112641000Y-57225000D02*
X112641000Y-69775000D01*
X112681000Y-57231000D02*
X112681000Y-69769000D01*
X112721000Y-57236000D02*
X112721000Y-69764000D01*
X112761000Y-57242000D02*
X112761000Y-69758000D01*
X112801000Y-57248000D02*
X112801000Y-69752000D01*
X112841000Y-57255000D02*
X112841000Y-69745000D01*
X112881000Y-57262000D02*
X112881000Y-62060000D01*
X112881000Y-64940000D02*
X112881000Y-69738000D01*
X112921000Y-57269000D02*
X112921000Y-62060000D01*
X112921000Y-64940000D02*
X112921000Y-69731000D01*
X112961000Y-57276000D02*
X112961000Y-62060000D01*
X112961000Y-64940000D02*
X112961000Y-69724000D01*
X113001000Y-57284000D02*
X113001000Y-62060000D01*
X113001000Y-64940000D02*
X113001000Y-69716000D01*
X113041000Y-57291000D02*
X113041000Y-62060000D01*
X113041000Y-64940000D02*
X113041000Y-69709000D01*
X113081000Y-57299000D02*
X113081000Y-62060000D01*
X113081000Y-64940000D02*
X113081000Y-69701000D01*
X113121000Y-57308000D02*
X113121000Y-62060000D01*
X113121000Y-64940000D02*
X113121000Y-69692000D01*
X113161000Y-57316000D02*
X113161000Y-62060000D01*
X113161000Y-64940000D02*
X113161000Y-69684000D01*
X113201000Y-57325000D02*
X113201000Y-62060000D01*
X113201000Y-64940000D02*
X113201000Y-69675000D01*
X113241000Y-57334000D02*
X113241000Y-62060000D01*
X113241000Y-64940000D02*
X113241000Y-69666000D01*
X113281000Y-57344000D02*
X113281000Y-62060000D01*
X113281000Y-64940000D02*
X113281000Y-69656000D01*
X113321000Y-57354000D02*
X113321000Y-62060000D01*
X113321000Y-64940000D02*
X113321000Y-69646000D01*
X113361000Y-57363000D02*
X113361000Y-62060000D01*
X113361000Y-64940000D02*
X113361000Y-69637000D01*
X113401000Y-57374000D02*
X113401000Y-62060000D01*
X113401000Y-64940000D02*
X113401000Y-69626000D01*
X113441000Y-57384000D02*
X113441000Y-62060000D01*
X113441000Y-64940000D02*
X113441000Y-69616000D01*
X113481000Y-57395000D02*
X113481000Y-62060000D01*
X113481000Y-64940000D02*
X113481000Y-69605000D01*
X113521000Y-57406000D02*
X113521000Y-62060000D01*
X113521000Y-64940000D02*
X113521000Y-69594000D01*
X113561000Y-57417000D02*
X113561000Y-62060000D01*
X113561000Y-64940000D02*
X113561000Y-69583000D01*
X113601000Y-57429000D02*
X113601000Y-62060000D01*
X113601000Y-64940000D02*
X113601000Y-69571000D01*
X113641000Y-57441000D02*
X113641000Y-62060000D01*
X113641000Y-64940000D02*
X113641000Y-69559000D01*
X113681000Y-57453000D02*
X113681000Y-62060000D01*
X113681000Y-64940000D02*
X113681000Y-69547000D01*
X113721000Y-57466000D02*
X113721000Y-62060000D01*
X113721000Y-64940000D02*
X113721000Y-69534000D01*
X113761000Y-57479000D02*
X113761000Y-62060000D01*
X113761000Y-64940000D02*
X113761000Y-69521000D01*
X113801000Y-57492000D02*
X113801000Y-62060000D01*
X113801000Y-64940000D02*
X113801000Y-69508000D01*
X113841000Y-57505000D02*
X113841000Y-62060000D01*
X113841000Y-64940000D02*
X113841000Y-69495000D01*
X113881000Y-57519000D02*
X113881000Y-62060000D01*
X113881000Y-64940000D02*
X113881000Y-69481000D01*
X113921000Y-57533000D02*
X113921000Y-62060000D01*
X113921000Y-64940000D02*
X113921000Y-69467000D01*
X113961000Y-57547000D02*
X113961000Y-62060000D01*
X113961000Y-64940000D02*
X113961000Y-69453000D01*
X114001000Y-57561000D02*
X114001000Y-62060000D01*
X114001000Y-64940000D02*
X114001000Y-69439000D01*
X114041000Y-57576000D02*
X114041000Y-62060000D01*
X114041000Y-64940000D02*
X114041000Y-69424000D01*
X114081000Y-57592000D02*
X114081000Y-62060000D01*
X114081000Y-64940000D02*
X114081000Y-69408000D01*
X114121000Y-57607000D02*
X114121000Y-62060000D01*
X114121000Y-64940000D02*
X114121000Y-69393000D01*
X114161000Y-57623000D02*
X114161000Y-62060000D01*
X114161000Y-64940000D02*
X114161000Y-69377000D01*
X114201000Y-57639000D02*
X114201000Y-62060000D01*
X114201000Y-64940000D02*
X114201000Y-69361000D01*
X114241000Y-57655000D02*
X114241000Y-62060000D01*
X114241000Y-64940000D02*
X114241000Y-69345000D01*
X114281000Y-57672000D02*
X114281000Y-62060000D01*
X114281000Y-64940000D02*
X114281000Y-69328000D01*
X114321000Y-57689000D02*
X114321000Y-62060000D01*
X114321000Y-64940000D02*
X114321000Y-69311000D01*
X114361000Y-57707000D02*
X114361000Y-62060000D01*
X114361000Y-64940000D02*
X114361000Y-69293000D01*
X114401000Y-57724000D02*
X114401000Y-62060000D01*
X114401000Y-64940000D02*
X114401000Y-69276000D01*
X114441000Y-57742000D02*
X114441000Y-62060000D01*
X114441000Y-64940000D02*
X114441000Y-69258000D01*
X114481000Y-57761000D02*
X114481000Y-62060000D01*
X114481000Y-64940000D02*
X114481000Y-69239000D01*
X114521000Y-57779000D02*
X114521000Y-62060000D01*
X114521000Y-64940000D02*
X114521000Y-69221000D01*
X114561000Y-57798000D02*
X114561000Y-62060000D01*
X114561000Y-64940000D02*
X114561000Y-69202000D01*
X114601000Y-57818000D02*
X114601000Y-62060000D01*
X114601000Y-64940000D02*
X114601000Y-69182000D01*
X114641000Y-57838000D02*
X114641000Y-62060000D01*
X114641000Y-64940000D02*
X114641000Y-69162000D01*
X114681000Y-57858000D02*
X114681000Y-62060000D01*
X114681000Y-64940000D02*
X114681000Y-69142000D01*
X114721000Y-57878000D02*
X114721000Y-62060000D01*
X114721000Y-64940000D02*
X114721000Y-69122000D01*
X114761000Y-57899000D02*
X114761000Y-62060000D01*
X114761000Y-64940000D02*
X114761000Y-69101000D01*
X114801000Y-57920000D02*
X114801000Y-62060000D01*
X114801000Y-64940000D02*
X114801000Y-69080000D01*
X114841000Y-57942000D02*
X114841000Y-62060000D01*
X114841000Y-64940000D02*
X114841000Y-69058000D01*
X114881000Y-57964000D02*
X114881000Y-62060000D01*
X114881000Y-64940000D02*
X114881000Y-69036000D01*
X114921000Y-57986000D02*
X114921000Y-62060000D01*
X114921000Y-64940000D02*
X114921000Y-69014000D01*
X114961000Y-58009000D02*
X114961000Y-62060000D01*
X114961000Y-64940000D02*
X114961000Y-68991000D01*
X115001000Y-58032000D02*
X115001000Y-62060000D01*
X115001000Y-64940000D02*
X115001000Y-68968000D01*
X115041000Y-58055000D02*
X115041000Y-62060000D01*
X115041000Y-64940000D02*
X115041000Y-68945000D01*
X115081000Y-58079000D02*
X115081000Y-62060000D01*
X115081000Y-64940000D02*
X115081000Y-68921000D01*
X115121000Y-58103000D02*
X115121000Y-62060000D01*
X115121000Y-64940000D02*
X115121000Y-68897000D01*
X115161000Y-58128000D02*
X115161000Y-62060000D01*
X115161000Y-64940000D02*
X115161000Y-68872000D01*
X115201000Y-58153000D02*
X115201000Y-62060000D01*
X115201000Y-64940000D02*
X115201000Y-68847000D01*
X115241000Y-58178000D02*
X115241000Y-62060000D01*
X115241000Y-64940000D02*
X115241000Y-68822000D01*
X115281000Y-58204000D02*
X115281000Y-62060000D01*
X115281000Y-64940000D02*
X115281000Y-68796000D01*
X115321000Y-58230000D02*
X115321000Y-62060000D01*
X115321000Y-64940000D02*
X115321000Y-68770000D01*
X115361000Y-58257000D02*
X115361000Y-62060000D01*
X115361000Y-64940000D02*
X115361000Y-68743000D01*
X115401000Y-58284000D02*
X115401000Y-62060000D01*
X115401000Y-64940000D02*
X115401000Y-68716000D01*
X115441000Y-58312000D02*
X115441000Y-62060000D01*
X115441000Y-64940000D02*
X115441000Y-68688000D01*
X115481000Y-58340000D02*
X115481000Y-62060000D01*
X115481000Y-64940000D02*
X115481000Y-68660000D01*
X115521000Y-58369000D02*
X115521000Y-62060000D01*
X115521000Y-64940000D02*
X115521000Y-68631000D01*
X115561000Y-58398000D02*
X115561000Y-62060000D01*
X115561000Y-64940000D02*
X115561000Y-68602000D01*
X115601000Y-58427000D02*
X115601000Y-62060000D01*
X115601000Y-64940000D02*
X115601000Y-68573000D01*
X115641000Y-58457000D02*
X115641000Y-62060000D01*
X115641000Y-64940000D02*
X115641000Y-68543000D01*
X115681000Y-58488000D02*
X115681000Y-62060000D01*
X115681000Y-64940000D02*
X115681000Y-68512000D01*
X115721000Y-58518000D02*
X115721000Y-62060000D01*
X115721000Y-64940000D02*
X115721000Y-68482000D01*
X115761000Y-58550000D02*
X115761000Y-68450000D01*
X115801000Y-58582000D02*
X115801000Y-68418000D01*
X115841000Y-58615000D02*
X115841000Y-68385000D01*
X115881000Y-58648000D02*
X115881000Y-68352000D01*
X115921000Y-58681000D02*
X115921000Y-68319000D01*
X115961000Y-58715000D02*
X115961000Y-68285000D01*
X116001000Y-58750000D02*
X116001000Y-68250000D01*
X116041000Y-58786000D02*
X116041000Y-68214000D01*
X116081000Y-58822000D02*
X116081000Y-68178000D01*
X116121000Y-58858000D02*
X116121000Y-68142000D01*
X116161000Y-58895000D02*
X116161000Y-68105000D01*
X116201000Y-58933000D02*
X116201000Y-68067000D01*
X116241000Y-58972000D02*
X116241000Y-68028000D01*
X116281000Y-59011000D02*
X116281000Y-67989000D01*
X116321000Y-59051000D02*
X116321000Y-67949000D01*
X116361000Y-59092000D02*
X116361000Y-67908000D01*
X116401000Y-59133000D02*
X116401000Y-67867000D01*
X116441000Y-59175000D02*
X116441000Y-67825000D01*
X116481000Y-59218000D02*
X116481000Y-67782000D01*
X116521000Y-59262000D02*
X116521000Y-67738000D01*
X116561000Y-59306000D02*
X116561000Y-67694000D01*
X116601000Y-59352000D02*
X116601000Y-67648000D01*
X116641000Y-59398000D02*
X116641000Y-67602000D01*
X116681000Y-59445000D02*
X116681000Y-67555000D01*
X116721000Y-59493000D02*
X116721000Y-67507000D01*
X116761000Y-59543000D02*
X116761000Y-67457000D01*
X116801000Y-59593000D02*
X116801000Y-67407000D01*
X116841000Y-59644000D02*
X116841000Y-67356000D01*
X116881000Y-59696000D02*
X116881000Y-67304000D01*
X116921000Y-59750000D02*
X116921000Y-67250000D01*
X116961000Y-59804000D02*
X116961000Y-67196000D01*
X117001000Y-59860000D02*
X117001000Y-67140000D01*
X117041000Y-59917000D02*
X117041000Y-67083000D01*
X117081000Y-59976000D02*
X117081000Y-67024000D01*
X117121000Y-60036000D02*
X117121000Y-66964000D01*
X117161000Y-60098000D02*
X117161000Y-66902000D01*
X117201000Y-60161000D02*
X117201000Y-66839000D01*
X117241000Y-60225000D02*
X117241000Y-66775000D01*
X117281000Y-60292000D02*
X117281000Y-66708000D01*
X117321000Y-60360000D02*
X117321000Y-66640000D01*
X117361000Y-60431000D02*
X117361000Y-66569000D01*
X117401000Y-60504000D02*
X117401000Y-66496000D01*
X117441000Y-60579000D02*
X117441000Y-66421000D01*
X117481000Y-60656000D02*
X117481000Y-66344000D01*
X117521000Y-60736000D02*
X117521000Y-66264000D01*
X117561000Y-60819000D02*
X117561000Y-66181000D01*
X117601000Y-60906000D02*
X117601000Y-66094000D01*
X117641000Y-60996000D02*
X117641000Y-66004000D01*
X117681000Y-61090000D02*
X117681000Y-65910000D01*
X117721000Y-61188000D02*
X117721000Y-65812000D01*
X117761000Y-61291000D02*
X117761000Y-65709000D01*
X117801000Y-61400000D02*
X117801000Y-65600000D01*
X117841000Y-61516000D02*
X117841000Y-65484000D01*
X117881000Y-61639000D02*
X117881000Y-65361000D01*
X117921000Y-61772000D02*
X117921000Y-65228000D01*
X117961000Y-61917000D02*
X117961000Y-65083000D01*
X118001000Y-62078000D02*
X118001000Y-64922000D01*
X118041000Y-62259000D02*
X118041000Y-64741000D01*
X118081000Y-62472000D02*
X118081000Y-64528000D01*
X118121000Y-62743000D02*
X118121000Y-64257000D01*
X118161000Y-63183000D02*
X118161000Y-63817000D01*
X118170000Y-63500000D02*
G75*
G03*
X118170000Y-63500000I-6370000J0D01*
G01*
%TO.C,C11*%
X166595248Y-113565000D02*
X167117752Y-113565000D01*
X166595248Y-115035000D02*
X167117752Y-115035000D01*
%TO.C,C8*%
X166863752Y-102335000D02*
X166341248Y-102335000D01*
X166863752Y-100865000D02*
X166341248Y-100865000D01*
%TO.C,J6*%
X147800000Y-129720000D02*
X147800000Y-115020000D01*
X157000000Y-129720000D02*
X147800000Y-129720000D01*
X157000000Y-120920000D02*
X157000000Y-129720000D01*
X147600000Y-115870000D02*
X147600000Y-114820000D01*
X147800000Y-115020000D02*
X150400000Y-115020000D01*
X154300000Y-115020000D02*
X157000000Y-115020000D01*
X157000000Y-115020000D02*
X157000000Y-116920000D01*
X148650000Y-114820000D02*
X147600000Y-114820000D01*
%TO.C,C9*%
X186884748Y-112977000D02*
X187407252Y-112977000D01*
X186884748Y-114447000D02*
X187407252Y-114447000D01*
D14*
%TO.C,J1*%
X91330000Y-54520000D02*
X91330000Y-55020000D01*
X91330000Y-54520000D02*
X91830000Y-54520000D01*
X91330000Y-61820000D02*
X91330000Y-62320000D01*
X91330000Y-62320000D02*
X91830000Y-62320000D01*
X101708000Y-61840000D02*
X101708000Y-62340000D01*
X101708000Y-62340000D02*
X101208000Y-62340000D01*
X101718000Y-54520000D02*
X101218000Y-54520000D01*
X101718000Y-54520000D02*
X101718000Y-55020000D01*
D13*
%TO.C,C6*%
X171421248Y-100865000D02*
X171943752Y-100865000D01*
X171421248Y-102335000D02*
X171943752Y-102335000D01*
%TO.C,TP2*%
X94410000Y-79375000D02*
G75*
G03*
X94410000Y-79375000I-1700000J0D01*
G01*
%TO.C,TP4*%
X104570000Y-90170000D02*
G75*
G03*
X104570000Y-90170000I-1700000J0D01*
G01*
%TO.C,C4*%
X125195000Y-69821248D02*
X125195000Y-70343752D01*
X123725000Y-69821248D02*
X123725000Y-70343752D01*
%TO.C,TP1*%
X103300000Y-79375000D02*
G75*
G03*
X103300000Y-79375000I-1700000J0D01*
G01*
%TD*%
M02*
