%TF.GenerationSoftware,KiCad,Pcbnew,7.0.8*%
%TF.CreationDate,2023-10-18T14:23:47-04:00*%
%TF.ProjectId,ball_heater_controller,62616c6c-5f68-4656-9174-65725f636f6e,rev?*%
%TF.SameCoordinates,Original*%
%TF.FileFunction,Soldermask,Bot*%
%TF.FilePolarity,Negative*%
%FSLAX46Y46*%
G04 Gerber Fmt 4.6, Leading zero omitted, Abs format (unit mm)*
G04 Created by KiCad (PCBNEW 7.0.8) date 2023-10-18 14:23:47*
%MOMM*%
%LPD*%
G01*
G04 APERTURE LIST*
G04 Aperture macros list*
%AMRoundRect*
0 Rectangle with rounded corners*
0 $1 Rounding radius*
0 $2 $3 $4 $5 $6 $7 $8 $9 X,Y pos of 4 corners*
0 Add a 4 corners polygon primitive as box body*
4,1,4,$2,$3,$4,$5,$6,$7,$8,$9,$2,$3,0*
0 Add four circle primitives for the rounded corners*
1,1,$1+$1,$2,$3*
1,1,$1+$1,$4,$5*
1,1,$1+$1,$6,$7*
1,1,$1+$1,$8,$9*
0 Add four rect primitives between the rounded corners*
20,1,$1+$1,$2,$3,$4,$5,0*
20,1,$1+$1,$4,$5,$6,$7,0*
20,1,$1+$1,$6,$7,$8,$9,0*
20,1,$1+$1,$8,$9,$2,$3,0*%
G04 Aperture macros list end*
%ADD10C,3.700000*%
%ADD11O,1.524000X2.540000*%
%ADD12C,3.000000*%
%ADD13RoundRect,0.102000X0.825000X0.825000X-0.825000X0.825000X-0.825000X-0.825000X0.825000X-0.825000X0*%
%ADD14C,1.854000*%
%ADD15C,4.220000*%
%ADD16C,1.800000*%
%ADD17RoundRect,0.102000X-0.754000X-0.754000X0.754000X-0.754000X0.754000X0.754000X-0.754000X0.754000X0*%
%ADD18C,1.712000*%
%ADD19R,2.400000X2.400000*%
%ADD20C,2.400000*%
%ADD21R,3.500000X3.500000*%
%ADD22RoundRect,0.750000X1.000000X-0.750000X1.000000X0.750000X-1.000000X0.750000X-1.000000X-0.750000X0*%
%ADD23RoundRect,0.875000X0.875000X-0.875000X0.875000X0.875000X-0.875000X0.875000X-0.875000X-0.875000X0*%
%ADD24R,2.200000X2.200000*%
%ADD25C,2.300000*%
G04 APERTURE END LIST*
D10*
%TO.C,H1*%
X81280000Y-121920000D03*
%TD*%
D11*
%TO.C,A1*%
X142240000Y-96520000D03*
X144780000Y-96520000D03*
X147320000Y-96520000D03*
X149860000Y-96520000D03*
X152400000Y-96520000D03*
X154940000Y-96520000D03*
X157480000Y-96520000D03*
X162560000Y-96520000D03*
X165100000Y-96520000D03*
X167640000Y-96520000D03*
X170180000Y-96520000D03*
X172720000Y-96520000D03*
X175260000Y-96520000D03*
X175260000Y-81280000D03*
X172720000Y-81280000D03*
X170180000Y-81280000D03*
X167640000Y-81280000D03*
X165100000Y-81280000D03*
X162560000Y-81280000D03*
X160020000Y-81280000D03*
X157480000Y-81280000D03*
X154940000Y-81280000D03*
X152400000Y-81280000D03*
X149860000Y-81280000D03*
X147320000Y-81280000D03*
X144780000Y-81280000D03*
X142240000Y-81280000D03*
X160020000Y-96520000D03*
%TD*%
D12*
%TO.C,TP3*%
X109220000Y-104775000D03*
%TD*%
D13*
%TO.C,J5*%
X103300000Y-119380000D03*
D14*
X102675000Y-117430000D03*
X99900000Y-119380000D03*
X100525000Y-117430000D03*
D15*
X107850000Y-118880000D03*
X95350000Y-118880000D03*
%TD*%
D16*
%TO.C,SW1*%
X175340000Y-121920000D03*
X180340000Y-121920000D03*
X177840000Y-121920000D03*
X175340000Y-115670000D03*
X180340000Y-115670000D03*
%TD*%
D17*
%TO.C,PS1*%
X129545000Y-69020000D03*
D18*
X132085000Y-69020000D03*
X139705000Y-69020000D03*
X144785000Y-69020000D03*
%TD*%
D19*
%TO.C,C1*%
X109300000Y-63500000D03*
D20*
X114300000Y-63500000D03*
%TD*%
D21*
%TO.C,J6*%
X152400000Y-115920000D03*
D22*
X152400000Y-121920000D03*
D23*
X157100000Y-118920000D03*
%TD*%
D10*
%TO.C,H4*%
X198120000Y-55880000D03*
%TD*%
%TO.C,H3*%
X81280000Y-55880000D03*
%TD*%
D24*
%TO.C,J1*%
X93980000Y-58420000D03*
D25*
X99060000Y-58420000D03*
%TD*%
D12*
%TO.C,TP2*%
X92710000Y-79375000D03*
%TD*%
%TO.C,TP4*%
X102870000Y-90170000D03*
%TD*%
D10*
%TO.C,H2*%
X198120000Y-121920000D03*
%TD*%
D12*
%TO.C,TP1*%
X101600000Y-79375000D03*
%TD*%
M02*
