%TF.GenerationSoftware,KiCad,Pcbnew,7.0.8*%
%TF.CreationDate,2023-10-18T14:23:47-04:00*%
%TF.ProjectId,ball_heater_controller,62616c6c-5f68-4656-9174-65725f636f6e,rev?*%
%TF.SameCoordinates,Original*%
%TF.FileFunction,Copper,L2,Bot*%
%TF.FilePolarity,Positive*%
%FSLAX46Y46*%
G04 Gerber Fmt 4.6, Leading zero omitted, Abs format (unit mm)*
G04 Created by KiCad (PCBNEW 7.0.8) date 2023-10-18 14:23:47*
%MOMM*%
%LPD*%
G01*
G04 APERTURE LIST*
G04 Aperture macros list*
%AMRoundRect*
0 Rectangle with rounded corners*
0 $1 Rounding radius*
0 $2 $3 $4 $5 $6 $7 $8 $9 X,Y pos of 4 corners*
0 Add a 4 corners polygon primitive as box body*
4,1,4,$2,$3,$4,$5,$6,$7,$8,$9,$2,$3,0*
0 Add four circle primitives for the rounded corners*
1,1,$1+$1,$2,$3*
1,1,$1+$1,$4,$5*
1,1,$1+$1,$6,$7*
1,1,$1+$1,$8,$9*
0 Add four rect primitives between the rounded corners*
20,1,$1+$1,$2,$3,$4,$5,0*
20,1,$1+$1,$4,$5,$6,$7,0*
20,1,$1+$1,$6,$7,$8,$9,0*
20,1,$1+$1,$8,$9,$2,$3,0*%
G04 Aperture macros list end*
%TA.AperFunction,ComponentPad*%
%ADD10O,1.524000X2.540000*%
%TD*%
%TA.AperFunction,ComponentPad*%
%ADD11C,3.000000*%
%TD*%
%TA.AperFunction,ComponentPad*%
%ADD12R,1.650000X1.650000*%
%TD*%
%TA.AperFunction,ComponentPad*%
%ADD13C,1.650000*%
%TD*%
%TA.AperFunction,ComponentPad*%
%ADD14C,4.016000*%
%TD*%
%TA.AperFunction,ComponentPad*%
%ADD15C,1.800000*%
%TD*%
%TA.AperFunction,ComponentPad*%
%ADD16R,1.508000X1.508000*%
%TD*%
%TA.AperFunction,ComponentPad*%
%ADD17C,1.508000*%
%TD*%
%TA.AperFunction,ComponentPad*%
%ADD18R,2.400000X2.400000*%
%TD*%
%TA.AperFunction,ComponentPad*%
%ADD19C,2.400000*%
%TD*%
%TA.AperFunction,ComponentPad*%
%ADD20R,3.500000X3.500000*%
%TD*%
%TA.AperFunction,ComponentPad*%
%ADD21RoundRect,0.750000X1.000000X-0.750000X1.000000X0.750000X-1.000000X0.750000X-1.000000X-0.750000X0*%
%TD*%
%TA.AperFunction,ComponentPad*%
%ADD22RoundRect,0.875000X0.875000X-0.875000X0.875000X0.875000X-0.875000X0.875000X-0.875000X-0.875000X0*%
%TD*%
%TA.AperFunction,ComponentPad*%
%ADD23R,2.200000X2.200000*%
%TD*%
%TA.AperFunction,ComponentPad*%
%ADD24C,2.300000*%
%TD*%
%TA.AperFunction,ViaPad*%
%ADD25C,0.800000*%
%TD*%
%TA.AperFunction,Conductor*%
%ADD26C,0.254000*%
%TD*%
%TA.AperFunction,Conductor*%
%ADD27C,0.762000*%
%TD*%
G04 APERTURE END LIST*
D10*
%TO.P,A1,0*%
%TO.N,N/C*%
X142240000Y-96520000D03*
%TO.P,A1,3,RESET*%
%TO.N,unconnected-(A1-RESET-Pad3)*%
X144780000Y-96520000D03*
%TO.P,A1,4,3V3*%
%TO.N,+3V3*%
X147320000Y-96520000D03*
%TO.P,A1,5,+5V*%
%TO.N,+5V*%
X149860000Y-96520000D03*
%TO.P,A1,6,GND*%
%TO.N,GND*%
X152400000Y-96520000D03*
%TO.P,A1,7,GND*%
X154940000Y-96520000D03*
%TO.P,A1,8,VIN*%
%TO.N,+12V*%
X157480000Y-96520000D03*
%TO.P,A1,9,A0*%
%TO.N,/A0*%
X162560000Y-96520000D03*
%TO.P,A1,10,A1*%
%TO.N,/A1*%
X165100000Y-96520000D03*
%TO.P,A1,11,A2*%
%TO.N,/A2*%
X167640000Y-96520000D03*
%TO.P,A1,12,A3*%
%TO.N,/A3*%
X170180000Y-96520000D03*
%TO.P,A1,13,A4/SDA*%
%TO.N,/A4(SDA)*%
X172720000Y-96520000D03*
%TO.P,A1,14,A5/SCL*%
%TO.N,/A5(SCL)*%
X175260000Y-96520000D03*
%TO.P,A1,15,D0/RX*%
%TO.N,/0(Rx)*%
X175260000Y-81280000D03*
%TO.P,A1,16,D1/TX*%
%TO.N,/1(Tx)*%
X172720000Y-81280000D03*
%TO.P,A1,17,D2*%
%TO.N,/2*%
X170180000Y-81280000D03*
%TO.P,A1,18,D3*%
%TO.N,/3(\u002A\u002A)*%
X167640000Y-81280000D03*
%TO.P,A1,19,D4*%
%TO.N,/4*%
X165100000Y-81280000D03*
%TO.P,A1,20,D5*%
%TO.N,/5(\u002A\u002A)*%
X162560000Y-81280000D03*
%TO.P,A1,21,D6*%
%TO.N,/6(\u002A\u002A)*%
X160020000Y-81280000D03*
%TO.P,A1,22,D7*%
%TO.N,/7*%
X157480000Y-81280000D03*
%TO.P,A1,23,D8*%
%TO.N,/8*%
X154940000Y-81280000D03*
%TO.P,A1,24,D9*%
%TO.N,/9(\u002A\u002A)*%
X152400000Y-81280000D03*
%TO.P,A1,25,D10*%
%TO.N,/10(\u002A\u002A{slash}SS)*%
X149860000Y-81280000D03*
%TO.P,A1,26,D11*%
%TO.N,/11(\u002A\u002A{slash}MOSI)*%
X147320000Y-81280000D03*
%TO.P,A1,27,D12*%
%TO.N,/12(MISO)*%
X144780000Y-81280000D03*
%TO.P,A1,28,D13*%
%TO.N,/13(SCK)*%
X142240000Y-81280000D03*
%TO.P,A1,30,AREF*%
%TO.N,unconnected-(A1-AREF-Pad30)*%
X160020000Y-96520000D03*
%TD*%
D11*
%TO.P,TP3,1,1*%
%TO.N,/heater_-*%
X109220000Y-104775000D03*
%TD*%
D12*
%TO.P,J5,1,1*%
%TO.N,/A3*%
X103300000Y-119380000D03*
D13*
%TO.P,J5,2,2*%
%TO.N,/heater_-*%
X102675000Y-117430000D03*
%TO.P,J5,3,3*%
%TO.N,GND*%
X99900000Y-119380000D03*
%TO.P,J5,4,4*%
%TO.N,VSS*%
X100525000Y-117430000D03*
D14*
%TO.P,J5,G1,GND*%
%TO.N,GND*%
X107850000Y-118880000D03*
%TO.P,J5,G2,GND__1*%
X95350000Y-118880000D03*
%TD*%
D15*
%TO.P,SW1,A,A*%
%TO.N,Net-(RN2A-R1.1)*%
X175340000Y-121920000D03*
%TO.P,SW1,B,B*%
%TO.N,Net-(RN2C-R3.1)*%
X180340000Y-121920000D03*
%TO.P,SW1,C,C*%
%TO.N,GND*%
X177840000Y-121920000D03*
%TO.P,SW1,S1,S1*%
X175340000Y-115670000D03*
%TO.P,SW1,S2,S2*%
%TO.N,Net-(R5-Pad2)*%
X180340000Y-115670000D03*
%TD*%
D16*
%TO.P,PS1,1,VIN*%
%TO.N,VSS*%
X129545000Y-69020000D03*
D17*
%TO.P,PS1,2,GND*%
%TO.N,GND*%
X132085000Y-69020000D03*
%TO.P,PS1,5,0V*%
X139705000Y-69020000D03*
%TO.P,PS1,7,+VO*%
%TO.N,+12V*%
X144785000Y-69020000D03*
%TD*%
D18*
%TO.P,C1,1*%
%TO.N,VSS*%
X109300000Y-63500000D03*
D19*
%TO.P,C1,2*%
%TO.N,GND*%
X114300000Y-63500000D03*
%TD*%
D20*
%TO.P,J6,1*%
%TO.N,/A2*%
X152400000Y-115920000D03*
D21*
%TO.P,J6,2*%
%TO.N,GND*%
X152400000Y-121920000D03*
D22*
%TO.P,J6,3*%
X157100000Y-118920000D03*
%TD*%
D23*
%TO.P,J1,1,Pin_1*%
%TO.N,GND*%
X93980000Y-58420000D03*
D24*
%TO.P,J1,2,Pin_2*%
%TO.N,VSS*%
X99060000Y-58420000D03*
%TD*%
D11*
%TO.P,TP2,1,1*%
%TO.N,VSS*%
X92710000Y-79375000D03*
%TD*%
%TO.P,TP4,1,1*%
%TO.N,Net-(Q2-G)*%
X102870000Y-90170000D03*
%TD*%
%TO.P,TP1,1,1*%
%TO.N,GND*%
X101600000Y-79375000D03*
%TD*%
D25*
%TO.N,/4*%
X177800000Y-114300000D03*
%TO.N,/3(\u002A\u002A)*%
X182880000Y-113284000D03*
%TO.N,/2*%
X184912000Y-116586000D03*
%TO.N,GND*%
X198755000Y-111760000D03*
X100330000Y-94615000D03*
X97790000Y-98425000D03*
X96520000Y-97155000D03*
X96520000Y-93345000D03*
X193675000Y-78105000D03*
X99060000Y-94615000D03*
X164084000Y-101092000D03*
X97790000Y-93345000D03*
X96520000Y-95885000D03*
X188183500Y-115316000D03*
X97790000Y-94615000D03*
X96520000Y-98425000D03*
X123195000Y-72195000D03*
X103505000Y-73830000D03*
X100330000Y-93345000D03*
X160456468Y-102901800D03*
X97790000Y-95885000D03*
X97790000Y-97155000D03*
X96520000Y-94615000D03*
X114300000Y-96520000D03*
X174244000Y-101092000D03*
X99060000Y-93345000D03*
X147960000Y-72195000D03*
X193675000Y-90805000D03*
%TO.N,/A2*%
X168148000Y-107696000D03*
%TO.N,/A3*%
X155448000Y-106679980D03*
%TO.N,/A5(SCL)*%
X190500000Y-105410000D03*
X185420000Y-105410000D03*
%TO.N,/SDA_3V*%
X185420000Y-106680000D03*
X191135000Y-106680000D03*
%TD*%
D26*
%TO.N,/4*%
X180300000Y-96480000D02*
X180300000Y-111800000D01*
X180300000Y-111800000D02*
X177800000Y-114300000D01*
D27*
%TO.N,+12V*%
X144785000Y-69020000D02*
X137795000Y-76010000D01*
X137795000Y-86995000D02*
X142240000Y-91440000D01*
X152400000Y-91440000D02*
X157480000Y-96520000D01*
X137795000Y-76010000D02*
X137795000Y-86995000D01*
X142240000Y-91440000D02*
X152400000Y-91440000D01*
D26*
%TO.N,/4*%
X180300000Y-96480000D02*
X165100000Y-81280000D01*
%TO.N,/3(\u002A\u002A)*%
X167640000Y-81280000D02*
X182245000Y-95885000D01*
X182245000Y-113284000D02*
X182880000Y-113284000D01*
X182245000Y-95885000D02*
X182245000Y-113284000D01*
%TO.N,/2*%
X170180000Y-81280000D02*
X184150000Y-95250000D01*
X184150000Y-95250000D02*
X184150000Y-116586000D01*
X184150000Y-116586000D02*
X184912000Y-116586000D01*
%TO.N,/A2*%
X156718000Y-110490000D02*
X152400000Y-114808000D01*
X168148000Y-107696000D02*
X167894000Y-107696000D01*
X165100000Y-110490000D02*
X156718000Y-110490000D01*
X152400000Y-114808000D02*
X152400000Y-115920000D01*
X167894000Y-107696000D02*
X165100000Y-110490000D01*
%TO.N,/A3*%
X162560000Y-104140000D02*
X157987980Y-104140000D01*
X157987980Y-104140000D02*
X155448000Y-106679980D01*
X170180000Y-96520000D02*
X162560000Y-104140000D01*
%TO.N,/A5(SCL)*%
X190500000Y-105410000D02*
X185420000Y-105410000D01*
%TO.N,/SDA_3V*%
X191135000Y-106680000D02*
X185420000Y-106680000D01*
%TD*%
%TA.AperFunction,Conductor*%
%TO.N,GND*%
G36*
X154473155Y-96306799D02*
G01*
X154432000Y-96446961D01*
X154432000Y-96593039D01*
X154473155Y-96733201D01*
X154496804Y-96770000D01*
X152843196Y-96770000D01*
X152866845Y-96733201D01*
X152908000Y-96593039D01*
X152908000Y-96446961D01*
X152866845Y-96306799D01*
X152843196Y-96270000D01*
X154496804Y-96270000D01*
X154473155Y-96306799D01*
G37*
%TD.AperFunction*%
%TA.AperFunction,Conductor*%
G36*
X198121424Y-51562566D02*
G01*
X198515507Y-51580786D01*
X198521199Y-51581312D01*
X198910507Y-51635619D01*
X198916126Y-51636669D01*
X199298757Y-51726663D01*
X199304249Y-51728226D01*
X199676965Y-51853147D01*
X199682263Y-51855200D01*
X200041866Y-52013980D01*
X200046966Y-52016519D01*
X200356885Y-52189144D01*
X200390361Y-52207790D01*
X200395232Y-52210806D01*
X200719513Y-52432943D01*
X200724072Y-52436386D01*
X200959132Y-52631576D01*
X201026474Y-52687496D01*
X201030708Y-52691356D01*
X201308643Y-52969291D01*
X201312501Y-52973522D01*
X201563611Y-53275923D01*
X201567056Y-53280486D01*
X201789193Y-53604767D01*
X201792209Y-53609638D01*
X201983474Y-53953022D01*
X201986023Y-53958141D01*
X202144794Y-54317725D01*
X202146859Y-54323053D01*
X202271771Y-54695743D01*
X202273339Y-54701254D01*
X202363328Y-55083865D01*
X202364381Y-55089497D01*
X202418685Y-55478787D01*
X202419213Y-55484492D01*
X202437434Y-55878575D01*
X202437500Y-55881439D01*
X202437500Y-121918560D01*
X202437434Y-121921424D01*
X202419213Y-122315507D01*
X202418685Y-122321212D01*
X202364381Y-122710502D01*
X202363328Y-122716134D01*
X202273339Y-123098745D01*
X202271771Y-123104256D01*
X202146859Y-123476946D01*
X202144791Y-123482282D01*
X201986028Y-123841848D01*
X201983474Y-123846977D01*
X201792209Y-124190361D01*
X201789193Y-124195232D01*
X201567056Y-124519513D01*
X201563603Y-124524086D01*
X201312503Y-124826474D01*
X201308643Y-124830708D01*
X201030708Y-125108643D01*
X201026474Y-125112503D01*
X200724086Y-125363603D01*
X200719513Y-125367056D01*
X200395232Y-125589193D01*
X200390361Y-125592209D01*
X200046977Y-125783474D01*
X200041849Y-125786027D01*
X199682282Y-125944791D01*
X199676946Y-125946859D01*
X199304256Y-126071771D01*
X199298745Y-126073339D01*
X198916134Y-126163328D01*
X198910502Y-126164381D01*
X198521212Y-126218685D01*
X198515507Y-126219213D01*
X198121424Y-126237434D01*
X198118560Y-126237500D01*
X81281440Y-126237500D01*
X81278576Y-126237434D01*
X80884492Y-126219213D01*
X80878787Y-126218685D01*
X80489497Y-126164381D01*
X80483865Y-126163328D01*
X80101254Y-126073339D01*
X80095743Y-126071771D01*
X79910824Y-126009793D01*
X79723046Y-125946856D01*
X79717725Y-125944794D01*
X79358141Y-125786023D01*
X79353022Y-125783474D01*
X79009638Y-125592209D01*
X79004767Y-125589193D01*
X78680486Y-125367056D01*
X78675923Y-125363611D01*
X78373522Y-125112501D01*
X78369291Y-125108643D01*
X78091356Y-124830708D01*
X78087496Y-124826474D01*
X78046390Y-124776972D01*
X77836386Y-124524072D01*
X77832943Y-124519513D01*
X77610806Y-124195232D01*
X77607790Y-124190361D01*
X77487110Y-123973700D01*
X77416519Y-123846966D01*
X77413980Y-123841866D01*
X77255200Y-123482263D01*
X77253147Y-123476965D01*
X77128226Y-123104249D01*
X77126663Y-123098757D01*
X77036669Y-122716126D01*
X77035618Y-122710502D01*
X76981312Y-122321199D01*
X76980786Y-122315507D01*
X76962566Y-121921424D01*
X76962500Y-121918560D01*
X76962500Y-121848162D01*
X79222538Y-121848162D01*
X79232562Y-122135190D01*
X79232563Y-122135195D01*
X79282438Y-122418048D01*
X79282438Y-122418049D01*
X79371194Y-122691212D01*
X79497096Y-122949349D01*
X79497105Y-122949363D01*
X79657706Y-123187467D01*
X79657708Y-123187469D01*
X79657710Y-123187472D01*
X79849896Y-123400916D01*
X80069918Y-123585535D01*
X80313492Y-123737737D01*
X80417775Y-123784167D01*
X80575869Y-123854556D01*
X80575887Y-123854562D01*
X80851965Y-123933726D01*
X80851966Y-123933726D01*
X80851969Y-123933727D01*
X80851972Y-123933727D01*
X80851975Y-123933728D01*
X80923279Y-123943749D01*
X81136388Y-123973699D01*
X81136389Y-123973700D01*
X81136391Y-123973700D01*
X81351721Y-123973700D01*
X81384019Y-123971441D01*
X81566518Y-123958680D01*
X81566523Y-123958679D01*
X81566525Y-123958679D01*
X81706988Y-123928822D01*
X81847459Y-123898964D01*
X82117355Y-123800730D01*
X82370953Y-123665889D01*
X82603316Y-123497067D01*
X82809923Y-123297549D01*
X82986752Y-123071219D01*
X83130361Y-122822481D01*
X83237954Y-122556178D01*
X83307438Y-122277492D01*
X83337461Y-121991848D01*
X83332441Y-121848111D01*
X83327437Y-121704809D01*
X83327437Y-121704806D01*
X83321300Y-121670000D01*
X150150000Y-121670000D01*
X150966314Y-121670000D01*
X150940507Y-121710156D01*
X150900000Y-121848111D01*
X150900000Y-121991889D01*
X150940507Y-122129844D01*
X150966314Y-122170000D01*
X150150001Y-122170000D01*
X150150001Y-122734192D01*
X150160400Y-122866332D01*
X150215377Y-123084519D01*
X150308428Y-123289374D01*
X150308431Y-123289380D01*
X150436559Y-123474323D01*
X150436569Y-123474335D01*
X150595664Y-123633430D01*
X150595676Y-123633440D01*
X150780619Y-123761568D01*
X150780625Y-123761571D01*
X150985480Y-123854622D01*
X151203667Y-123909599D01*
X151335807Y-123920000D01*
X152149999Y-123919999D01*
X152150000Y-123919998D01*
X152150000Y-122420000D01*
X152650000Y-122420000D01*
X152650000Y-123919999D01*
X153464192Y-123919999D01*
X153596332Y-123909599D01*
X153814519Y-123854622D01*
X154019374Y-123761571D01*
X154019380Y-123761568D01*
X154204323Y-123633440D01*
X154204335Y-123633430D01*
X154363430Y-123474335D01*
X154363440Y-123474323D01*
X154491568Y-123289380D01*
X154491571Y-123289374D01*
X154584622Y-123084519D01*
X154639599Y-122866332D01*
X154650000Y-122734194D01*
X154650000Y-122170000D01*
X153833686Y-122170000D01*
X153859493Y-122129844D01*
X153900000Y-121991889D01*
X153900000Y-121920005D01*
X173926673Y-121920005D01*
X173945948Y-122152622D01*
X174003251Y-122378907D01*
X174097015Y-122592668D01*
X174224686Y-122788084D01*
X174373150Y-122949357D01*
X174382780Y-122959818D01*
X174566983Y-123103190D01*
X174566985Y-123103191D01*
X174566988Y-123103193D01*
X174686331Y-123167777D01*
X174772273Y-123214287D01*
X174886914Y-123253643D01*
X174993045Y-123290079D01*
X174993047Y-123290079D01*
X174993049Y-123290080D01*
X175223288Y-123328500D01*
X175223289Y-123328500D01*
X175456711Y-123328500D01*
X175456712Y-123328500D01*
X175686951Y-123290080D01*
X175689008Y-123289374D01*
X175695458Y-123287159D01*
X175907727Y-123214287D01*
X176113017Y-123103190D01*
X176297220Y-122959818D01*
X176455314Y-122788083D01*
X176490522Y-122734194D01*
X176491267Y-122733053D01*
X176544412Y-122687695D01*
X176613644Y-122678271D01*
X176676980Y-122707772D01*
X176685201Y-122717260D01*
X176688811Y-122717634D01*
X177356922Y-122049523D01*
X177380507Y-122129844D01*
X177458239Y-122250798D01*
X177566900Y-122344952D01*
X177697685Y-122404680D01*
X177707466Y-122406086D01*
X177041199Y-123072351D01*
X177071650Y-123096050D01*
X177275697Y-123206476D01*
X177275706Y-123206479D01*
X177495139Y-123281811D01*
X177723993Y-123320000D01*
X177956007Y-123320000D01*
X178184860Y-123281811D01*
X178404293Y-123206479D01*
X178404302Y-123206476D01*
X178608350Y-123096050D01*
X178638798Y-123072351D01*
X177972533Y-122406086D01*
X177982315Y-122404680D01*
X178113100Y-122344952D01*
X178221761Y-122250798D01*
X178299493Y-122129844D01*
X178323076Y-122049524D01*
X178991186Y-122717634D01*
X179000284Y-122716690D01*
X179034260Y-122687695D01*
X179103492Y-122678271D01*
X179166827Y-122707773D01*
X179188732Y-122733051D01*
X179224688Y-122788086D01*
X179373150Y-122949357D01*
X179382780Y-122959818D01*
X179566983Y-123103190D01*
X179566985Y-123103191D01*
X179566988Y-123103193D01*
X179686331Y-123167777D01*
X179772273Y-123214287D01*
X179886914Y-123253643D01*
X179993045Y-123290079D01*
X179993047Y-123290079D01*
X179993049Y-123290080D01*
X180223288Y-123328500D01*
X180223289Y-123328500D01*
X180456711Y-123328500D01*
X180456712Y-123328500D01*
X180686951Y-123290080D01*
X180689008Y-123289374D01*
X180695458Y-123287159D01*
X180907727Y-123214287D01*
X181113017Y-123103190D01*
X181297220Y-122959818D01*
X181455314Y-122788083D01*
X181582984Y-122592669D01*
X181676749Y-122378907D01*
X181734051Y-122152626D01*
X181747370Y-121991889D01*
X181753327Y-121920005D01*
X181753327Y-121919994D01*
X181747375Y-121848162D01*
X196062538Y-121848162D01*
X196072562Y-122135190D01*
X196072563Y-122135195D01*
X196122438Y-122418048D01*
X196122438Y-122418049D01*
X196211194Y-122691212D01*
X196337096Y-122949349D01*
X196337105Y-122949363D01*
X196497706Y-123187467D01*
X196497708Y-123187469D01*
X196497710Y-123187472D01*
X196689896Y-123400916D01*
X196909918Y-123585535D01*
X197153492Y-123737737D01*
X197257775Y-123784167D01*
X197415869Y-123854556D01*
X197415887Y-123854562D01*
X197691965Y-123933726D01*
X197691966Y-123933726D01*
X197691969Y-123933727D01*
X197691972Y-123933727D01*
X197691975Y-123933728D01*
X197763279Y-123943749D01*
X197976388Y-123973699D01*
X197976389Y-123973700D01*
X197976391Y-123973700D01*
X198191721Y-123973700D01*
X198224019Y-123971441D01*
X198406518Y-123958680D01*
X198406523Y-123958679D01*
X198406525Y-123958679D01*
X198546988Y-123928822D01*
X198687459Y-123898964D01*
X198957355Y-123800730D01*
X199210953Y-123665889D01*
X199443316Y-123497067D01*
X199649923Y-123297549D01*
X199826752Y-123071219D01*
X199970361Y-122822481D01*
X200077954Y-122556178D01*
X200147438Y-122277492D01*
X200177461Y-121991848D01*
X200172441Y-121848111D01*
X200167437Y-121704809D01*
X200167437Y-121704806D01*
X200117562Y-121421952D01*
X200028807Y-121148792D01*
X200028805Y-121148787D01*
X199902903Y-120890650D01*
X199902894Y-120890636D01*
X199858154Y-120824306D01*
X199779024Y-120706989D01*
X199742293Y-120652532D01*
X199742291Y-120652530D01*
X199742290Y-120652528D01*
X199550104Y-120439084D01*
X199330082Y-120254465D01*
X199167645Y-120152963D01*
X199086512Y-120102265D01*
X199086510Y-120102264D01*
X198824130Y-119985443D01*
X198824112Y-119985437D01*
X198548034Y-119906273D01*
X198548024Y-119906271D01*
X198263612Y-119866300D01*
X198263609Y-119866300D01*
X198048281Y-119866300D01*
X198048279Y-119866300D01*
X197833478Y-119881320D01*
X197833474Y-119881320D01*
X197552547Y-119941034D01*
X197552539Y-119941036D01*
X197282651Y-120039267D01*
X197029052Y-120174107D01*
X197029045Y-120174112D01*
X196796691Y-120342926D01*
X196796684Y-120342932D01*
X196590075Y-120542453D01*
X196413248Y-120768780D01*
X196269641Y-121017514D01*
X196269636Y-121017525D01*
X196162046Y-121283820D01*
X196092562Y-121562508D01*
X196062538Y-121848162D01*
X181747375Y-121848162D01*
X181734051Y-121687377D01*
X181734051Y-121687374D01*
X181676749Y-121461093D01*
X181582984Y-121247331D01*
X181520900Y-121152304D01*
X181455313Y-121051915D01*
X181297223Y-120880185D01*
X181297222Y-120880184D01*
X181297220Y-120880182D01*
X181113017Y-120736810D01*
X181113015Y-120736809D01*
X181113014Y-120736808D01*
X181113011Y-120736806D01*
X180907733Y-120625716D01*
X180907730Y-120625715D01*
X180907727Y-120625713D01*
X180907721Y-120625711D01*
X180907719Y-120625710D01*
X180686954Y-120549920D01*
X180507650Y-120520000D01*
X180456712Y-120511500D01*
X180223288Y-120511500D01*
X180177240Y-120519184D01*
X179993045Y-120549920D01*
X179772280Y-120625710D01*
X179772266Y-120625716D01*
X179566988Y-120736806D01*
X179566985Y-120736808D01*
X179382781Y-120880181D01*
X179382776Y-120880185D01*
X179224686Y-121051916D01*
X179224683Y-121051919D01*
X179188731Y-121106948D01*
X179135584Y-121152305D01*
X179066353Y-121161728D01*
X179003017Y-121132225D01*
X178994797Y-121122739D01*
X178991186Y-121122364D01*
X178323076Y-121790475D01*
X178299493Y-121710156D01*
X178221761Y-121589202D01*
X178113100Y-121495048D01*
X177982315Y-121435320D01*
X177972534Y-121433913D01*
X178638799Y-120767648D01*
X178638799Y-120767647D01*
X178608349Y-120743949D01*
X178404302Y-120633523D01*
X178404293Y-120633520D01*
X178184860Y-120558188D01*
X177956007Y-120520000D01*
X177723993Y-120520000D01*
X177495139Y-120558188D01*
X177275706Y-120633520D01*
X177275698Y-120633523D01*
X177071644Y-120743952D01*
X177041200Y-120767646D01*
X177041200Y-120767647D01*
X177707466Y-121433913D01*
X177697685Y-121435320D01*
X177566900Y-121495048D01*
X177458239Y-121589202D01*
X177380507Y-121710156D01*
X177356923Y-121790475D01*
X176688811Y-121122364D01*
X176679714Y-121123308D01*
X176645739Y-121152304D01*
X176576507Y-121161728D01*
X176513172Y-121132226D01*
X176491267Y-121106947D01*
X176455313Y-121051915D01*
X176297223Y-120880185D01*
X176297222Y-120880184D01*
X176297220Y-120880182D01*
X176113017Y-120736810D01*
X176113015Y-120736809D01*
X176113014Y-120736808D01*
X176113011Y-120736806D01*
X175907733Y-120625716D01*
X175907730Y-120625715D01*
X175907727Y-120625713D01*
X175907721Y-120625711D01*
X175907719Y-120625710D01*
X175686954Y-120549920D01*
X175507650Y-120520000D01*
X175456712Y-120511500D01*
X175223288Y-120511500D01*
X175177240Y-120519184D01*
X174993045Y-120549920D01*
X174772280Y-120625710D01*
X174772266Y-120625716D01*
X174566988Y-120736806D01*
X174566985Y-120736808D01*
X174382781Y-120880181D01*
X174382776Y-120880185D01*
X174224686Y-121051915D01*
X174097015Y-121247331D01*
X174003251Y-121461092D01*
X173945948Y-121687377D01*
X173926673Y-121919994D01*
X173926673Y-121920005D01*
X153900000Y-121920005D01*
X153900000Y-121848111D01*
X153859493Y-121710156D01*
X153833686Y-121670000D01*
X154649999Y-121670000D01*
X154649999Y-121105808D01*
X154639599Y-120973667D01*
X154584622Y-120755480D01*
X154491571Y-120550625D01*
X154491568Y-120550619D01*
X154363440Y-120365676D01*
X154363430Y-120365664D01*
X154204335Y-120206569D01*
X154204323Y-120206559D01*
X154019380Y-120078431D01*
X154019374Y-120078428D01*
X153814519Y-119985377D01*
X153596332Y-119930400D01*
X153464194Y-119920000D01*
X152650000Y-119920000D01*
X152650000Y-121420000D01*
X152150000Y-121420000D01*
X152150000Y-119920000D01*
X152149999Y-119920000D01*
X151335808Y-119920001D01*
X151203667Y-119930400D01*
X150985480Y-119985377D01*
X150780625Y-120078428D01*
X150780619Y-120078431D01*
X150595676Y-120206559D01*
X150595664Y-120206569D01*
X150436569Y-120365664D01*
X150436559Y-120365676D01*
X150308431Y-120550619D01*
X150308428Y-120550625D01*
X150215377Y-120755480D01*
X150160400Y-120973667D01*
X150150000Y-121105806D01*
X150150000Y-121670000D01*
X83321300Y-121670000D01*
X83277562Y-121421952D01*
X83188807Y-121148792D01*
X83188805Y-121148787D01*
X83062903Y-120890650D01*
X83062894Y-120890636D01*
X83018154Y-120824306D01*
X82939024Y-120706989D01*
X82902293Y-120652532D01*
X82902291Y-120652530D01*
X82902290Y-120652528D01*
X82710104Y-120439084D01*
X82490082Y-120254465D01*
X82327645Y-120152963D01*
X82246512Y-120102265D01*
X82246510Y-120102264D01*
X81984130Y-119985443D01*
X81984112Y-119985437D01*
X81708034Y-119906273D01*
X81708024Y-119906271D01*
X81423612Y-119866300D01*
X81423609Y-119866300D01*
X81208281Y-119866300D01*
X81208279Y-119866300D01*
X80993478Y-119881320D01*
X80993474Y-119881320D01*
X80712547Y-119941034D01*
X80712539Y-119941036D01*
X80442651Y-120039267D01*
X80189052Y-120174107D01*
X80189045Y-120174112D01*
X79956691Y-120342926D01*
X79956684Y-120342932D01*
X79750075Y-120542453D01*
X79573248Y-120768780D01*
X79429641Y-121017514D01*
X79429636Y-121017525D01*
X79322046Y-121283820D01*
X79252562Y-121562508D01*
X79222538Y-121848162D01*
X76962500Y-121848162D01*
X76962500Y-118880005D01*
X92837041Y-118880005D01*
X92856854Y-119194946D01*
X92856855Y-119194950D01*
X92915992Y-119504952D01*
X93013509Y-119805079D01*
X93147880Y-120090632D01*
X93316969Y-120357075D01*
X93408603Y-120467841D01*
X94126389Y-119750055D01*
X94242632Y-119899404D01*
X94425523Y-120067768D01*
X94480116Y-120103435D01*
X93759245Y-120824306D01*
X94003490Y-121001761D01*
X94003501Y-121001768D01*
X94280034Y-121153793D01*
X94280042Y-121153797D01*
X94573449Y-121269964D01*
X94879118Y-121348447D01*
X94879127Y-121348449D01*
X95192198Y-121387999D01*
X95192212Y-121388000D01*
X95507788Y-121388000D01*
X95507801Y-121387999D01*
X95820872Y-121348449D01*
X95820881Y-121348447D01*
X96126550Y-121269964D01*
X96419957Y-121153797D01*
X96419965Y-121153793D01*
X96696498Y-121001768D01*
X96696509Y-121001761D01*
X96940752Y-120824306D01*
X96940753Y-120824306D01*
X96219883Y-120103435D01*
X96274477Y-120067768D01*
X96457368Y-119899404D01*
X96573610Y-119750057D01*
X97291395Y-120467842D01*
X97383033Y-120357070D01*
X97552119Y-120090632D01*
X97686490Y-119805079D01*
X97784007Y-119504952D01*
X97807843Y-119380000D01*
X98569939Y-119380000D01*
X98590145Y-119610958D01*
X98590147Y-119610968D01*
X98650148Y-119834900D01*
X98650152Y-119834909D01*
X98748132Y-120045029D01*
X98748133Y-120045031D01*
X98803023Y-120123422D01*
X98803024Y-120123423D01*
X99297452Y-119628994D01*
X99307188Y-119658956D01*
X99395186Y-119797619D01*
X99514903Y-119910040D01*
X99649510Y-119984041D01*
X99156575Y-120476975D01*
X99234973Y-120531868D01*
X99445090Y-120629847D01*
X99445099Y-120629851D01*
X99669031Y-120689852D01*
X99669041Y-120689854D01*
X99899999Y-120710061D01*
X99900001Y-120710061D01*
X100130958Y-120689854D01*
X100130968Y-120689852D01*
X100354900Y-120629851D01*
X100354909Y-120629847D01*
X100565030Y-120531867D01*
X100643423Y-120476975D01*
X100147534Y-119981086D01*
X100215629Y-119954126D01*
X100348492Y-119857595D01*
X100453175Y-119731055D01*
X100501631Y-119628079D01*
X100996975Y-120123423D01*
X101051867Y-120045030D01*
X101149847Y-119834909D01*
X101149851Y-119834900D01*
X101209852Y-119610968D01*
X101209854Y-119610958D01*
X101230061Y-119380000D01*
X101230061Y-119379999D01*
X101209854Y-119149041D01*
X101209852Y-119149031D01*
X101149851Y-118925099D01*
X101149847Y-118925090D01*
X101081559Y-118778645D01*
X101071067Y-118709568D01*
X101099587Y-118645784D01*
X101141531Y-118613860D01*
X101194297Y-118589256D01*
X101385432Y-118455422D01*
X101512321Y-118328532D01*
X101573640Y-118295050D01*
X101643332Y-118300034D01*
X101687680Y-118328535D01*
X101814562Y-118455417D01*
X101814565Y-118455419D01*
X101814568Y-118455422D01*
X101913625Y-118524782D01*
X101957248Y-118579356D01*
X101966500Y-118626355D01*
X101966500Y-120253654D01*
X101973011Y-120314202D01*
X101973011Y-120314204D01*
X102012472Y-120420000D01*
X102024111Y-120451204D01*
X102111739Y-120568261D01*
X102228796Y-120655889D01*
X102365799Y-120706989D01*
X102393050Y-120709918D01*
X102426345Y-120713499D01*
X102426362Y-120713500D01*
X104173638Y-120713500D01*
X104173654Y-120713499D01*
X104200692Y-120710591D01*
X104234201Y-120706989D01*
X104371204Y-120655889D01*
X104488261Y-120568261D01*
X104575889Y-120451204D01*
X104626989Y-120314201D01*
X104630591Y-120280692D01*
X104633499Y-120253654D01*
X104633500Y-120253637D01*
X104633500Y-118880005D01*
X105337041Y-118880005D01*
X105356854Y-119194946D01*
X105356855Y-119194950D01*
X105415992Y-119504952D01*
X105513509Y-119805079D01*
X105647880Y-120090632D01*
X105816969Y-120357075D01*
X105908603Y-120467841D01*
X106626389Y-119750055D01*
X106742632Y-119899404D01*
X106925523Y-120067768D01*
X106980116Y-120103435D01*
X106259245Y-120824306D01*
X106503490Y-121001761D01*
X106503501Y-121001768D01*
X106780034Y-121153793D01*
X106780042Y-121153797D01*
X107073449Y-121269964D01*
X107379118Y-121348447D01*
X107379127Y-121348449D01*
X107692198Y-121387999D01*
X107692212Y-121388000D01*
X108007788Y-121388000D01*
X108007801Y-121387999D01*
X108320872Y-121348449D01*
X108320881Y-121348447D01*
X108626550Y-121269964D01*
X108919957Y-121153797D01*
X108919965Y-121153793D01*
X109196498Y-121001768D01*
X109196509Y-121001761D01*
X109440752Y-120824306D01*
X109440753Y-120824306D01*
X108719883Y-120103435D01*
X108774477Y-120067768D01*
X108957368Y-119899404D01*
X109073610Y-119750057D01*
X109791395Y-120467842D01*
X109883033Y-120357070D01*
X110052119Y-120090632D01*
X110186490Y-119805079D01*
X110284007Y-119504952D01*
X110343144Y-119194950D01*
X110343145Y-119194946D01*
X110362959Y-118880005D01*
X110362959Y-118879994D01*
X110343145Y-118565053D01*
X110343144Y-118565049D01*
X110284007Y-118255047D01*
X110186490Y-117954920D01*
X110075312Y-117718654D01*
X150141500Y-117718654D01*
X150148011Y-117779202D01*
X150148011Y-117779204D01*
X150189406Y-117890185D01*
X150199111Y-117916204D01*
X150286739Y-118033261D01*
X150403796Y-118120889D01*
X150540799Y-118171989D01*
X150568050Y-118174918D01*
X150601345Y-118178499D01*
X150601362Y-118178500D01*
X154198638Y-118178500D01*
X154198654Y-118178499D01*
X154225692Y-118175591D01*
X154259201Y-118171989D01*
X154396204Y-118120889D01*
X154513261Y-118033261D01*
X154600889Y-117916204D01*
X154610594Y-117890183D01*
X154652463Y-117834251D01*
X154717928Y-117809833D01*
X154786201Y-117824684D01*
X154835607Y-117874089D01*
X154850601Y-117940089D01*
X154850000Y-117951406D01*
X154850000Y-118670000D01*
X156600000Y-118670000D01*
X156600000Y-119170000D01*
X154850001Y-119170000D01*
X154850001Y-119888591D01*
X154852794Y-119941190D01*
X154897237Y-120170987D01*
X154979879Y-120389975D01*
X155098339Y-120591841D01*
X155098344Y-120591848D01*
X155249211Y-120770786D01*
X155249213Y-120770788D01*
X155428151Y-120921655D01*
X155428158Y-120921660D01*
X155630024Y-121040120D01*
X155849012Y-121122762D01*
X156078808Y-121167205D01*
X156131408Y-121169999D01*
X156849999Y-121169999D01*
X156850000Y-121169998D01*
X156850000Y-120353686D01*
X156890156Y-120379493D01*
X157028111Y-120420000D01*
X157171889Y-120420000D01*
X157309844Y-120379493D01*
X157350000Y-120353686D01*
X157350000Y-121169999D01*
X158068591Y-121169999D01*
X158121190Y-121167205D01*
X158350987Y-121122762D01*
X158569975Y-121040120D01*
X158771841Y-120921660D01*
X158771848Y-120921655D01*
X158950786Y-120770788D01*
X158950788Y-120770786D01*
X159101655Y-120591848D01*
X159101660Y-120591841D01*
X159220120Y-120389975D01*
X159302762Y-120170987D01*
X159347205Y-119941191D01*
X159347205Y-119941190D01*
X159350000Y-119888591D01*
X159350000Y-119170000D01*
X157600000Y-119170000D01*
X157600000Y-118670000D01*
X159349999Y-118670000D01*
X159349999Y-117951409D01*
X159347205Y-117898809D01*
X159302762Y-117669012D01*
X159220120Y-117450024D01*
X159101660Y-117248158D01*
X159101655Y-117248151D01*
X158950788Y-117069213D01*
X158950786Y-117069211D01*
X158771848Y-116918344D01*
X158771841Y-116918339D01*
X158569975Y-116799879D01*
X158350987Y-116717237D01*
X158121191Y-116672794D01*
X158068591Y-116670000D01*
X157350000Y-116670000D01*
X157350000Y-117486313D01*
X157309844Y-117460507D01*
X157171889Y-117420000D01*
X157028111Y-117420000D01*
X156890156Y-117460507D01*
X156850000Y-117486313D01*
X156850000Y-116670000D01*
X156849999Y-116670000D01*
X156131409Y-116670001D01*
X156078809Y-116672794D01*
X155849012Y-116717237D01*
X155630024Y-116799879D01*
X155428158Y-116918339D01*
X155428151Y-116918344D01*
X155249213Y-117069211D01*
X155249211Y-117069213D01*
X155098344Y-117248151D01*
X155098339Y-117248158D01*
X154979879Y-117450024D01*
X154898514Y-117665630D01*
X154856427Y-117721401D01*
X154790869Y-117745565D01*
X154722654Y-117730450D01*
X154673439Y-117680854D01*
X154658500Y-117621848D01*
X154658500Y-115670005D01*
X173935202Y-115670005D01*
X173954361Y-115901218D01*
X174011317Y-116126135D01*
X174104516Y-116338609D01*
X174188811Y-116467633D01*
X174856922Y-115799523D01*
X174880507Y-115879844D01*
X174958239Y-116000798D01*
X175066900Y-116094952D01*
X175197685Y-116154680D01*
X175207466Y-116156086D01*
X174541199Y-116822351D01*
X174571650Y-116846050D01*
X174775697Y-116956476D01*
X174775706Y-116956479D01*
X174995139Y-117031811D01*
X175223993Y-117070000D01*
X175456007Y-117070000D01*
X175684860Y-117031811D01*
X175904293Y-116956479D01*
X175904302Y-116956476D01*
X176108350Y-116846050D01*
X176138798Y-116822351D01*
X175472533Y-116156086D01*
X175482315Y-116154680D01*
X175613100Y-116094952D01*
X175721761Y-116000798D01*
X175799493Y-115879844D01*
X175823076Y-115799524D01*
X176491186Y-116467634D01*
X176575484Y-116338606D01*
X176668682Y-116126135D01*
X176725638Y-115901218D01*
X176744798Y-115670005D01*
X178926673Y-115670005D01*
X178945948Y-115902622D01*
X179003251Y-116128907D01*
X179097015Y-116342668D01*
X179224686Y-116538084D01*
X179379290Y-116706027D01*
X179382780Y-116709818D01*
X179566983Y-116853190D01*
X179566985Y-116853191D01*
X179566988Y-116853193D01*
X179608755Y-116875796D01*
X179772273Y-116964287D01*
X179859706Y-116994303D01*
X179993045Y-117040079D01*
X179993047Y-117040079D01*
X179993049Y-117040080D01*
X180223288Y-117078500D01*
X180223289Y-117078500D01*
X180456711Y-117078500D01*
X180456712Y-117078500D01*
X180686951Y-117040080D01*
X180907727Y-116964287D01*
X181113017Y-116853190D01*
X181297220Y-116709818D01*
X181455314Y-116538083D01*
X181582984Y-116342669D01*
X181676749Y-116128907D01*
X181734051Y-115902626D01*
X181747370Y-115741889D01*
X181753327Y-115670005D01*
X181753327Y-115669994D01*
X181735939Y-115460156D01*
X181734051Y-115437374D01*
X181676749Y-115211093D01*
X181582984Y-114997331D01*
X181455314Y-114801917D01*
X181455313Y-114801915D01*
X181297223Y-114630185D01*
X181297222Y-114630184D01*
X181297220Y-114630182D01*
X181113017Y-114486810D01*
X181113015Y-114486809D01*
X181113014Y-114486808D01*
X181113011Y-114486806D01*
X180907733Y-114375716D01*
X180907730Y-114375715D01*
X180907727Y-114375713D01*
X180907721Y-114375711D01*
X180907719Y-114375710D01*
X180686954Y-114299920D01*
X180507650Y-114270000D01*
X180456712Y-114261500D01*
X180223288Y-114261500D01*
X180177240Y-114269184D01*
X179993045Y-114299920D01*
X179772280Y-114375710D01*
X179772266Y-114375716D01*
X179566988Y-114486806D01*
X179566985Y-114486808D01*
X179382781Y-114630181D01*
X179382776Y-114630185D01*
X179224686Y-114801915D01*
X179097015Y-114997331D01*
X179003251Y-115211092D01*
X178945948Y-115437377D01*
X178926673Y-115669994D01*
X178926673Y-115670005D01*
X176744798Y-115670005D01*
X176744798Y-115669994D01*
X176725638Y-115438781D01*
X176668682Y-115213864D01*
X176575483Y-115001390D01*
X176491186Y-114872364D01*
X175823076Y-115540475D01*
X175799493Y-115460156D01*
X175721761Y-115339202D01*
X175613100Y-115245048D01*
X175482315Y-115185320D01*
X175472534Y-115183913D01*
X176138799Y-114517648D01*
X176138799Y-114517647D01*
X176108349Y-114493949D01*
X175904302Y-114383523D01*
X175904293Y-114383520D01*
X175684860Y-114308188D01*
X175456007Y-114270000D01*
X175223993Y-114270000D01*
X174995139Y-114308188D01*
X174775706Y-114383520D01*
X174775698Y-114383523D01*
X174571644Y-114493952D01*
X174541200Y-114517646D01*
X174541200Y-114517647D01*
X175207466Y-115183913D01*
X175197685Y-115185320D01*
X175066900Y-115245048D01*
X174958239Y-115339202D01*
X174880507Y-115460156D01*
X174856923Y-115540476D01*
X174188812Y-114872365D01*
X174104516Y-115001391D01*
X174104514Y-115001395D01*
X174011317Y-115213864D01*
X173954361Y-115438781D01*
X173935202Y-115669994D01*
X173935202Y-115670005D01*
X154658500Y-115670005D01*
X154658500Y-114121362D01*
X154658499Y-114121345D01*
X154653528Y-114075116D01*
X154651989Y-114060799D01*
X154600889Y-113923796D01*
X154513261Y-113806739D01*
X154505850Y-113801191D01*
X154463981Y-113745256D01*
X154459000Y-113675564D01*
X154492482Y-113614248D01*
X156944913Y-111161819D01*
X157006236Y-111128334D01*
X157032594Y-111125500D01*
X165016153Y-111125500D01*
X165031932Y-111127241D01*
X165031958Y-111126974D01*
X165039711Y-111127706D01*
X165039719Y-111127708D01*
X165109985Y-111125500D01*
X165139983Y-111125500D01*
X165147013Y-111124611D01*
X165152836Y-111124153D01*
X165200205Y-111122665D01*
X165219906Y-111116940D01*
X165238951Y-111112997D01*
X165259299Y-111110427D01*
X165303393Y-111092968D01*
X165308856Y-111091098D01*
X165354393Y-111077869D01*
X165372054Y-111067423D01*
X165389512Y-111058871D01*
X165408588Y-111051319D01*
X165446928Y-111023462D01*
X165451800Y-111020261D01*
X165492598Y-110996134D01*
X165507094Y-110981637D01*
X165521892Y-110968998D01*
X165538487Y-110956942D01*
X165568708Y-110920409D01*
X165572609Y-110916122D01*
X167866125Y-108622605D01*
X167927446Y-108589122D01*
X167979584Y-108588998D01*
X168052513Y-108604500D01*
X168052514Y-108604500D01*
X168243487Y-108604500D01*
X168430288Y-108564794D01*
X168604752Y-108487118D01*
X168759253Y-108374866D01*
X168887040Y-108232944D01*
X168982527Y-108067556D01*
X169041542Y-107885928D01*
X169061504Y-107696000D01*
X169041542Y-107506072D01*
X168982527Y-107324444D01*
X168887040Y-107159056D01*
X168759253Y-107017134D01*
X168604752Y-106904882D01*
X168430288Y-106827206D01*
X168430286Y-106827205D01*
X168243487Y-106787500D01*
X168052513Y-106787500D01*
X167865714Y-106827205D01*
X167691246Y-106904883D01*
X167536745Y-107017135D01*
X167408959Y-107159057D01*
X167313473Y-107324443D01*
X167313470Y-107324451D01*
X167296992Y-107375162D01*
X167266743Y-107424522D01*
X164873086Y-109818181D01*
X164811763Y-109851666D01*
X164785405Y-109854500D01*
X156801847Y-109854500D01*
X156786067Y-109852758D01*
X156786042Y-109853026D01*
X156778281Y-109852292D01*
X156708015Y-109854500D01*
X156678013Y-109854500D01*
X156670973Y-109855388D01*
X156665160Y-109855845D01*
X156617800Y-109857334D01*
X156617794Y-109857335D01*
X156598093Y-109863058D01*
X156579054Y-109867000D01*
X156558711Y-109869571D01*
X156558703Y-109869572D01*
X156558701Y-109869573D01*
X156558699Y-109869573D01*
X156558693Y-109869575D01*
X156514645Y-109887014D01*
X156509122Y-109888905D01*
X156463609Y-109902130D01*
X156463607Y-109902130D01*
X156463607Y-109902131D01*
X156445948Y-109912573D01*
X156428483Y-109921129D01*
X156409415Y-109928678D01*
X156409411Y-109928681D01*
X156371072Y-109956534D01*
X156366192Y-109959740D01*
X156325400Y-109983865D01*
X156310898Y-109998368D01*
X156296108Y-110011000D01*
X156279515Y-110023055D01*
X156279512Y-110023058D01*
X156249301Y-110059576D01*
X156245368Y-110063897D01*
X154449493Y-111859774D01*
X152684086Y-113625181D01*
X152622763Y-113658666D01*
X152596405Y-113661500D01*
X150601345Y-113661500D01*
X150540797Y-113668011D01*
X150540795Y-113668011D01*
X150403795Y-113719111D01*
X150286739Y-113806739D01*
X150199111Y-113923795D01*
X150148011Y-114060795D01*
X150148011Y-114060797D01*
X150141500Y-114121345D01*
X150141500Y-117718654D01*
X110075312Y-117718654D01*
X110052119Y-117669367D01*
X109883030Y-117402924D01*
X109791394Y-117292156D01*
X109073609Y-118009941D01*
X108957368Y-117860596D01*
X108774477Y-117692232D01*
X108719882Y-117656563D01*
X109440753Y-116935692D01*
X109196514Y-116758241D01*
X109196504Y-116758234D01*
X108919965Y-116606206D01*
X108919957Y-116606202D01*
X108626550Y-116490035D01*
X108320881Y-116411552D01*
X108320872Y-116411550D01*
X108007801Y-116372000D01*
X107692198Y-116372000D01*
X107379127Y-116411550D01*
X107379118Y-116411552D01*
X107073449Y-116490035D01*
X106780042Y-116606202D01*
X106780034Y-116606206D01*
X106503495Y-116758234D01*
X106503485Y-116758241D01*
X106259246Y-116935692D01*
X106259245Y-116935692D01*
X106980117Y-117656563D01*
X106925523Y-117692232D01*
X106742632Y-117860596D01*
X106626389Y-118009942D01*
X105908603Y-117292156D01*
X105908602Y-117292156D01*
X105816973Y-117402918D01*
X105816971Y-117402921D01*
X105647880Y-117669367D01*
X105513509Y-117954920D01*
X105415992Y-118255047D01*
X105356855Y-118565049D01*
X105356854Y-118565053D01*
X105337041Y-118879994D01*
X105337041Y-118880005D01*
X104633500Y-118880005D01*
X104633500Y-118506362D01*
X104633499Y-118506345D01*
X104630157Y-118475270D01*
X104626989Y-118445799D01*
X104575889Y-118308796D01*
X104488261Y-118191739D01*
X104371204Y-118104111D01*
X104358297Y-118099297D01*
X104234203Y-118053011D01*
X104173654Y-118046500D01*
X104173638Y-118046500D01*
X104051951Y-118046500D01*
X103984912Y-118026815D01*
X103939157Y-117974011D01*
X103929213Y-117904853D01*
X103932176Y-117890407D01*
X103977460Y-117721401D01*
X103993258Y-117662444D01*
X104013594Y-117430000D01*
X104008967Y-117377118D01*
X103999147Y-117264866D01*
X103993258Y-117197556D01*
X103938797Y-116994305D01*
X103932869Y-116972181D01*
X103932868Y-116972180D01*
X103932867Y-116972174D01*
X103834256Y-116760703D01*
X103832527Y-116758234D01*
X103700425Y-116569572D01*
X103700420Y-116569566D01*
X103535433Y-116404579D01*
X103535427Y-116404574D01*
X103344298Y-116270744D01*
X103344296Y-116270743D01*
X103223560Y-116214443D01*
X103132826Y-116172133D01*
X103132822Y-116172132D01*
X103132818Y-116172130D01*
X102907449Y-116111743D01*
X102907445Y-116111742D01*
X102907444Y-116111742D01*
X102907443Y-116111741D01*
X102907438Y-116111741D01*
X102675002Y-116091406D01*
X102674998Y-116091406D01*
X102442561Y-116111741D01*
X102442550Y-116111743D01*
X102217181Y-116172130D01*
X102217172Y-116172134D01*
X102005703Y-116270743D01*
X102005701Y-116270744D01*
X101814572Y-116404574D01*
X101814566Y-116404579D01*
X101687681Y-116531465D01*
X101626358Y-116564950D01*
X101556666Y-116559966D01*
X101512319Y-116531465D01*
X101385433Y-116404579D01*
X101385427Y-116404574D01*
X101194298Y-116270744D01*
X101194296Y-116270743D01*
X101073560Y-116214443D01*
X100982826Y-116172133D01*
X100982822Y-116172132D01*
X100982818Y-116172130D01*
X100757449Y-116111743D01*
X100757445Y-116111742D01*
X100757444Y-116111742D01*
X100757443Y-116111741D01*
X100757438Y-116111741D01*
X100525002Y-116091406D01*
X100524998Y-116091406D01*
X100292561Y-116111741D01*
X100292550Y-116111743D01*
X100067181Y-116172130D01*
X100067172Y-116172134D01*
X99855703Y-116270743D01*
X99855701Y-116270744D01*
X99664572Y-116404574D01*
X99664566Y-116404579D01*
X99499579Y-116569566D01*
X99499574Y-116569572D01*
X99365744Y-116760701D01*
X99365743Y-116760703D01*
X99267134Y-116972172D01*
X99267130Y-116972181D01*
X99206743Y-117197550D01*
X99206741Y-117197561D01*
X99186406Y-117429998D01*
X99186406Y-117430001D01*
X99206741Y-117662438D01*
X99206743Y-117662449D01*
X99267130Y-117887818D01*
X99267135Y-117887832D01*
X99339328Y-118042650D01*
X99349820Y-118111727D01*
X99321300Y-118175511D01*
X99279354Y-118207435D01*
X99234968Y-118228133D01*
X99156577Y-118283023D01*
X99156576Y-118283024D01*
X99652465Y-118778913D01*
X99584371Y-118805874D01*
X99451508Y-118902405D01*
X99346825Y-119028945D01*
X99298368Y-119131920D01*
X98803024Y-118636576D01*
X98803024Y-118636577D01*
X98748133Y-118714969D01*
X98748132Y-118714971D01*
X98650152Y-118925090D01*
X98650148Y-118925099D01*
X98590147Y-119149031D01*
X98590145Y-119149041D01*
X98569939Y-119379999D01*
X98569939Y-119380000D01*
X97807843Y-119380000D01*
X97843144Y-119194950D01*
X97843145Y-119194946D01*
X97862959Y-118880005D01*
X97862959Y-118879994D01*
X97843145Y-118565053D01*
X97843144Y-118565049D01*
X97784007Y-118255047D01*
X97686490Y-117954920D01*
X97552119Y-117669367D01*
X97383030Y-117402924D01*
X97291394Y-117292156D01*
X96573609Y-118009941D01*
X96457368Y-117860596D01*
X96274477Y-117692232D01*
X96219882Y-117656563D01*
X96940753Y-116935692D01*
X96696514Y-116758241D01*
X96696504Y-116758234D01*
X96419965Y-116606206D01*
X96419957Y-116606202D01*
X96126550Y-116490035D01*
X95820881Y-116411552D01*
X95820872Y-116411550D01*
X95507801Y-116372000D01*
X95192198Y-116372000D01*
X94879127Y-116411550D01*
X94879118Y-116411552D01*
X94573449Y-116490035D01*
X94280042Y-116606202D01*
X94280034Y-116606206D01*
X94003495Y-116758234D01*
X94003485Y-116758241D01*
X93759246Y-116935692D01*
X93759245Y-116935692D01*
X94480117Y-117656563D01*
X94425523Y-117692232D01*
X94242632Y-117860596D01*
X94126389Y-118009942D01*
X93408603Y-117292156D01*
X93408602Y-117292156D01*
X93316973Y-117402918D01*
X93316971Y-117402921D01*
X93147880Y-117669367D01*
X93013509Y-117954920D01*
X92915992Y-118255047D01*
X92856855Y-118565049D01*
X92856854Y-118565053D01*
X92837041Y-118879994D01*
X92837041Y-118880005D01*
X76962500Y-118880005D01*
X76962500Y-104775000D01*
X107206807Y-104775000D01*
X107225557Y-105049130D01*
X107225558Y-105049132D01*
X107281458Y-105318141D01*
X107281463Y-105318158D01*
X107373476Y-105577056D01*
X107499889Y-105821024D01*
X107499893Y-105821030D01*
X107658340Y-106045499D01*
X107658343Y-106045502D01*
X107845889Y-106246314D01*
X108059031Y-106419718D01*
X108059033Y-106419719D01*
X108059034Y-106419720D01*
X108293801Y-106562485D01*
X108498348Y-106651331D01*
X108545823Y-106671953D01*
X108810404Y-106746085D01*
X109049720Y-106778978D01*
X109082614Y-106783500D01*
X109082615Y-106783500D01*
X109357386Y-106783500D01*
X109386733Y-106779466D01*
X109629596Y-106746085D01*
X109894177Y-106671953D01*
X110146200Y-106562484D01*
X110380969Y-106419718D01*
X110594111Y-106246314D01*
X110781657Y-106045502D01*
X110940111Y-105821023D01*
X111066523Y-105577058D01*
X111158538Y-105318153D01*
X111158539Y-105318146D01*
X111158541Y-105318141D01*
X111184491Y-105193259D01*
X111214442Y-105049130D01*
X111233193Y-104775000D01*
X111214442Y-104500870D01*
X111195141Y-104407989D01*
X111158541Y-104231858D01*
X111158536Y-104231841D01*
X111066523Y-103972943D01*
X111066523Y-103972942D01*
X110940111Y-103728977D01*
X110940110Y-103728975D01*
X110940106Y-103728969D01*
X110781659Y-103504500D01*
X110747739Y-103468181D01*
X110594111Y-103303686D01*
X110380969Y-103130282D01*
X110380967Y-103130281D01*
X110380965Y-103130279D01*
X110146198Y-102987514D01*
X109894178Y-102878047D01*
X109629602Y-102803916D01*
X109629597Y-102803915D01*
X109629596Y-102803915D01*
X109493490Y-102785207D01*
X109357386Y-102766500D01*
X109357385Y-102766500D01*
X109082615Y-102766500D01*
X109082614Y-102766500D01*
X108810404Y-102803915D01*
X108810397Y-102803916D01*
X108545821Y-102878047D01*
X108293801Y-102987514D01*
X108059034Y-103130279D01*
X107845892Y-103303683D01*
X107658340Y-103504500D01*
X107499893Y-103728969D01*
X107499889Y-103728975D01*
X107373476Y-103972943D01*
X107281463Y-104231841D01*
X107281458Y-104231858D01*
X107225558Y-104500867D01*
X107225557Y-104500869D01*
X107206807Y-104775000D01*
X76962500Y-104775000D01*
X76962500Y-90170000D01*
X100856807Y-90170000D01*
X100875557Y-90444130D01*
X100875558Y-90444132D01*
X100931458Y-90713141D01*
X100931463Y-90713158D01*
X101023476Y-90972056D01*
X101149889Y-91216024D01*
X101149893Y-91216030D01*
X101308340Y-91440499D01*
X101308343Y-91440502D01*
X101495889Y-91641314D01*
X101709031Y-91814718D01*
X101709033Y-91814719D01*
X101709034Y-91814720D01*
X101943801Y-91957485D01*
X102148348Y-92046331D01*
X102195823Y-92066953D01*
X102460404Y-92141085D01*
X102699720Y-92173978D01*
X102732614Y-92178500D01*
X102732615Y-92178500D01*
X103007386Y-92178500D01*
X103036733Y-92174466D01*
X103279596Y-92141085D01*
X103544177Y-92066953D01*
X103796200Y-91957484D01*
X104030969Y-91814718D01*
X104244111Y-91641314D01*
X104431657Y-91440502D01*
X104590111Y-91216023D01*
X104716523Y-90972058D01*
X104808538Y-90713153D01*
X104808539Y-90713146D01*
X104808541Y-90713141D01*
X104841831Y-90552937D01*
X104864442Y-90444130D01*
X104883193Y-90170000D01*
X104864442Y-89895870D01*
X104845141Y-89802989D01*
X104808541Y-89626858D01*
X104808536Y-89626841D01*
X104716523Y-89367943D01*
X104716523Y-89367942D01*
X104590111Y-89123977D01*
X104590110Y-89123975D01*
X104590106Y-89123969D01*
X104431659Y-88899500D01*
X104413031Y-88879555D01*
X104244111Y-88698686D01*
X104030969Y-88525282D01*
X104030967Y-88525281D01*
X104030965Y-88525279D01*
X103796198Y-88382514D01*
X103544178Y-88273047D01*
X103279602Y-88198916D01*
X103279597Y-88198915D01*
X103279596Y-88198915D01*
X103143490Y-88180207D01*
X103007386Y-88161500D01*
X103007385Y-88161500D01*
X102732615Y-88161500D01*
X102732614Y-88161500D01*
X102460404Y-88198915D01*
X102460397Y-88198916D01*
X102195821Y-88273047D01*
X101943801Y-88382514D01*
X101709034Y-88525279D01*
X101495892Y-88698683D01*
X101308340Y-88899500D01*
X101149893Y-89123969D01*
X101149889Y-89123975D01*
X101023476Y-89367943D01*
X100931463Y-89626841D01*
X100931458Y-89626858D01*
X100875558Y-89895867D01*
X100875557Y-89895869D01*
X100856807Y-90170000D01*
X76962500Y-90170000D01*
X76962500Y-86948189D01*
X136901826Y-86948189D01*
X136905415Y-87016676D01*
X136905500Y-87019921D01*
X136905500Y-87041621D01*
X136907768Y-87063199D01*
X136908022Y-87066434D01*
X136911610Y-87134912D01*
X136911611Y-87134915D01*
X136915166Y-87148184D01*
X136918709Y-87167298D01*
X136919832Y-87177985D01*
X136920145Y-87180958D01*
X136941331Y-87246160D01*
X136942252Y-87249271D01*
X136960004Y-87315520D01*
X136966236Y-87327751D01*
X136973681Y-87345724D01*
X136977925Y-87358785D01*
X137012225Y-87418195D01*
X137013751Y-87421005D01*
X137044893Y-87482125D01*
X137053529Y-87492789D01*
X137064549Y-87508824D01*
X137071412Y-87520712D01*
X137071415Y-87520715D01*
X137117311Y-87571688D01*
X137119392Y-87574124D01*
X137131072Y-87588548D01*
X137133058Y-87591000D01*
X137133069Y-87591013D01*
X137148403Y-87606346D01*
X137150637Y-87608701D01*
X137196527Y-87659666D01*
X137196530Y-87659669D01*
X137207643Y-87667743D01*
X137222432Y-87680375D01*
X141554622Y-92012565D01*
X141567257Y-92027358D01*
X141575329Y-92038468D01*
X141575331Y-92038470D01*
X141626298Y-92084361D01*
X141628653Y-92086596D01*
X141643994Y-92101937D01*
X141660877Y-92115608D01*
X141663316Y-92117692D01*
X141714287Y-92163587D01*
X141726170Y-92170447D01*
X141742211Y-92181471D01*
X141752871Y-92190104D01*
X141813972Y-92221237D01*
X141816825Y-92222786D01*
X141876209Y-92257072D01*
X141876215Y-92257075D01*
X141889267Y-92261316D01*
X141907242Y-92268761D01*
X141919475Y-92274994D01*
X141985726Y-92292745D01*
X141988807Y-92293658D01*
X142054044Y-92314855D01*
X142067702Y-92316290D01*
X142086822Y-92319834D01*
X142100085Y-92323388D01*
X142168567Y-92326976D01*
X142171785Y-92327229D01*
X142189014Y-92329041D01*
X142193379Y-92329500D01*
X142193380Y-92329500D01*
X142215084Y-92329500D01*
X142218327Y-92329584D01*
X142286810Y-92333174D01*
X142300366Y-92331026D01*
X142319764Y-92329500D01*
X151980195Y-92329500D01*
X152047234Y-92349185D01*
X152067876Y-92365819D01*
X154393635Y-94691578D01*
X154427120Y-94752901D01*
X154422136Y-94822593D01*
X154380264Y-94878526D01*
X154364714Y-94888453D01*
X154241960Y-94954509D01*
X154241957Y-94954511D01*
X154064353Y-95096145D01*
X153914899Y-95267210D01*
X153914892Y-95267218D01*
X153798384Y-95462218D01*
X153798380Y-95462226D01*
X153785378Y-95496870D01*
X153743392Y-95552717D01*
X153677878Y-95576999D01*
X153609635Y-95562007D01*
X153560332Y-95512500D01*
X153557566Y-95507098D01*
X153487743Y-95362108D01*
X153487737Y-95362098D01*
X153354219Y-95178327D01*
X153354215Y-95178322D01*
X153190023Y-95021340D01*
X153000439Y-94896196D01*
X152791559Y-94806916D01*
X152791550Y-94806913D01*
X152650000Y-94774605D01*
X152650000Y-96075702D01*
X152544592Y-96027565D01*
X152436334Y-96012000D01*
X152363666Y-96012000D01*
X152255408Y-96027565D01*
X152150000Y-96075702D01*
X152150000Y-94772339D01*
X152118040Y-94776669D01*
X152118038Y-94776669D01*
X151901996Y-94846865D01*
X151701960Y-94954509D01*
X151701957Y-94954511D01*
X151524353Y-95096145D01*
X151374899Y-95267210D01*
X151374892Y-95267218D01*
X151258384Y-95462218D01*
X151258381Y-95462223D01*
X151249510Y-95485861D01*
X151207523Y-95541708D01*
X151142008Y-95565989D01*
X151073766Y-95550996D01*
X151024463Y-95501489D01*
X151021698Y-95496088D01*
X150955070Y-95357734D01*
X150955066Y-95357726D01*
X150820648Y-95172715D01*
X150820642Y-95172707D01*
X150655346Y-95014669D01*
X150655347Y-95014669D01*
X150486286Y-94903074D01*
X150464483Y-94888682D01*
X150464481Y-94888681D01*
X150464475Y-94888678D01*
X150254200Y-94798801D01*
X150254187Y-94798797D01*
X150031238Y-94747911D01*
X150031234Y-94747910D01*
X150031233Y-94747910D01*
X150031232Y-94747909D01*
X150031227Y-94747909D01*
X149802772Y-94737649D01*
X149802771Y-94737649D01*
X149802769Y-94737649D01*
X149632801Y-94760673D01*
X149576144Y-94768348D01*
X149576139Y-94768349D01*
X149358642Y-94839018D01*
X149157259Y-94947387D01*
X149157256Y-94947389D01*
X148978456Y-95089977D01*
X148827993Y-95262197D01*
X148827990Y-95262201D01*
X148717870Y-95446510D01*
X148710693Y-95458523D01*
X148710690Y-95458530D01*
X148704407Y-95475269D01*
X148662419Y-95531115D01*
X148596904Y-95555395D01*
X148528662Y-95540401D01*
X148479360Y-95490893D01*
X148476596Y-95485494D01*
X148465816Y-95463110D01*
X148417176Y-95362108D01*
X148415070Y-95357734D01*
X148415066Y-95357726D01*
X148280648Y-95172715D01*
X148280642Y-95172707D01*
X148115346Y-95014669D01*
X148115347Y-95014669D01*
X147946286Y-94903074D01*
X147924483Y-94888682D01*
X147924481Y-94888681D01*
X147924475Y-94888678D01*
X147714200Y-94798801D01*
X147714187Y-94798797D01*
X147491238Y-94747911D01*
X147491234Y-94747910D01*
X147491233Y-94747910D01*
X147491232Y-94747909D01*
X147491227Y-94747909D01*
X147262772Y-94737649D01*
X147262771Y-94737649D01*
X147262769Y-94737649D01*
X147092801Y-94760673D01*
X147036144Y-94768348D01*
X147036139Y-94768349D01*
X146818642Y-94839018D01*
X146617259Y-94947387D01*
X146617256Y-94947389D01*
X146438456Y-95089977D01*
X146287993Y-95262197D01*
X146287990Y-95262201D01*
X146177870Y-95446510D01*
X146170693Y-95458523D01*
X146170690Y-95458530D01*
X146164407Y-95475269D01*
X146122419Y-95531115D01*
X146056904Y-95555395D01*
X145988662Y-95540401D01*
X145939360Y-95490893D01*
X145936596Y-95485494D01*
X145925816Y-95463110D01*
X145877176Y-95362108D01*
X145875070Y-95357734D01*
X145875066Y-95357726D01*
X145740648Y-95172715D01*
X145740642Y-95172707D01*
X145575346Y-95014669D01*
X145575347Y-95014669D01*
X145406286Y-94903074D01*
X145384483Y-94888682D01*
X145384481Y-94888681D01*
X145384475Y-94888678D01*
X145174200Y-94798801D01*
X145174187Y-94798797D01*
X144951238Y-94747911D01*
X144951234Y-94747910D01*
X144951233Y-94747910D01*
X144951232Y-94747909D01*
X144951227Y-94747909D01*
X144722772Y-94737649D01*
X144722771Y-94737649D01*
X144722769Y-94737649D01*
X144552801Y-94760673D01*
X144496144Y-94768348D01*
X144496139Y-94768349D01*
X144278642Y-94839018D01*
X144077259Y-94947387D01*
X144077256Y-94947389D01*
X143898456Y-95089977D01*
X143747993Y-95262197D01*
X143747990Y-95262201D01*
X143637870Y-95446510D01*
X143630693Y-95458523D01*
X143630690Y-95458530D01*
X143624407Y-95475269D01*
X143582419Y-95531115D01*
X143516904Y-95555395D01*
X143448662Y-95540401D01*
X143399360Y-95490893D01*
X143396596Y-95485494D01*
X143385816Y-95463110D01*
X143337176Y-95362108D01*
X143335070Y-95357734D01*
X143335066Y-95357726D01*
X143200648Y-95172715D01*
X143200642Y-95172707D01*
X143035346Y-95014669D01*
X143035347Y-95014669D01*
X142866286Y-94903074D01*
X142844483Y-94888682D01*
X142844481Y-94888681D01*
X142844475Y-94888678D01*
X142634200Y-94798801D01*
X142634187Y-94798797D01*
X142411238Y-94747911D01*
X142411234Y-94747910D01*
X142411233Y-94747910D01*
X142411232Y-94747909D01*
X142411227Y-94747909D01*
X142182772Y-94737649D01*
X142182771Y-94737649D01*
X142182769Y-94737649D01*
X142012801Y-94760673D01*
X141956144Y-94768348D01*
X141956139Y-94768349D01*
X141738642Y-94839018D01*
X141537259Y-94947387D01*
X141537256Y-94947389D01*
X141358456Y-95089977D01*
X141207993Y-95262197D01*
X141207990Y-95262201D01*
X141097870Y-95446510D01*
X141090693Y-95458523D01*
X141090691Y-95458526D01*
X141010334Y-95672635D01*
X140969500Y-95897649D01*
X140969500Y-97085050D01*
X140984864Y-97255774D01*
X141045701Y-97476214D01*
X141045705Y-97476223D01*
X141045706Y-97476226D01*
X141083029Y-97553727D01*
X141144931Y-97682269D01*
X141144933Y-97682273D01*
X141279351Y-97867284D01*
X141279357Y-97867292D01*
X141444653Y-98025330D01*
X141444652Y-98025330D01*
X141444654Y-98025331D01*
X141444655Y-98025332D01*
X141635517Y-98151318D01*
X141635523Y-98151320D01*
X141635524Y-98151321D01*
X141845799Y-98241198D01*
X141845802Y-98241199D01*
X141845807Y-98241201D01*
X142068767Y-98292090D01*
X142297231Y-98302351D01*
X142523855Y-98271652D01*
X142741356Y-98200982D01*
X142942743Y-98092611D01*
X143121544Y-97950022D01*
X143272010Y-97777799D01*
X143389307Y-97581477D01*
X143395590Y-97564735D01*
X143437574Y-97508888D01*
X143503088Y-97484604D01*
X143571331Y-97499595D01*
X143620636Y-97549100D01*
X143623403Y-97554504D01*
X143684931Y-97682269D01*
X143684933Y-97682273D01*
X143819351Y-97867284D01*
X143819357Y-97867292D01*
X143984653Y-98025330D01*
X143984652Y-98025330D01*
X143984654Y-98025331D01*
X143984655Y-98025332D01*
X144175517Y-98151318D01*
X144175523Y-98151320D01*
X144175524Y-98151321D01*
X144385799Y-98241198D01*
X144385802Y-98241199D01*
X144385807Y-98241201D01*
X144608767Y-98292090D01*
X144837231Y-98302351D01*
X145063855Y-98271652D01*
X145281356Y-98200982D01*
X145482743Y-98092611D01*
X145661544Y-97950022D01*
X145812010Y-97777799D01*
X145929307Y-97581477D01*
X145935590Y-97564735D01*
X145977574Y-97508888D01*
X146043088Y-97484604D01*
X146111331Y-97499595D01*
X146160636Y-97549100D01*
X146163403Y-97554504D01*
X146224931Y-97682269D01*
X146224933Y-97682273D01*
X146359351Y-97867284D01*
X146359357Y-97867292D01*
X146524653Y-98025330D01*
X146524652Y-98025330D01*
X146524654Y-98025331D01*
X146524655Y-98025332D01*
X146715517Y-98151318D01*
X146715523Y-98151320D01*
X146715524Y-98151321D01*
X146925799Y-98241198D01*
X146925802Y-98241199D01*
X146925807Y-98241201D01*
X147148767Y-98292090D01*
X147377231Y-98302351D01*
X147603855Y-98271652D01*
X147821356Y-98200982D01*
X148022743Y-98092611D01*
X148201544Y-97950022D01*
X148352010Y-97777799D01*
X148469307Y-97581477D01*
X148475590Y-97564735D01*
X148517574Y-97508888D01*
X148583088Y-97484604D01*
X148651331Y-97499595D01*
X148700636Y-97549100D01*
X148703403Y-97554504D01*
X148764931Y-97682269D01*
X148764933Y-97682273D01*
X148899351Y-97867284D01*
X148899357Y-97867292D01*
X149064653Y-98025330D01*
X149064652Y-98025330D01*
X149064654Y-98025331D01*
X149064655Y-98025332D01*
X149255517Y-98151318D01*
X149255523Y-98151320D01*
X149255524Y-98151321D01*
X149465799Y-98241198D01*
X149465802Y-98241199D01*
X149465807Y-98241201D01*
X149688767Y-98292090D01*
X149917231Y-98302351D01*
X150143855Y-98271652D01*
X150361356Y-98200982D01*
X150562743Y-98092611D01*
X150741544Y-97950022D01*
X150892010Y-97777799D01*
X151009307Y-97581477D01*
X151019722Y-97553724D01*
X151061706Y-97497878D01*
X151127220Y-97473594D01*
X151195463Y-97488585D01*
X151244768Y-97538090D01*
X151247535Y-97543495D01*
X151312256Y-97677891D01*
X151312262Y-97677901D01*
X151445780Y-97861672D01*
X151445784Y-97861677D01*
X151609976Y-98018659D01*
X151799560Y-98143803D01*
X152008439Y-98233083D01*
X152008448Y-98233086D01*
X152149999Y-98265393D01*
X152150000Y-98265393D01*
X152150000Y-96964297D01*
X152255408Y-97012435D01*
X152363666Y-97028000D01*
X152436334Y-97028000D01*
X152544592Y-97012435D01*
X152650000Y-96964297D01*
X152650000Y-98267659D01*
X152681952Y-98263333D01*
X152898003Y-98193134D01*
X153098039Y-98085490D01*
X153098042Y-98085488D01*
X153275646Y-97943854D01*
X153425100Y-97772789D01*
X153425107Y-97772781D01*
X153541615Y-97577781D01*
X153541616Y-97577779D01*
X153554619Y-97543133D01*
X153596604Y-97487284D01*
X153662118Y-97463000D01*
X153730360Y-97477990D01*
X153779665Y-97527496D01*
X153782433Y-97532900D01*
X153852259Y-97677895D01*
X153852262Y-97677901D01*
X153985780Y-97861672D01*
X153985784Y-97861677D01*
X154149976Y-98018659D01*
X154339560Y-98143803D01*
X154548439Y-98233083D01*
X154548448Y-98233086D01*
X154689999Y-98265393D01*
X154690000Y-98265393D01*
X154690000Y-96964297D01*
X154795408Y-97012435D01*
X154903666Y-97028000D01*
X154976334Y-97028000D01*
X155084592Y-97012435D01*
X155190000Y-96964297D01*
X155190000Y-98267659D01*
X155221952Y-98263333D01*
X155438003Y-98193134D01*
X155638039Y-98085490D01*
X155638042Y-98085488D01*
X155815646Y-97943854D01*
X155965100Y-97772789D01*
X155965107Y-97772781D01*
X156081615Y-97577781D01*
X156081616Y-97577779D01*
X156090487Y-97554143D01*
X156132472Y-97498295D01*
X156197986Y-97474010D01*
X156266228Y-97489000D01*
X156315533Y-97538506D01*
X156318301Y-97543910D01*
X156384931Y-97682269D01*
X156384933Y-97682273D01*
X156519351Y-97867284D01*
X156519357Y-97867292D01*
X156684653Y-98025330D01*
X156684652Y-98025330D01*
X156684654Y-98025331D01*
X156684655Y-98025332D01*
X156875517Y-98151318D01*
X156875523Y-98151320D01*
X156875524Y-98151321D01*
X157085799Y-98241198D01*
X157085802Y-98241199D01*
X157085807Y-98241201D01*
X157308767Y-98292090D01*
X157537231Y-98302351D01*
X157763855Y-98271652D01*
X157981356Y-98200982D01*
X158182743Y-98092611D01*
X158361544Y-97950022D01*
X158512010Y-97777799D01*
X158629307Y-97581477D01*
X158635590Y-97564735D01*
X158677574Y-97508888D01*
X158743088Y-97484604D01*
X158811331Y-97499595D01*
X158860636Y-97549100D01*
X158863403Y-97554504D01*
X158924931Y-97682269D01*
X158924933Y-97682273D01*
X159059351Y-97867284D01*
X159059357Y-97867292D01*
X159224653Y-98025330D01*
X159224652Y-98025330D01*
X159224654Y-98025331D01*
X159224655Y-98025332D01*
X159415517Y-98151318D01*
X159415523Y-98151320D01*
X159415524Y-98151321D01*
X159625799Y-98241198D01*
X159625802Y-98241199D01*
X159625807Y-98241201D01*
X159848767Y-98292090D01*
X160077231Y-98302351D01*
X160303855Y-98271652D01*
X160521356Y-98200982D01*
X160722743Y-98092611D01*
X160901544Y-97950022D01*
X161052010Y-97777799D01*
X161169307Y-97581477D01*
X161175590Y-97564735D01*
X161217574Y-97508888D01*
X161283088Y-97484604D01*
X161351331Y-97499595D01*
X161400636Y-97549100D01*
X161403403Y-97554504D01*
X161464931Y-97682269D01*
X161464933Y-97682273D01*
X161599351Y-97867284D01*
X161599357Y-97867292D01*
X161764653Y-98025330D01*
X161764652Y-98025330D01*
X161764654Y-98025331D01*
X161764655Y-98025332D01*
X161955517Y-98151318D01*
X161955523Y-98151320D01*
X161955524Y-98151321D01*
X162165799Y-98241198D01*
X162165802Y-98241199D01*
X162165807Y-98241201D01*
X162388767Y-98292090D01*
X162617231Y-98302351D01*
X162843855Y-98271652D01*
X163061356Y-98200982D01*
X163262743Y-98092611D01*
X163441544Y-97950022D01*
X163592010Y-97777799D01*
X163709307Y-97581477D01*
X163715590Y-97564735D01*
X163757574Y-97508888D01*
X163823088Y-97484604D01*
X163891331Y-97499595D01*
X163940636Y-97549100D01*
X163943403Y-97554504D01*
X164004931Y-97682269D01*
X164004933Y-97682273D01*
X164139351Y-97867284D01*
X164139357Y-97867292D01*
X164304653Y-98025330D01*
X164304652Y-98025330D01*
X164304654Y-98025331D01*
X164304655Y-98025332D01*
X164495517Y-98151318D01*
X164495523Y-98151320D01*
X164495524Y-98151321D01*
X164705799Y-98241198D01*
X164705802Y-98241199D01*
X164705807Y-98241201D01*
X164928767Y-98292090D01*
X165157231Y-98302351D01*
X165383855Y-98271652D01*
X165601356Y-98200982D01*
X165802743Y-98092611D01*
X165981544Y-97950022D01*
X166132010Y-97777799D01*
X166249307Y-97581477D01*
X166255590Y-97564735D01*
X166297574Y-97508888D01*
X166363088Y-97484604D01*
X166431331Y-97499595D01*
X166480636Y-97549100D01*
X166483403Y-97554504D01*
X166544931Y-97682269D01*
X166544933Y-97682273D01*
X166679351Y-97867284D01*
X166679357Y-97867292D01*
X166844653Y-98025330D01*
X166844652Y-98025330D01*
X166844654Y-98025331D01*
X166844655Y-98025332D01*
X167035517Y-98151318D01*
X167035523Y-98151320D01*
X167035524Y-98151321D01*
X167245799Y-98241198D01*
X167245803Y-98241199D01*
X167245807Y-98241201D01*
X167245810Y-98241201D01*
X167245814Y-98241203D01*
X167282929Y-98249674D01*
X167343908Y-98283782D01*
X167376767Y-98345443D01*
X167371072Y-98415080D01*
X167343019Y-98458246D01*
X162333086Y-103468181D01*
X162271763Y-103501666D01*
X162245405Y-103504500D01*
X158071827Y-103504500D01*
X158056047Y-103502758D01*
X158056022Y-103503026D01*
X158048261Y-103502292D01*
X157977995Y-103504500D01*
X157947993Y-103504500D01*
X157940953Y-103505388D01*
X157935140Y-103505845D01*
X157887780Y-103507334D01*
X157887774Y-103507335D01*
X157868073Y-103513058D01*
X157849034Y-103517000D01*
X157828691Y-103519571D01*
X157828683Y-103519572D01*
X157828681Y-103519573D01*
X157828679Y-103519573D01*
X157828673Y-103519575D01*
X157784625Y-103537014D01*
X157779102Y-103538905D01*
X157733589Y-103552130D01*
X157733587Y-103552130D01*
X157733587Y-103552131D01*
X157715928Y-103562573D01*
X157698463Y-103571129D01*
X157679395Y-103578678D01*
X157679391Y-103578681D01*
X157641052Y-103606534D01*
X157636172Y-103609740D01*
X157595380Y-103633865D01*
X157580878Y-103648368D01*
X157566088Y-103661000D01*
X157549495Y-103673055D01*
X157549492Y-103673058D01*
X157519281Y-103709576D01*
X157515348Y-103713897D01*
X156488160Y-104741087D01*
X155494086Y-105735161D01*
X155432763Y-105768646D01*
X155406405Y-105771480D01*
X155352513Y-105771480D01*
X155165714Y-105811185D01*
X154991246Y-105888863D01*
X154836745Y-106001115D01*
X154708959Y-106143037D01*
X154613473Y-106308423D01*
X154613470Y-106308430D01*
X154577310Y-106419720D01*
X154554458Y-106490052D01*
X154534496Y-106679980D01*
X154554458Y-106869908D01*
X154554465Y-106869931D01*
X154613470Y-107051529D01*
X154613473Y-107051536D01*
X154708960Y-107216924D01*
X154797718Y-107315500D01*
X154832845Y-107354513D01*
X154836747Y-107358846D01*
X154991248Y-107471098D01*
X155165712Y-107548774D01*
X155352513Y-107588480D01*
X155543487Y-107588480D01*
X155730288Y-107548774D01*
X155904752Y-107471098D01*
X156059253Y-107358846D01*
X156187040Y-107216924D01*
X156282527Y-107051536D01*
X156341542Y-106869908D01*
X156358649Y-106707138D01*
X156385232Y-106642527D01*
X156394279Y-106632431D01*
X158214893Y-104811819D01*
X158276216Y-104778334D01*
X158302574Y-104775500D01*
X162476153Y-104775500D01*
X162491932Y-104777241D01*
X162491958Y-104776974D01*
X162499711Y-104777706D01*
X162499719Y-104777708D01*
X162569985Y-104775500D01*
X162599983Y-104775500D01*
X162607013Y-104774611D01*
X162612836Y-104774153D01*
X162660205Y-104772665D01*
X162679906Y-104766940D01*
X162698951Y-104762997D01*
X162719299Y-104760427D01*
X162763393Y-104742968D01*
X162768856Y-104741098D01*
X162814393Y-104727869D01*
X162832054Y-104717423D01*
X162849512Y-104708871D01*
X162868588Y-104701319D01*
X162906928Y-104673462D01*
X162911800Y-104670261D01*
X162952598Y-104646134D01*
X162967094Y-104631637D01*
X162981892Y-104618998D01*
X162998487Y-104606942D01*
X163028707Y-104570410D01*
X163032621Y-104566109D01*
X169427013Y-98171717D01*
X169488334Y-98138234D01*
X169558026Y-98143218D01*
X169573462Y-98150212D01*
X169575523Y-98151321D01*
X169785799Y-98241198D01*
X169785802Y-98241199D01*
X169785807Y-98241201D01*
X170008767Y-98292090D01*
X170237231Y-98302351D01*
X170463855Y-98271652D01*
X170681356Y-98200982D01*
X170882743Y-98092611D01*
X171061544Y-97950022D01*
X171212010Y-97777799D01*
X171329307Y-97581477D01*
X171335590Y-97564735D01*
X171377574Y-97508888D01*
X171443088Y-97484604D01*
X171511331Y-97499595D01*
X171560636Y-97549100D01*
X171563403Y-97554504D01*
X171624931Y-97682269D01*
X171624933Y-97682273D01*
X171759351Y-97867284D01*
X171759357Y-97867292D01*
X171924653Y-98025330D01*
X171924652Y-98025330D01*
X171924654Y-98025331D01*
X171924655Y-98025332D01*
X172115517Y-98151318D01*
X172115523Y-98151320D01*
X172115524Y-98151321D01*
X172325799Y-98241198D01*
X172325802Y-98241199D01*
X172325807Y-98241201D01*
X172548767Y-98292090D01*
X172777231Y-98302351D01*
X173003855Y-98271652D01*
X173221356Y-98200982D01*
X173422743Y-98092611D01*
X173601544Y-97950022D01*
X173752010Y-97777799D01*
X173869307Y-97581477D01*
X173875590Y-97564735D01*
X173917574Y-97508888D01*
X173983088Y-97484604D01*
X174051331Y-97499595D01*
X174100636Y-97549100D01*
X174103403Y-97554504D01*
X174164931Y-97682269D01*
X174164933Y-97682273D01*
X174299351Y-97867284D01*
X174299357Y-97867292D01*
X174464653Y-98025330D01*
X174464652Y-98025330D01*
X174464654Y-98025331D01*
X174464655Y-98025332D01*
X174655517Y-98151318D01*
X174655523Y-98151320D01*
X174655524Y-98151321D01*
X174865799Y-98241198D01*
X174865802Y-98241199D01*
X174865807Y-98241201D01*
X175088767Y-98292090D01*
X175317231Y-98302351D01*
X175543855Y-98271652D01*
X175761356Y-98200982D01*
X175962743Y-98092611D01*
X176141544Y-97950022D01*
X176292010Y-97777799D01*
X176409307Y-97581477D01*
X176489665Y-97367366D01*
X176509916Y-97255773D01*
X176530500Y-97142350D01*
X176530500Y-95954953D01*
X176530500Y-95954946D01*
X176515135Y-95784227D01*
X176515135Y-95784225D01*
X176454298Y-95563785D01*
X176454295Y-95563779D01*
X176454294Y-95563774D01*
X176357176Y-95362108D01*
X176355068Y-95357730D01*
X176355066Y-95357726D01*
X176220648Y-95172715D01*
X176220642Y-95172707D01*
X176055346Y-95014669D01*
X176055347Y-95014669D01*
X175886286Y-94903074D01*
X175864483Y-94888682D01*
X175864481Y-94888681D01*
X175864475Y-94888678D01*
X175654200Y-94798801D01*
X175654187Y-94798797D01*
X175431238Y-94747911D01*
X175431234Y-94747910D01*
X175431233Y-94747910D01*
X175431232Y-94747909D01*
X175431227Y-94747909D01*
X175202772Y-94737649D01*
X175202771Y-94737649D01*
X175202769Y-94737649D01*
X175032801Y-94760673D01*
X174976144Y-94768348D01*
X174976139Y-94768349D01*
X174758642Y-94839018D01*
X174557259Y-94947387D01*
X174557256Y-94947389D01*
X174378456Y-95089977D01*
X174227993Y-95262197D01*
X174227990Y-95262201D01*
X174117870Y-95446510D01*
X174110693Y-95458523D01*
X174110690Y-95458530D01*
X174104407Y-95475269D01*
X174062419Y-95531115D01*
X173996904Y-95555395D01*
X173928662Y-95540401D01*
X173879360Y-95490893D01*
X173876596Y-95485494D01*
X173865816Y-95463110D01*
X173817176Y-95362108D01*
X173815070Y-95357734D01*
X173815066Y-95357726D01*
X173680648Y-95172715D01*
X173680642Y-95172707D01*
X173515346Y-95014669D01*
X173515347Y-95014669D01*
X173346286Y-94903074D01*
X173324483Y-94888682D01*
X173324481Y-94888681D01*
X173324475Y-94888678D01*
X173114200Y-94798801D01*
X173114187Y-94798797D01*
X172891238Y-94747911D01*
X172891234Y-94747910D01*
X172891233Y-94747910D01*
X172891232Y-94747909D01*
X172891227Y-94747909D01*
X172662772Y-94737649D01*
X172662771Y-94737649D01*
X172662769Y-94737649D01*
X172492801Y-94760673D01*
X172436144Y-94768348D01*
X172436139Y-94768349D01*
X172218642Y-94839018D01*
X172017259Y-94947387D01*
X172017256Y-94947389D01*
X171838456Y-95089977D01*
X171687993Y-95262197D01*
X171687990Y-95262201D01*
X171577870Y-95446510D01*
X171570693Y-95458523D01*
X171570690Y-95458530D01*
X171564407Y-95475269D01*
X171522419Y-95531115D01*
X171456904Y-95555395D01*
X171388662Y-95540401D01*
X171339360Y-95490893D01*
X171336596Y-95485494D01*
X171325816Y-95463110D01*
X171277176Y-95362108D01*
X171275070Y-95357734D01*
X171275066Y-95357726D01*
X171140648Y-95172715D01*
X171140642Y-95172707D01*
X170975346Y-95014669D01*
X170975347Y-95014669D01*
X170806286Y-94903074D01*
X170784483Y-94888682D01*
X170784481Y-94888681D01*
X170784475Y-94888678D01*
X170574200Y-94798801D01*
X170574187Y-94798797D01*
X170351238Y-94747911D01*
X170351234Y-94747910D01*
X170351233Y-94747910D01*
X170351232Y-94747909D01*
X170351227Y-94747909D01*
X170122772Y-94737649D01*
X170122771Y-94737649D01*
X170122769Y-94737649D01*
X169952801Y-94760673D01*
X169896144Y-94768348D01*
X169896139Y-94768349D01*
X169678642Y-94839018D01*
X169477259Y-94947387D01*
X169477256Y-94947389D01*
X169298456Y-95089977D01*
X169147993Y-95262197D01*
X169147990Y-95262201D01*
X169037870Y-95446510D01*
X169030693Y-95458523D01*
X169030690Y-95458530D01*
X169024407Y-95475269D01*
X168982419Y-95531115D01*
X168916904Y-95555395D01*
X168848662Y-95540401D01*
X168799360Y-95490893D01*
X168796596Y-95485494D01*
X168785816Y-95463110D01*
X168737176Y-95362108D01*
X168735070Y-95357734D01*
X168735066Y-95357726D01*
X168600648Y-95172715D01*
X168600642Y-95172707D01*
X168435346Y-95014669D01*
X168435347Y-95014669D01*
X168266286Y-94903074D01*
X168244483Y-94888682D01*
X168244481Y-94888681D01*
X168244475Y-94888678D01*
X168034200Y-94798801D01*
X168034187Y-94798797D01*
X167811238Y-94747911D01*
X167811234Y-94747910D01*
X167811233Y-94747910D01*
X167811232Y-94747909D01*
X167811227Y-94747909D01*
X167582772Y-94737649D01*
X167582771Y-94737649D01*
X167582769Y-94737649D01*
X167412801Y-94760673D01*
X167356144Y-94768348D01*
X167356139Y-94768349D01*
X167138642Y-94839018D01*
X166937259Y-94947387D01*
X166937256Y-94947389D01*
X166758456Y-95089977D01*
X166607993Y-95262197D01*
X166607990Y-95262201D01*
X166497870Y-95446510D01*
X166490693Y-95458523D01*
X166490690Y-95458530D01*
X166484407Y-95475269D01*
X166442419Y-95531115D01*
X166376904Y-95555395D01*
X166308662Y-95540401D01*
X166259360Y-95490893D01*
X166256596Y-95485494D01*
X166245816Y-95463110D01*
X166197176Y-95362108D01*
X166195070Y-95357734D01*
X166195066Y-95357726D01*
X166060648Y-95172715D01*
X166060642Y-95172707D01*
X165895346Y-95014669D01*
X165895347Y-95014669D01*
X165726286Y-94903074D01*
X165704483Y-94888682D01*
X165704481Y-94888681D01*
X165704475Y-94888678D01*
X165494200Y-94798801D01*
X165494187Y-94798797D01*
X165271238Y-94747911D01*
X165271234Y-94747910D01*
X165271233Y-94747910D01*
X165271232Y-94747909D01*
X165271227Y-94747909D01*
X165042772Y-94737649D01*
X165042771Y-94737649D01*
X165042769Y-94737649D01*
X164872801Y-94760673D01*
X164816144Y-94768348D01*
X164816139Y-94768349D01*
X164598642Y-94839018D01*
X164397259Y-94947387D01*
X164397256Y-94947389D01*
X164218456Y-95089977D01*
X164067993Y-95262197D01*
X164067990Y-95262201D01*
X163957870Y-95446510D01*
X163950693Y-95458523D01*
X163950690Y-95458530D01*
X163944407Y-95475269D01*
X163902419Y-95531115D01*
X163836904Y-95555395D01*
X163768662Y-95540401D01*
X163719360Y-95490893D01*
X163716596Y-95485494D01*
X163705816Y-95463110D01*
X163657176Y-95362108D01*
X163655070Y-95357734D01*
X163655066Y-95357726D01*
X163520648Y-95172715D01*
X163520642Y-95172707D01*
X163355346Y-95014669D01*
X163355347Y-95014669D01*
X163186286Y-94903074D01*
X163164483Y-94888682D01*
X163164481Y-94888681D01*
X163164475Y-94888678D01*
X162954200Y-94798801D01*
X162954187Y-94798797D01*
X162731238Y-94747911D01*
X162731234Y-94747910D01*
X162731233Y-94747910D01*
X162731232Y-94747909D01*
X162731227Y-94747909D01*
X162502772Y-94737649D01*
X162502771Y-94737649D01*
X162502769Y-94737649D01*
X162332801Y-94760673D01*
X162276144Y-94768348D01*
X162276139Y-94768349D01*
X162058642Y-94839018D01*
X161857259Y-94947387D01*
X161857256Y-94947389D01*
X161678456Y-95089977D01*
X161527993Y-95262197D01*
X161527990Y-95262201D01*
X161417870Y-95446510D01*
X161410693Y-95458523D01*
X161410690Y-95458530D01*
X161404407Y-95475269D01*
X161362419Y-95531115D01*
X161296904Y-95555395D01*
X161228662Y-95540401D01*
X161179360Y-95490893D01*
X161176596Y-95485494D01*
X161165816Y-95463110D01*
X161117176Y-95362108D01*
X161115070Y-95357734D01*
X161115066Y-95357726D01*
X160980648Y-95172715D01*
X160980642Y-95172707D01*
X160815346Y-95014669D01*
X160815347Y-95014669D01*
X160646286Y-94903074D01*
X160624483Y-94888682D01*
X160624481Y-94888681D01*
X160624475Y-94888678D01*
X160414200Y-94798801D01*
X160414187Y-94798797D01*
X160191238Y-94747911D01*
X160191234Y-94747910D01*
X160191233Y-94747910D01*
X160191232Y-94747909D01*
X160191227Y-94747909D01*
X159962772Y-94737649D01*
X159962771Y-94737649D01*
X159962769Y-94737649D01*
X159792801Y-94760673D01*
X159736144Y-94768348D01*
X159736139Y-94768349D01*
X159518642Y-94839018D01*
X159317259Y-94947387D01*
X159317256Y-94947389D01*
X159138456Y-95089977D01*
X158987993Y-95262197D01*
X158987990Y-95262201D01*
X158877870Y-95446510D01*
X158870693Y-95458523D01*
X158870690Y-95458530D01*
X158864407Y-95475269D01*
X158822419Y-95531115D01*
X158756904Y-95555395D01*
X158688662Y-95540401D01*
X158639360Y-95490893D01*
X158636596Y-95485494D01*
X158625816Y-95463110D01*
X158577176Y-95362108D01*
X158575070Y-95357734D01*
X158575066Y-95357726D01*
X158440648Y-95172715D01*
X158440642Y-95172707D01*
X158275346Y-95014669D01*
X158275347Y-95014669D01*
X158106286Y-94903074D01*
X158084483Y-94888682D01*
X158084481Y-94888681D01*
X158084475Y-94888678D01*
X157874200Y-94798801D01*
X157874187Y-94798797D01*
X157651238Y-94747911D01*
X157651234Y-94747910D01*
X157651233Y-94747910D01*
X157651232Y-94747909D01*
X157651227Y-94747909D01*
X157422772Y-94737649D01*
X157422771Y-94737649D01*
X157422769Y-94737649D01*
X157212888Y-94766080D01*
X157196145Y-94768348D01*
X157196136Y-94768350D01*
X157110021Y-94796330D01*
X157040180Y-94798325D01*
X156984023Y-94766080D01*
X153085375Y-90867432D01*
X153072743Y-90852643D01*
X153064669Y-90841530D01*
X153064666Y-90841527D01*
X153013701Y-90795637D01*
X153011346Y-90793403D01*
X152996013Y-90778069D01*
X152996000Y-90778058D01*
X152993548Y-90776072D01*
X152979124Y-90764392D01*
X152976688Y-90762311D01*
X152925715Y-90716415D01*
X152925712Y-90716412D01*
X152913824Y-90709549D01*
X152897789Y-90698529D01*
X152887125Y-90689893D01*
X152887124Y-90689892D01*
X152862427Y-90677308D01*
X152826005Y-90658751D01*
X152823195Y-90657225D01*
X152763785Y-90622925D01*
X152750724Y-90618681D01*
X152732751Y-90611236D01*
X152720520Y-90605004D01*
X152654271Y-90587252D01*
X152651168Y-90586333D01*
X152633423Y-90580568D01*
X152585958Y-90565145D01*
X152582985Y-90564832D01*
X152572298Y-90563709D01*
X152553184Y-90560166D01*
X152543209Y-90557493D01*
X152539912Y-90556610D01*
X152471434Y-90553022D01*
X152468199Y-90552768D01*
X152446621Y-90550500D01*
X152446620Y-90550500D01*
X152424922Y-90550500D01*
X152421678Y-90550415D01*
X152353190Y-90546826D01*
X152353189Y-90546826D01*
X152345601Y-90548027D01*
X152339633Y-90548973D01*
X152320236Y-90550500D01*
X142659805Y-90550500D01*
X142592766Y-90530815D01*
X142572124Y-90514181D01*
X138720819Y-86662876D01*
X138687334Y-86601553D01*
X138684500Y-86575195D01*
X138684500Y-81845050D01*
X140969500Y-81845050D01*
X140984864Y-82015774D01*
X141045701Y-82236214D01*
X141045705Y-82236223D01*
X141045706Y-82236226D01*
X141083403Y-82314504D01*
X141144931Y-82442269D01*
X141144933Y-82442273D01*
X141279351Y-82627284D01*
X141279357Y-82627292D01*
X141444653Y-82785330D01*
X141444652Y-82785330D01*
X141444654Y-82785331D01*
X141444655Y-82785332D01*
X141635517Y-82911318D01*
X141635523Y-82911320D01*
X141635524Y-82911321D01*
X141845799Y-83001198D01*
X141845802Y-83001199D01*
X141845807Y-83001201D01*
X142068767Y-83052090D01*
X142297231Y-83062351D01*
X142523855Y-83031652D01*
X142741356Y-82960982D01*
X142942743Y-82852611D01*
X143121544Y-82710022D01*
X143272010Y-82537799D01*
X143389307Y-82341477D01*
X143395590Y-82324735D01*
X143437574Y-82268888D01*
X143503088Y-82244604D01*
X143571331Y-82259595D01*
X143620636Y-82309100D01*
X143623403Y-82314504D01*
X143684931Y-82442269D01*
X143684933Y-82442273D01*
X143819351Y-82627284D01*
X143819357Y-82627292D01*
X143984653Y-82785330D01*
X143984652Y-82785330D01*
X143984654Y-82785331D01*
X143984655Y-82785332D01*
X144175517Y-82911318D01*
X144175523Y-82911320D01*
X144175524Y-82911321D01*
X144385799Y-83001198D01*
X144385802Y-83001199D01*
X144385807Y-83001201D01*
X144608767Y-83052090D01*
X144837231Y-83062351D01*
X145063855Y-83031652D01*
X145281356Y-82960982D01*
X145482743Y-82852611D01*
X145661544Y-82710022D01*
X145812010Y-82537799D01*
X145929307Y-82341477D01*
X145935590Y-82324735D01*
X145977574Y-82268888D01*
X146043088Y-82244604D01*
X146111331Y-82259595D01*
X146160636Y-82309100D01*
X146163403Y-82314504D01*
X146224931Y-82442269D01*
X146224933Y-82442273D01*
X146359351Y-82627284D01*
X146359357Y-82627292D01*
X146524653Y-82785330D01*
X146524652Y-82785330D01*
X146524654Y-82785331D01*
X146524655Y-82785332D01*
X146715517Y-82911318D01*
X146715523Y-82911320D01*
X146715524Y-82911321D01*
X146925799Y-83001198D01*
X146925802Y-83001199D01*
X146925807Y-83001201D01*
X147148767Y-83052090D01*
X147377231Y-83062351D01*
X147603855Y-83031652D01*
X147821356Y-82960982D01*
X148022743Y-82852611D01*
X148201544Y-82710022D01*
X148352010Y-82537799D01*
X148469307Y-82341477D01*
X148475590Y-82324735D01*
X148517574Y-82268888D01*
X148583088Y-82244604D01*
X148651331Y-82259595D01*
X148700636Y-82309100D01*
X148703403Y-82314504D01*
X148764931Y-82442269D01*
X148764933Y-82442273D01*
X148899351Y-82627284D01*
X148899357Y-82627292D01*
X149064653Y-82785330D01*
X149064652Y-82785330D01*
X149064654Y-82785331D01*
X149064655Y-82785332D01*
X149255517Y-82911318D01*
X149255523Y-82911320D01*
X149255524Y-82911321D01*
X149465799Y-83001198D01*
X149465802Y-83001199D01*
X149465807Y-83001201D01*
X149688767Y-83052090D01*
X149917231Y-83062351D01*
X150143855Y-83031652D01*
X150361356Y-82960982D01*
X150562743Y-82852611D01*
X150741544Y-82710022D01*
X150892010Y-82537799D01*
X151009307Y-82341477D01*
X151015590Y-82324735D01*
X151057574Y-82268888D01*
X151123088Y-82244604D01*
X151191331Y-82259595D01*
X151240636Y-82309100D01*
X151243403Y-82314504D01*
X151304931Y-82442269D01*
X151304933Y-82442273D01*
X151439351Y-82627284D01*
X151439357Y-82627292D01*
X151604653Y-82785330D01*
X151604652Y-82785330D01*
X151604654Y-82785331D01*
X151604655Y-82785332D01*
X151795517Y-82911318D01*
X151795523Y-82911320D01*
X151795524Y-82911321D01*
X152005799Y-83001198D01*
X152005802Y-83001199D01*
X152005807Y-83001201D01*
X152228767Y-83052090D01*
X152457231Y-83062351D01*
X152683855Y-83031652D01*
X152901356Y-82960982D01*
X153102743Y-82852611D01*
X153281544Y-82710022D01*
X153432010Y-82537799D01*
X153549307Y-82341477D01*
X153555590Y-82324735D01*
X153597574Y-82268888D01*
X153663088Y-82244604D01*
X153731331Y-82259595D01*
X153780636Y-82309100D01*
X153783403Y-82314504D01*
X153844931Y-82442269D01*
X153844933Y-82442273D01*
X153979351Y-82627284D01*
X153979357Y-82627292D01*
X154144653Y-82785330D01*
X154144652Y-82785330D01*
X154144654Y-82785331D01*
X154144655Y-82785332D01*
X154335517Y-82911318D01*
X154335523Y-82911320D01*
X154335524Y-82911321D01*
X154545799Y-83001198D01*
X154545802Y-83001199D01*
X154545807Y-83001201D01*
X154768767Y-83052090D01*
X154997231Y-83062351D01*
X155223855Y-83031652D01*
X155441356Y-82960982D01*
X155642743Y-82852611D01*
X155821544Y-82710022D01*
X155972010Y-82537799D01*
X156089307Y-82341477D01*
X156095590Y-82324735D01*
X156137574Y-82268888D01*
X156203088Y-82244604D01*
X156271331Y-82259595D01*
X156320636Y-82309100D01*
X156323403Y-82314504D01*
X156384931Y-82442269D01*
X156384933Y-82442273D01*
X156519351Y-82627284D01*
X156519357Y-82627292D01*
X156684653Y-82785330D01*
X156684652Y-82785330D01*
X156684654Y-82785331D01*
X156684655Y-82785332D01*
X156875517Y-82911318D01*
X156875523Y-82911320D01*
X156875524Y-82911321D01*
X157085799Y-83001198D01*
X157085802Y-83001199D01*
X157085807Y-83001201D01*
X157308767Y-83052090D01*
X157537231Y-83062351D01*
X157763855Y-83031652D01*
X157981356Y-82960982D01*
X158182743Y-82852611D01*
X158361544Y-82710022D01*
X158512010Y-82537799D01*
X158629307Y-82341477D01*
X158635590Y-82324735D01*
X158677574Y-82268888D01*
X158743088Y-82244604D01*
X158811331Y-82259595D01*
X158860636Y-82309100D01*
X158863403Y-82314504D01*
X158924931Y-82442269D01*
X158924933Y-82442273D01*
X159059351Y-82627284D01*
X159059357Y-82627292D01*
X159224653Y-82785330D01*
X159224652Y-82785330D01*
X159224654Y-82785331D01*
X159224655Y-82785332D01*
X159415517Y-82911318D01*
X159415523Y-82911320D01*
X159415524Y-82911321D01*
X159625799Y-83001198D01*
X159625802Y-83001199D01*
X159625807Y-83001201D01*
X159848767Y-83052090D01*
X160077231Y-83062351D01*
X160303855Y-83031652D01*
X160521356Y-82960982D01*
X160722743Y-82852611D01*
X160901544Y-82710022D01*
X161052010Y-82537799D01*
X161169307Y-82341477D01*
X161175590Y-82324735D01*
X161217574Y-82268888D01*
X161283088Y-82244604D01*
X161351331Y-82259595D01*
X161400636Y-82309100D01*
X161403403Y-82314504D01*
X161464931Y-82442269D01*
X161464933Y-82442273D01*
X161599351Y-82627284D01*
X161599357Y-82627292D01*
X161764653Y-82785330D01*
X161764652Y-82785330D01*
X161764654Y-82785331D01*
X161764655Y-82785332D01*
X161955517Y-82911318D01*
X161955523Y-82911320D01*
X161955524Y-82911321D01*
X162165799Y-83001198D01*
X162165802Y-83001199D01*
X162165807Y-83001201D01*
X162388767Y-83052090D01*
X162617231Y-83062351D01*
X162843855Y-83031652D01*
X163061356Y-82960982D01*
X163262743Y-82852611D01*
X163441544Y-82710022D01*
X163592010Y-82537799D01*
X163709307Y-82341477D01*
X163715590Y-82324735D01*
X163757574Y-82268888D01*
X163823088Y-82244604D01*
X163891331Y-82259595D01*
X163940636Y-82309100D01*
X163943403Y-82314504D01*
X164004931Y-82442269D01*
X164004933Y-82442273D01*
X164139351Y-82627284D01*
X164139357Y-82627292D01*
X164304653Y-82785330D01*
X164304652Y-82785330D01*
X164304654Y-82785331D01*
X164304655Y-82785332D01*
X164495517Y-82911318D01*
X164495523Y-82911320D01*
X164495524Y-82911321D01*
X164705799Y-83001198D01*
X164705802Y-83001199D01*
X164705807Y-83001201D01*
X164928767Y-83052090D01*
X165157231Y-83062351D01*
X165383855Y-83031652D01*
X165601356Y-82960982D01*
X165702756Y-82906415D01*
X165771118Y-82891982D01*
X165836432Y-82916799D01*
X165849197Y-82927929D01*
X179628181Y-96706913D01*
X179661666Y-96768236D01*
X179664500Y-96794594D01*
X179664500Y-111485405D01*
X179644815Y-111552444D01*
X179628181Y-111573086D01*
X177846086Y-113355181D01*
X177784763Y-113388666D01*
X177758405Y-113391500D01*
X177704513Y-113391500D01*
X177517714Y-113431205D01*
X177343246Y-113508883D01*
X177188745Y-113621135D01*
X177060959Y-113763057D01*
X176965473Y-113928443D01*
X176965470Y-113928450D01*
X176906459Y-114110068D01*
X176906458Y-114110072D01*
X176886496Y-114300000D01*
X176906458Y-114489928D01*
X176906459Y-114489931D01*
X176965470Y-114671549D01*
X176965473Y-114671556D01*
X177060960Y-114836944D01*
X177188747Y-114978866D01*
X177343248Y-115091118D01*
X177517712Y-115168794D01*
X177704513Y-115208500D01*
X177895487Y-115208500D01*
X178082288Y-115168794D01*
X178256752Y-115091118D01*
X178411253Y-114978866D01*
X178539040Y-114836944D01*
X178634527Y-114671556D01*
X178693542Y-114489928D01*
X178710649Y-114327159D01*
X178737232Y-114262548D01*
X178746279Y-114252452D01*
X180690075Y-112308656D01*
X180702458Y-112298738D01*
X180702286Y-112298530D01*
X180708292Y-112293559D01*
X180708303Y-112293553D01*
X180756426Y-112242306D01*
X180777639Y-112221094D01*
X180781993Y-112215479D01*
X180785768Y-112211058D01*
X180818217Y-112176506D01*
X180828094Y-112158537D01*
X180838779Y-112142272D01*
X180851350Y-112126067D01*
X180870183Y-112082543D01*
X180872732Y-112077341D01*
X180895569Y-112035803D01*
X180900670Y-112015930D01*
X180906969Y-111997534D01*
X180915117Y-111978708D01*
X180919995Y-111947903D01*
X180922530Y-111931902D01*
X180923715Y-111926178D01*
X180924137Y-111924531D01*
X180935500Y-111880282D01*
X180935500Y-111859774D01*
X180937027Y-111840374D01*
X180940235Y-111820121D01*
X180935775Y-111772939D01*
X180935500Y-111767101D01*
X180935500Y-96563847D01*
X180937241Y-96548067D01*
X180936974Y-96548042D01*
X180937706Y-96540288D01*
X180937708Y-96540281D01*
X180935500Y-96470014D01*
X180935500Y-96440017D01*
X180934611Y-96432984D01*
X180934153Y-96427162D01*
X180932665Y-96379795D01*
X180926941Y-96360093D01*
X180922997Y-96341049D01*
X180920427Y-96320701D01*
X180902973Y-96276618D01*
X180901098Y-96271142D01*
X180887869Y-96225607D01*
X180877427Y-96207951D01*
X180868870Y-96190484D01*
X180862041Y-96173236D01*
X180861319Y-96171412D01*
X180833462Y-96133070D01*
X180830253Y-96128185D01*
X180806137Y-96087406D01*
X180806136Y-96087405D01*
X180806134Y-96087401D01*
X180806131Y-96087398D01*
X180806129Y-96087395D01*
X180791633Y-96072899D01*
X180778995Y-96058103D01*
X180766942Y-96041513D01*
X180730422Y-96011301D01*
X180726100Y-96007367D01*
X167936009Y-83217276D01*
X167902524Y-83155953D01*
X167907508Y-83086261D01*
X167949380Y-83030328D01*
X167985372Y-83011664D01*
X168141356Y-82960982D01*
X168242756Y-82906415D01*
X168311118Y-82891982D01*
X168376432Y-82916799D01*
X168389197Y-82927929D01*
X181573181Y-96111913D01*
X181606666Y-96173236D01*
X181609500Y-96199594D01*
X181609500Y-113212205D01*
X181607304Y-113235436D01*
X181605713Y-113243776D01*
X181605713Y-113243779D01*
X181609378Y-113302042D01*
X181609500Y-113305915D01*
X181609500Y-113323996D01*
X181611763Y-113341903D01*
X181612130Y-113345781D01*
X181615795Y-113404027D01*
X181615795Y-113404028D01*
X181618419Y-113412105D01*
X181623506Y-113434863D01*
X181624571Y-113443292D01*
X181624574Y-113443302D01*
X181646058Y-113497564D01*
X181647378Y-113501230D01*
X181665412Y-113556735D01*
X181669958Y-113563897D01*
X181680556Y-113584694D01*
X181683681Y-113592588D01*
X181717991Y-113639814D01*
X181720180Y-113643035D01*
X181751443Y-113692298D01*
X181751449Y-113692305D01*
X181757637Y-113698116D01*
X181773067Y-113715618D01*
X181778058Y-113722487D01*
X181814436Y-113752581D01*
X181823022Y-113759684D01*
X181825935Y-113762251D01*
X181868494Y-113802217D01*
X181875929Y-113806304D01*
X181895232Y-113819421D01*
X181901776Y-113824835D01*
X181954588Y-113849686D01*
X181958047Y-113851450D01*
X182009194Y-113879568D01*
X182009199Y-113879570D01*
X182017418Y-113881680D01*
X182039381Y-113889587D01*
X182047059Y-113893200D01*
X182104400Y-113904138D01*
X182108172Y-113904981D01*
X182164718Y-113919500D01*
X182173206Y-113919500D01*
X182196437Y-113921696D01*
X182197989Y-113921992D01*
X182260153Y-113953887D01*
X182266901Y-113960816D01*
X182268747Y-113962866D01*
X182423248Y-114075118D01*
X182597712Y-114152794D01*
X182784513Y-114192500D01*
X182975487Y-114192500D01*
X183162288Y-114152794D01*
X183336752Y-114075118D01*
X183336755Y-114075115D01*
X183340065Y-114073642D01*
X183409315Y-114064358D01*
X183472591Y-114093986D01*
X183509804Y-114153121D01*
X183514500Y-114186922D01*
X183514500Y-116514205D01*
X183512304Y-116537436D01*
X183510713Y-116545776D01*
X183510713Y-116545779D01*
X183514378Y-116604042D01*
X183514500Y-116607915D01*
X183514500Y-116625996D01*
X183516763Y-116643903D01*
X183517130Y-116647781D01*
X183520795Y-116706027D01*
X183520795Y-116706028D01*
X183523419Y-116714105D01*
X183528506Y-116736863D01*
X183529571Y-116745292D01*
X183529574Y-116745302D01*
X183551058Y-116799564D01*
X183552378Y-116803230D01*
X183570412Y-116858735D01*
X183574958Y-116865897D01*
X183585556Y-116886694D01*
X183588681Y-116894588D01*
X183622991Y-116941814D01*
X183625180Y-116945035D01*
X183656443Y-116994298D01*
X183656449Y-116994305D01*
X183662637Y-117000116D01*
X183678067Y-117017618D01*
X183683058Y-117024487D01*
X183719436Y-117054581D01*
X183728022Y-117061684D01*
X183730935Y-117064251D01*
X183773494Y-117104217D01*
X183780929Y-117108304D01*
X183800232Y-117121421D01*
X183806776Y-117126835D01*
X183859588Y-117151686D01*
X183863047Y-117153450D01*
X183914194Y-117181568D01*
X183914199Y-117181570D01*
X183922418Y-117183680D01*
X183944381Y-117191587D01*
X183952059Y-117195200D01*
X184009400Y-117206138D01*
X184013172Y-117206981D01*
X184069718Y-117221500D01*
X184078206Y-117221500D01*
X184101438Y-117223695D01*
X184109779Y-117225287D01*
X184168042Y-117221621D01*
X184171915Y-117221500D01*
X184206491Y-117221500D01*
X184273530Y-117241185D01*
X184298641Y-117262527D01*
X184300747Y-117264866D01*
X184455248Y-117377118D01*
X184629712Y-117454794D01*
X184816513Y-117494500D01*
X185007487Y-117494500D01*
X185194288Y-117454794D01*
X185368752Y-117377118D01*
X185523253Y-117264866D01*
X185651040Y-117122944D01*
X185746527Y-116957556D01*
X185805542Y-116775928D01*
X185825504Y-116586000D01*
X185805542Y-116396072D01*
X185746527Y-116214444D01*
X185651040Y-116049056D01*
X185523253Y-115907134D01*
X185368752Y-115794882D01*
X185194288Y-115717206D01*
X185194286Y-115717205D01*
X185007487Y-115677500D01*
X184909500Y-115677500D01*
X184842461Y-115657815D01*
X184796706Y-115605011D01*
X184785500Y-115553500D01*
X184785500Y-107582922D01*
X184805185Y-107515883D01*
X184857989Y-107470128D01*
X184927147Y-107460184D01*
X184959935Y-107469642D01*
X184963244Y-107471115D01*
X184963248Y-107471118D01*
X185137712Y-107548794D01*
X185324513Y-107588500D01*
X185515487Y-107588500D01*
X185702288Y-107548794D01*
X185876752Y-107471118D01*
X186031253Y-107358866D01*
X186033358Y-107356527D01*
X186034915Y-107355568D01*
X186036088Y-107354513D01*
X186036280Y-107354727D01*
X186092845Y-107319880D01*
X186125509Y-107315500D01*
X190429491Y-107315500D01*
X190496530Y-107335185D01*
X190521641Y-107356527D01*
X190523747Y-107358866D01*
X190678248Y-107471118D01*
X190852712Y-107548794D01*
X191039513Y-107588500D01*
X191230487Y-107588500D01*
X191417288Y-107548794D01*
X191591752Y-107471118D01*
X191746253Y-107358866D01*
X191874040Y-107216944D01*
X191969527Y-107051556D01*
X192028542Y-106869928D01*
X192048504Y-106680000D01*
X192028542Y-106490072D01*
X191969527Y-106308444D01*
X191874040Y-106143056D01*
X191746253Y-106001134D01*
X191591752Y-105888882D01*
X191591751Y-105888881D01*
X191438567Y-105820679D01*
X191385330Y-105775429D01*
X191365009Y-105708580D01*
X191371071Y-105669084D01*
X191393542Y-105599928D01*
X191413504Y-105410000D01*
X191393542Y-105220072D01*
X191334527Y-105038444D01*
X191239040Y-104873056D01*
X191120215Y-104741087D01*
X191111254Y-104731135D01*
X191106758Y-104727868D01*
X190956752Y-104618882D01*
X190782288Y-104541206D01*
X190782286Y-104541205D01*
X190595487Y-104501500D01*
X190404513Y-104501500D01*
X190217714Y-104541205D01*
X190043246Y-104618883D01*
X189888745Y-104731135D01*
X189886642Y-104733472D01*
X189885084Y-104734431D01*
X189883912Y-104735487D01*
X189883719Y-104735272D01*
X189827155Y-104770120D01*
X189794491Y-104774500D01*
X186125509Y-104774500D01*
X186058470Y-104754815D01*
X186033358Y-104733472D01*
X186031254Y-104731135D01*
X186026758Y-104727868D01*
X185876752Y-104618882D01*
X185702288Y-104541206D01*
X185702286Y-104541205D01*
X185515487Y-104501500D01*
X185324513Y-104501500D01*
X185137714Y-104541205D01*
X184959935Y-104620357D01*
X184890685Y-104629641D01*
X184827409Y-104600012D01*
X184790196Y-104540877D01*
X184785500Y-104507077D01*
X184785500Y-95333850D01*
X184787241Y-95318076D01*
X184786974Y-95318051D01*
X184787708Y-95310283D01*
X184785500Y-95240028D01*
X184785500Y-95210023D01*
X184785500Y-95210017D01*
X184784611Y-95202980D01*
X184784152Y-95197152D01*
X184782664Y-95149795D01*
X184776942Y-95130100D01*
X184772999Y-95111067D01*
X184770427Y-95090701D01*
X184752976Y-95046627D01*
X184751087Y-95041107D01*
X184737867Y-94995604D01*
X184727431Y-94977960D01*
X184718870Y-94960485D01*
X184711319Y-94941412D01*
X184683445Y-94903046D01*
X184680254Y-94898187D01*
X184674632Y-94888681D01*
X184656134Y-94857401D01*
X184656132Y-94857399D01*
X184656129Y-94857395D01*
X184641633Y-94842899D01*
X184628995Y-94828103D01*
X184624992Y-94822593D01*
X184616942Y-94811513D01*
X184611385Y-94806916D01*
X184580422Y-94781301D01*
X184576100Y-94777367D01*
X173016009Y-83217276D01*
X172982524Y-83155953D01*
X172987508Y-83086261D01*
X173029380Y-83030328D01*
X173065372Y-83011664D01*
X173221356Y-82960982D01*
X173422743Y-82852611D01*
X173601544Y-82710022D01*
X173752010Y-82537799D01*
X173869307Y-82341477D01*
X173875590Y-82324735D01*
X173917574Y-82268888D01*
X173983088Y-82244604D01*
X174051331Y-82259595D01*
X174100636Y-82309100D01*
X174103403Y-82314504D01*
X174164931Y-82442269D01*
X174164933Y-82442273D01*
X174299351Y-82627284D01*
X174299357Y-82627292D01*
X174464653Y-82785330D01*
X174464652Y-82785330D01*
X174464654Y-82785331D01*
X174464655Y-82785332D01*
X174655517Y-82911318D01*
X174655523Y-82911320D01*
X174655524Y-82911321D01*
X174865799Y-83001198D01*
X174865802Y-83001199D01*
X174865807Y-83001201D01*
X175088767Y-83052090D01*
X175317231Y-83062351D01*
X175543855Y-83031652D01*
X175761356Y-82960982D01*
X175962743Y-82852611D01*
X176141544Y-82710022D01*
X176292010Y-82537799D01*
X176409307Y-82341477D01*
X176489665Y-82127366D01*
X176509916Y-82015773D01*
X176530500Y-81902350D01*
X176530500Y-80714953D01*
X176530500Y-80714946D01*
X176515135Y-80544227D01*
X176515135Y-80544225D01*
X176454298Y-80323785D01*
X176454295Y-80323779D01*
X176454294Y-80323774D01*
X176355067Y-80117728D01*
X176272746Y-80004423D01*
X176220648Y-79932715D01*
X176220642Y-79932707D01*
X176055346Y-79774669D01*
X176055347Y-79774669D01*
X175953418Y-79707387D01*
X175864483Y-79648682D01*
X175864481Y-79648681D01*
X175864475Y-79648678D01*
X175654200Y-79558801D01*
X175654187Y-79558797D01*
X175431238Y-79507911D01*
X175431234Y-79507910D01*
X175431233Y-79507910D01*
X175431232Y-79507909D01*
X175431227Y-79507909D01*
X175202772Y-79497649D01*
X175202771Y-79497649D01*
X175202769Y-79497649D01*
X175032801Y-79520673D01*
X174976144Y-79528348D01*
X174976139Y-79528349D01*
X174758642Y-79599018D01*
X174557259Y-79707387D01*
X174557256Y-79707389D01*
X174378456Y-79849977D01*
X174306171Y-79932715D01*
X174227990Y-80022201D01*
X174135467Y-80177058D01*
X174110693Y-80218523D01*
X174110690Y-80218530D01*
X174104407Y-80235269D01*
X174062419Y-80291115D01*
X173996904Y-80315395D01*
X173928662Y-80300401D01*
X173879360Y-80250893D01*
X173876596Y-80245494D01*
X173863607Y-80218523D01*
X173815067Y-80117728D01*
X173732746Y-80004423D01*
X173680648Y-79932715D01*
X173680642Y-79932707D01*
X173515346Y-79774669D01*
X173515347Y-79774669D01*
X173413418Y-79707387D01*
X173324483Y-79648682D01*
X173324481Y-79648681D01*
X173324475Y-79648678D01*
X173114200Y-79558801D01*
X173114187Y-79558797D01*
X172891238Y-79507911D01*
X172891234Y-79507910D01*
X172891233Y-79507910D01*
X172891232Y-79507909D01*
X172891227Y-79507909D01*
X172662772Y-79497649D01*
X172662771Y-79497649D01*
X172662769Y-79497649D01*
X172492801Y-79520673D01*
X172436144Y-79528348D01*
X172436139Y-79528349D01*
X172218642Y-79599018D01*
X172017259Y-79707387D01*
X172017256Y-79707389D01*
X171838456Y-79849977D01*
X171766171Y-79932715D01*
X171687990Y-80022201D01*
X171595467Y-80177058D01*
X171570693Y-80218523D01*
X171570690Y-80218530D01*
X171564407Y-80235269D01*
X171522419Y-80291115D01*
X171456904Y-80315395D01*
X171388662Y-80300401D01*
X171339360Y-80250893D01*
X171336596Y-80245494D01*
X171323607Y-80218523D01*
X171275067Y-80117728D01*
X171192746Y-80004423D01*
X171140648Y-79932715D01*
X171140642Y-79932707D01*
X170975346Y-79774669D01*
X170975347Y-79774669D01*
X170873418Y-79707387D01*
X170784483Y-79648682D01*
X170784481Y-79648681D01*
X170784475Y-79648678D01*
X170574200Y-79558801D01*
X170574187Y-79558797D01*
X170351238Y-79507911D01*
X170351234Y-79507910D01*
X170351233Y-79507910D01*
X170351232Y-79507909D01*
X170351227Y-79507909D01*
X170122772Y-79497649D01*
X170122771Y-79497649D01*
X170122769Y-79497649D01*
X169952801Y-79520673D01*
X169896144Y-79528348D01*
X169896139Y-79528349D01*
X169678642Y-79599018D01*
X169477259Y-79707387D01*
X169477256Y-79707389D01*
X169298456Y-79849977D01*
X169226171Y-79932715D01*
X169147990Y-80022201D01*
X169055467Y-80177058D01*
X169030693Y-80218523D01*
X169030690Y-80218530D01*
X169024407Y-80235269D01*
X168982419Y-80291115D01*
X168916904Y-80315395D01*
X168848662Y-80300401D01*
X168799360Y-80250893D01*
X168796596Y-80245494D01*
X168783607Y-80218523D01*
X168735067Y-80117728D01*
X168652746Y-80004423D01*
X168600648Y-79932715D01*
X168600642Y-79932707D01*
X168435346Y-79774669D01*
X168435347Y-79774669D01*
X168333418Y-79707387D01*
X168244483Y-79648682D01*
X168244481Y-79648681D01*
X168244475Y-79648678D01*
X168034200Y-79558801D01*
X168034187Y-79558797D01*
X167811238Y-79507911D01*
X167811234Y-79507910D01*
X167811233Y-79507910D01*
X167811232Y-79507909D01*
X167811227Y-79507909D01*
X167582772Y-79497649D01*
X167582771Y-79497649D01*
X167582769Y-79497649D01*
X167412801Y-79520673D01*
X167356144Y-79528348D01*
X167356139Y-79528349D01*
X167138642Y-79599018D01*
X166937259Y-79707387D01*
X166937256Y-79707389D01*
X166758456Y-79849977D01*
X166686171Y-79932715D01*
X166607990Y-80022201D01*
X166515467Y-80177058D01*
X166490693Y-80218523D01*
X166490690Y-80218530D01*
X166484407Y-80235269D01*
X166442419Y-80291115D01*
X166376904Y-80315395D01*
X166308662Y-80300401D01*
X166259360Y-80250893D01*
X166256596Y-80245494D01*
X166243607Y-80218523D01*
X166195067Y-80117728D01*
X166112746Y-80004423D01*
X166060648Y-79932715D01*
X166060642Y-79932707D01*
X165895346Y-79774669D01*
X165895347Y-79774669D01*
X165793418Y-79707387D01*
X165704483Y-79648682D01*
X165704481Y-79648681D01*
X165704475Y-79648678D01*
X165494200Y-79558801D01*
X165494187Y-79558797D01*
X165271238Y-79507911D01*
X165271234Y-79507910D01*
X165271233Y-79507910D01*
X165271232Y-79507909D01*
X165271227Y-79507909D01*
X165042772Y-79497649D01*
X165042771Y-79497649D01*
X165042769Y-79497649D01*
X164872801Y-79520673D01*
X164816144Y-79528348D01*
X164816139Y-79528349D01*
X164598642Y-79599018D01*
X164397259Y-79707387D01*
X164397256Y-79707389D01*
X164218456Y-79849977D01*
X164146171Y-79932715D01*
X164067990Y-80022201D01*
X163975467Y-80177058D01*
X163950693Y-80218523D01*
X163950690Y-80218530D01*
X163944407Y-80235269D01*
X163902419Y-80291115D01*
X163836904Y-80315395D01*
X163768662Y-80300401D01*
X163719360Y-80250893D01*
X163716596Y-80245494D01*
X163703607Y-80218523D01*
X163655067Y-80117728D01*
X163572746Y-80004423D01*
X163520648Y-79932715D01*
X163520642Y-79932707D01*
X163355346Y-79774669D01*
X163355347Y-79774669D01*
X163253418Y-79707387D01*
X163164483Y-79648682D01*
X163164481Y-79648681D01*
X163164475Y-79648678D01*
X162954200Y-79558801D01*
X162954187Y-79558797D01*
X162731238Y-79507911D01*
X162731234Y-79507910D01*
X162731233Y-79507910D01*
X162731232Y-79507909D01*
X162731227Y-79507909D01*
X162502772Y-79497649D01*
X162502771Y-79497649D01*
X162502769Y-79497649D01*
X162332801Y-79520673D01*
X162276144Y-79528348D01*
X162276139Y-79528349D01*
X162058642Y-79599018D01*
X161857259Y-79707387D01*
X161857256Y-79707389D01*
X161678456Y-79849977D01*
X161606171Y-79932715D01*
X161527990Y-80022201D01*
X161435467Y-80177058D01*
X161410693Y-80218523D01*
X161410690Y-80218530D01*
X161404407Y-80235269D01*
X161362419Y-80291115D01*
X161296904Y-80315395D01*
X161228662Y-80300401D01*
X161179360Y-80250893D01*
X161176596Y-80245494D01*
X161163607Y-80218523D01*
X161115067Y-80117728D01*
X161032746Y-80004423D01*
X160980648Y-79932715D01*
X160980642Y-79932707D01*
X160815346Y-79774669D01*
X160815347Y-79774669D01*
X160713418Y-79707387D01*
X160624483Y-79648682D01*
X160624481Y-79648681D01*
X160624475Y-79648678D01*
X160414200Y-79558801D01*
X160414187Y-79558797D01*
X160191238Y-79507911D01*
X160191234Y-79507910D01*
X160191233Y-79507910D01*
X160191232Y-79507909D01*
X160191227Y-79507909D01*
X159962772Y-79497649D01*
X159962771Y-79497649D01*
X159962769Y-79497649D01*
X159792801Y-79520673D01*
X159736144Y-79528348D01*
X159736139Y-79528349D01*
X159518642Y-79599018D01*
X159317259Y-79707387D01*
X159317256Y-79707389D01*
X159138456Y-79849977D01*
X159066171Y-79932715D01*
X158987990Y-80022201D01*
X158895467Y-80177058D01*
X158870693Y-80218523D01*
X158870690Y-80218530D01*
X158864407Y-80235269D01*
X158822419Y-80291115D01*
X158756904Y-80315395D01*
X158688662Y-80300401D01*
X158639360Y-80250893D01*
X158636596Y-80245494D01*
X158623607Y-80218523D01*
X158575067Y-80117728D01*
X158492746Y-80004423D01*
X158440648Y-79932715D01*
X158440642Y-79932707D01*
X158275346Y-79774669D01*
X158275347Y-79774669D01*
X158173418Y-79707387D01*
X158084483Y-79648682D01*
X158084481Y-79648681D01*
X158084475Y-79648678D01*
X157874200Y-79558801D01*
X157874187Y-79558797D01*
X157651238Y-79507911D01*
X157651234Y-79507910D01*
X157651233Y-79507910D01*
X157651232Y-79507909D01*
X157651227Y-79507909D01*
X157422772Y-79497649D01*
X157422771Y-79497649D01*
X157422769Y-79497649D01*
X157252801Y-79520673D01*
X157196144Y-79528348D01*
X157196139Y-79528349D01*
X156978642Y-79599018D01*
X156777259Y-79707387D01*
X156777256Y-79707389D01*
X156598456Y-79849977D01*
X156526171Y-79932715D01*
X156447990Y-80022201D01*
X156355467Y-80177058D01*
X156330693Y-80218523D01*
X156330690Y-80218530D01*
X156324407Y-80235269D01*
X156282419Y-80291115D01*
X156216904Y-80315395D01*
X156148662Y-80300401D01*
X156099360Y-80250893D01*
X156096596Y-80245494D01*
X156083607Y-80218523D01*
X156035067Y-80117728D01*
X155952746Y-80004423D01*
X155900648Y-79932715D01*
X155900642Y-79932707D01*
X155735346Y-79774669D01*
X155735347Y-79774669D01*
X155633418Y-79707387D01*
X155544483Y-79648682D01*
X155544481Y-79648681D01*
X155544475Y-79648678D01*
X155334200Y-79558801D01*
X155334187Y-79558797D01*
X155111238Y-79507911D01*
X155111234Y-79507910D01*
X155111233Y-79507910D01*
X155111232Y-79507909D01*
X155111227Y-79507909D01*
X154882772Y-79497649D01*
X154882771Y-79497649D01*
X154882769Y-79497649D01*
X154712801Y-79520673D01*
X154656144Y-79528348D01*
X154656139Y-79528349D01*
X154438642Y-79599018D01*
X154237259Y-79707387D01*
X154237256Y-79707389D01*
X154058456Y-79849977D01*
X153986171Y-79932715D01*
X153907990Y-80022201D01*
X153815467Y-80177058D01*
X153790693Y-80218523D01*
X153790690Y-80218530D01*
X153784407Y-80235269D01*
X153742419Y-80291115D01*
X153676904Y-80315395D01*
X153608662Y-80300401D01*
X153559360Y-80250893D01*
X153556596Y-80245494D01*
X153543607Y-80218523D01*
X153495067Y-80117728D01*
X153412746Y-80004423D01*
X153360648Y-79932715D01*
X153360642Y-79932707D01*
X153195346Y-79774669D01*
X153195347Y-79774669D01*
X153093418Y-79707387D01*
X153004483Y-79648682D01*
X153004481Y-79648681D01*
X153004475Y-79648678D01*
X152794200Y-79558801D01*
X152794187Y-79558797D01*
X152571238Y-79507911D01*
X152571234Y-79507910D01*
X152571233Y-79507910D01*
X152571232Y-79507909D01*
X152571227Y-79507909D01*
X152342772Y-79497649D01*
X152342771Y-79497649D01*
X152342769Y-79497649D01*
X152172801Y-79520673D01*
X152116144Y-79528348D01*
X152116139Y-79528349D01*
X151898642Y-79599018D01*
X151697259Y-79707387D01*
X151697256Y-79707389D01*
X151518456Y-79849977D01*
X151446171Y-79932715D01*
X151367990Y-80022201D01*
X151275467Y-80177058D01*
X151250693Y-80218523D01*
X151250690Y-80218530D01*
X151244407Y-80235269D01*
X151202419Y-80291115D01*
X151136904Y-80315395D01*
X151068662Y-80300401D01*
X151019360Y-80250893D01*
X151016596Y-80245494D01*
X151003607Y-80218523D01*
X150955067Y-80117728D01*
X150872746Y-80004423D01*
X150820648Y-79932715D01*
X150820642Y-79932707D01*
X150655346Y-79774669D01*
X150655347Y-79774669D01*
X150553418Y-79707387D01*
X150464483Y-79648682D01*
X150464481Y-79648681D01*
X150464475Y-79648678D01*
X150254200Y-79558801D01*
X150254187Y-79558797D01*
X150031238Y-79507911D01*
X150031234Y-79507910D01*
X150031233Y-79507910D01*
X150031232Y-79507909D01*
X150031227Y-79507909D01*
X149802772Y-79497649D01*
X149802771Y-79497649D01*
X149802769Y-79497649D01*
X149632801Y-79520673D01*
X149576144Y-79528348D01*
X149576139Y-79528349D01*
X149358642Y-79599018D01*
X149157259Y-79707387D01*
X149157256Y-79707389D01*
X148978456Y-79849977D01*
X148906171Y-79932715D01*
X148827990Y-80022201D01*
X148735467Y-80177058D01*
X148710693Y-80218523D01*
X148710690Y-80218530D01*
X148704407Y-80235269D01*
X148662419Y-80291115D01*
X148596904Y-80315395D01*
X148528662Y-80300401D01*
X148479360Y-80250893D01*
X148476596Y-80245494D01*
X148463607Y-80218523D01*
X148415067Y-80117728D01*
X148332746Y-80004423D01*
X148280648Y-79932715D01*
X148280642Y-79932707D01*
X148115346Y-79774669D01*
X148115347Y-79774669D01*
X148013418Y-79707387D01*
X147924483Y-79648682D01*
X147924481Y-79648681D01*
X147924475Y-79648678D01*
X147714200Y-79558801D01*
X147714187Y-79558797D01*
X147491238Y-79507911D01*
X147491234Y-79507910D01*
X147491233Y-79507910D01*
X147491232Y-79507909D01*
X147491227Y-79507909D01*
X147262772Y-79497649D01*
X147262771Y-79497649D01*
X147262769Y-79497649D01*
X147092801Y-79520673D01*
X147036144Y-79528348D01*
X147036139Y-79528349D01*
X146818642Y-79599018D01*
X146617259Y-79707387D01*
X146617256Y-79707389D01*
X146438456Y-79849977D01*
X146366171Y-79932715D01*
X146287990Y-80022201D01*
X146195467Y-80177058D01*
X146170693Y-80218523D01*
X146170690Y-80218530D01*
X146164407Y-80235269D01*
X146122419Y-80291115D01*
X146056904Y-80315395D01*
X145988662Y-80300401D01*
X145939360Y-80250893D01*
X145936596Y-80245494D01*
X145923607Y-80218523D01*
X145875067Y-80117728D01*
X145792746Y-80004423D01*
X145740648Y-79932715D01*
X145740642Y-79932707D01*
X145575346Y-79774669D01*
X145575347Y-79774669D01*
X145473418Y-79707387D01*
X145384483Y-79648682D01*
X145384481Y-79648681D01*
X145384475Y-79648678D01*
X145174200Y-79558801D01*
X145174187Y-79558797D01*
X144951238Y-79507911D01*
X144951234Y-79507910D01*
X144951233Y-79507910D01*
X144951232Y-79507909D01*
X144951227Y-79507909D01*
X144722772Y-79497649D01*
X144722771Y-79497649D01*
X144722769Y-79497649D01*
X144552801Y-79520673D01*
X144496144Y-79528348D01*
X144496139Y-79528349D01*
X144278642Y-79599018D01*
X144077259Y-79707387D01*
X144077256Y-79707389D01*
X143898456Y-79849977D01*
X143826171Y-79932715D01*
X143747990Y-80022201D01*
X143655467Y-80177058D01*
X143630693Y-80218523D01*
X143630690Y-80218530D01*
X143624407Y-80235269D01*
X143582419Y-80291115D01*
X143516904Y-80315395D01*
X143448662Y-80300401D01*
X143399360Y-80250893D01*
X143396596Y-80245494D01*
X143383607Y-80218523D01*
X143335067Y-80117728D01*
X143252746Y-80004423D01*
X143200648Y-79932715D01*
X143200642Y-79932707D01*
X143035346Y-79774669D01*
X143035347Y-79774669D01*
X142933418Y-79707387D01*
X142844483Y-79648682D01*
X142844481Y-79648681D01*
X142844475Y-79648678D01*
X142634200Y-79558801D01*
X142634187Y-79558797D01*
X142411238Y-79507911D01*
X142411234Y-79507910D01*
X142411233Y-79507910D01*
X142411232Y-79507909D01*
X142411227Y-79507909D01*
X142182772Y-79497649D01*
X142182771Y-79497649D01*
X142182769Y-79497649D01*
X142012801Y-79520673D01*
X141956144Y-79528348D01*
X141956139Y-79528349D01*
X141738642Y-79599018D01*
X141537259Y-79707387D01*
X141537256Y-79707389D01*
X141358456Y-79849977D01*
X141286171Y-79932715D01*
X141207990Y-80022201D01*
X141115467Y-80177058D01*
X141090693Y-80218523D01*
X141090691Y-80218526D01*
X141010334Y-80432635D01*
X140969500Y-80657649D01*
X140969500Y-81845050D01*
X138684500Y-81845050D01*
X138684500Y-76429804D01*
X138704185Y-76362765D01*
X138720814Y-76342128D01*
X144742807Y-70320134D01*
X144804128Y-70286651D01*
X144819678Y-70284289D01*
X145005068Y-70268070D01*
X145218450Y-70210894D01*
X145418662Y-70117534D01*
X145599620Y-69990826D01*
X145755826Y-69834620D01*
X145882534Y-69653662D01*
X145975894Y-69453450D01*
X146033070Y-69240068D01*
X146048632Y-69062192D01*
X146052323Y-69020002D01*
X146052323Y-69019997D01*
X146033964Y-68810156D01*
X146033070Y-68799932D01*
X145975894Y-68586550D01*
X145882534Y-68386339D01*
X145755826Y-68205380D01*
X145599620Y-68049174D01*
X145599616Y-68049171D01*
X145599615Y-68049170D01*
X145418666Y-67922468D01*
X145418662Y-67922466D01*
X145376357Y-67902739D01*
X145218450Y-67829106D01*
X145218447Y-67829105D01*
X145218445Y-67829104D01*
X145005070Y-67771930D01*
X145005062Y-67771929D01*
X144785002Y-67752677D01*
X144784998Y-67752677D01*
X144564937Y-67771929D01*
X144564929Y-67771930D01*
X144351554Y-67829104D01*
X144351548Y-67829107D01*
X144151340Y-67922465D01*
X144151338Y-67922466D01*
X143970377Y-68049175D01*
X143814175Y-68205377D01*
X143687466Y-68386338D01*
X143687465Y-68386340D01*
X143594107Y-68586548D01*
X143594104Y-68586554D01*
X143536930Y-68799929D01*
X143536929Y-68799936D01*
X143520710Y-68985319D01*
X143495257Y-69050388D01*
X143484863Y-69062192D01*
X137222433Y-75324622D01*
X137207644Y-75337254D01*
X137196531Y-75345328D01*
X137196527Y-75345332D01*
X137150646Y-75396288D01*
X137148416Y-75398639D01*
X137133071Y-75413984D01*
X137133056Y-75414001D01*
X137119402Y-75430862D01*
X137117297Y-75433326D01*
X137071416Y-75484283D01*
X137071410Y-75484291D01*
X137064547Y-75496178D01*
X137053533Y-75512204D01*
X137044891Y-75522876D01*
X137013761Y-75583973D01*
X137012213Y-75586823D01*
X136977925Y-75646214D01*
X136977924Y-75646216D01*
X136973681Y-75659275D01*
X136966241Y-75677237D01*
X136960006Y-75689476D01*
X136942251Y-75755735D01*
X136941335Y-75758827D01*
X136920145Y-75824040D01*
X136920144Y-75824047D01*
X136918709Y-75837697D01*
X136915166Y-75856815D01*
X136911610Y-75870085D01*
X136908022Y-75938564D01*
X136907768Y-75941798D01*
X136905500Y-75963375D01*
X136905500Y-75985077D01*
X136905415Y-75988322D01*
X136901826Y-76056810D01*
X136903973Y-76070364D01*
X136905500Y-76089764D01*
X136905500Y-86915235D01*
X136903973Y-86934634D01*
X136901826Y-86948189D01*
X76962500Y-86948189D01*
X76962500Y-79375000D01*
X90696807Y-79375000D01*
X90715557Y-79649130D01*
X90715558Y-79649132D01*
X90771458Y-79918141D01*
X90771463Y-79918158D01*
X90863476Y-80177056D01*
X90989889Y-80421024D01*
X90989893Y-80421030D01*
X91148340Y-80645499D01*
X91159691Y-80657653D01*
X91335889Y-80846314D01*
X91549031Y-81019718D01*
X91549033Y-81019719D01*
X91549034Y-81019720D01*
X91783801Y-81162485D01*
X91867656Y-81198908D01*
X92035823Y-81271953D01*
X92300404Y-81346085D01*
X92539720Y-81378978D01*
X92572614Y-81383500D01*
X92572615Y-81383500D01*
X92847386Y-81383500D01*
X92876733Y-81379466D01*
X93119596Y-81346085D01*
X93384177Y-81271953D01*
X93636200Y-81162484D01*
X93870969Y-81019718D01*
X94084111Y-80846314D01*
X94271657Y-80645502D01*
X94430111Y-80421023D01*
X94556523Y-80177058D01*
X94648538Y-79918153D01*
X94648539Y-79918146D01*
X94648541Y-79918141D01*
X94674491Y-79793259D01*
X94704442Y-79649130D01*
X94723193Y-79375001D01*
X99594891Y-79375001D01*
X99615300Y-79660362D01*
X99676109Y-79939895D01*
X99776091Y-80207958D01*
X99913191Y-80459038D01*
X99913196Y-80459046D01*
X100019882Y-80601561D01*
X100019883Y-80601562D01*
X100883338Y-79738107D01*
X100970577Y-79876948D01*
X101098052Y-80004423D01*
X101236891Y-80091661D01*
X100373436Y-80955115D01*
X100515960Y-81061807D01*
X100515961Y-81061808D01*
X100767042Y-81198908D01*
X100767041Y-81198908D01*
X101035104Y-81298890D01*
X101314637Y-81359699D01*
X101599999Y-81380109D01*
X101600001Y-81380109D01*
X101885362Y-81359699D01*
X102164895Y-81298890D01*
X102432958Y-81198908D01*
X102684047Y-81061803D01*
X102826561Y-80955116D01*
X102826562Y-80955115D01*
X101963108Y-80091661D01*
X102101948Y-80004423D01*
X102229423Y-79876948D01*
X102316661Y-79738108D01*
X103180115Y-80601562D01*
X103180116Y-80601561D01*
X103286803Y-80459047D01*
X103423908Y-80207958D01*
X103523890Y-79939895D01*
X103584699Y-79660362D01*
X103605109Y-79375001D01*
X103605109Y-79374998D01*
X103584699Y-79089637D01*
X103523890Y-78810104D01*
X103423908Y-78542041D01*
X103286808Y-78290961D01*
X103286807Y-78290960D01*
X103180115Y-78148436D01*
X102316660Y-79011890D01*
X102229423Y-78873052D01*
X102101948Y-78745577D01*
X101963108Y-78658338D01*
X102826562Y-77794883D01*
X102826561Y-77794882D01*
X102684046Y-77688196D01*
X102684038Y-77688191D01*
X102432957Y-77551091D01*
X102432958Y-77551091D01*
X102164895Y-77451109D01*
X101885362Y-77390300D01*
X101600001Y-77369891D01*
X101599999Y-77369891D01*
X101314637Y-77390300D01*
X101035104Y-77451109D01*
X100767041Y-77551091D01*
X100515961Y-77688191D01*
X100515953Y-77688196D01*
X100373437Y-77794882D01*
X100373436Y-77794883D01*
X101236891Y-78658338D01*
X101098052Y-78745577D01*
X100970577Y-78873052D01*
X100883338Y-79011891D01*
X100019883Y-78148436D01*
X100019882Y-78148437D01*
X99913196Y-78290953D01*
X99913191Y-78290961D01*
X99776091Y-78542041D01*
X99676109Y-78810104D01*
X99615300Y-79089637D01*
X99594891Y-79374998D01*
X99594891Y-79375001D01*
X94723193Y-79375001D01*
X94723193Y-79375000D01*
X94704442Y-79100870D01*
X94657101Y-78873052D01*
X94648541Y-78831858D01*
X94648536Y-78831841D01*
X94556523Y-78572943D01*
X94556523Y-78572942D01*
X94430111Y-78328977D01*
X94430110Y-78328975D01*
X94430106Y-78328969D01*
X94271659Y-78104500D01*
X94253031Y-78084555D01*
X94084111Y-77903686D01*
X93870969Y-77730282D01*
X93870967Y-77730281D01*
X93870965Y-77730279D01*
X93636198Y-77587514D01*
X93384178Y-77478047D01*
X93119602Y-77403916D01*
X93119597Y-77403915D01*
X93119596Y-77403915D01*
X92983490Y-77385207D01*
X92847386Y-77366500D01*
X92847385Y-77366500D01*
X92572615Y-77366500D01*
X92572614Y-77366500D01*
X92300404Y-77403915D01*
X92300397Y-77403916D01*
X92035821Y-77478047D01*
X91783801Y-77587514D01*
X91549034Y-77730279D01*
X91335892Y-77903683D01*
X91148340Y-78104500D01*
X90989893Y-78328969D01*
X90989889Y-78328975D01*
X90863476Y-78572943D01*
X90771463Y-78831841D01*
X90771458Y-78831858D01*
X90715558Y-79100867D01*
X90715557Y-79100869D01*
X90696807Y-79375000D01*
X76962500Y-79375000D01*
X76962500Y-69822654D01*
X128282500Y-69822654D01*
X128289011Y-69883202D01*
X128289011Y-69883204D01*
X128340111Y-70020204D01*
X128427739Y-70137261D01*
X128544796Y-70224889D01*
X128681799Y-70275989D01*
X128707853Y-70278790D01*
X128742345Y-70282499D01*
X128742362Y-70282500D01*
X130347638Y-70282500D01*
X130347654Y-70282499D01*
X130374692Y-70279591D01*
X130408201Y-70275989D01*
X130545204Y-70224889D01*
X130662261Y-70137261D01*
X130749889Y-70020204D01*
X130800989Y-69883201D01*
X130806212Y-69834620D01*
X130807499Y-69822654D01*
X130807500Y-69822637D01*
X130807500Y-69775100D01*
X130827185Y-69708061D01*
X130879989Y-69662306D01*
X130949147Y-69652362D01*
X131012703Y-69681387D01*
X131033076Y-69703978D01*
X131039003Y-69712442D01*
X131601922Y-69149523D01*
X131625507Y-69229844D01*
X131703239Y-69350798D01*
X131811900Y-69444952D01*
X131942685Y-69504680D01*
X131952466Y-69506086D01*
X131392555Y-70065996D01*
X131455604Y-70110143D01*
X131455606Y-70110144D01*
X131654466Y-70202875D01*
X131654475Y-70202878D01*
X131866407Y-70259664D01*
X131866417Y-70259666D01*
X132084999Y-70278790D01*
X132085001Y-70278790D01*
X132303582Y-70259666D01*
X132303592Y-70259664D01*
X132515524Y-70202878D01*
X132515533Y-70202874D01*
X132714392Y-70110145D01*
X132777443Y-70065996D01*
X132217534Y-69506086D01*
X132227315Y-69504680D01*
X132358100Y-69444952D01*
X132466761Y-69350798D01*
X132544493Y-69229844D01*
X132568076Y-69149523D01*
X133130996Y-69712443D01*
X133175145Y-69649392D01*
X133267874Y-69450533D01*
X133267878Y-69450524D01*
X133324664Y-69238592D01*
X133324666Y-69238582D01*
X133343790Y-69020000D01*
X138446210Y-69020000D01*
X138465333Y-69238582D01*
X138465335Y-69238592D01*
X138522121Y-69450524D01*
X138522124Y-69450533D01*
X138614855Y-69649393D01*
X138614856Y-69649395D01*
X138659002Y-69712442D01*
X138659003Y-69712443D01*
X139221922Y-69149523D01*
X139245507Y-69229844D01*
X139323239Y-69350798D01*
X139431900Y-69444952D01*
X139562685Y-69504680D01*
X139572466Y-69506086D01*
X139012555Y-70065996D01*
X139075604Y-70110143D01*
X139075606Y-70110144D01*
X139274466Y-70202875D01*
X139274475Y-70202878D01*
X139486407Y-70259664D01*
X139486417Y-70259666D01*
X139704999Y-70278790D01*
X139705001Y-70278790D01*
X139923582Y-70259666D01*
X139923592Y-70259664D01*
X140135524Y-70202878D01*
X140135533Y-70202874D01*
X140334392Y-70110145D01*
X140397443Y-70065996D01*
X139837534Y-69506086D01*
X139847315Y-69504680D01*
X139978100Y-69444952D01*
X140086761Y-69350798D01*
X140164493Y-69229844D01*
X140188076Y-69149523D01*
X140750996Y-69712443D01*
X140795145Y-69649392D01*
X140887874Y-69450533D01*
X140887878Y-69450524D01*
X140944664Y-69238592D01*
X140944666Y-69238582D01*
X140963790Y-69020000D01*
X140963790Y-69019999D01*
X140944666Y-68801417D01*
X140944664Y-68801407D01*
X140887878Y-68589475D01*
X140887875Y-68589466D01*
X140795144Y-68390606D01*
X140795143Y-68390604D01*
X140750996Y-68327556D01*
X140750996Y-68327555D01*
X140188076Y-68890475D01*
X140164493Y-68810156D01*
X140086761Y-68689202D01*
X139978100Y-68595048D01*
X139847315Y-68535320D01*
X139837533Y-68533913D01*
X140397443Y-67974003D01*
X140397442Y-67974002D01*
X140334395Y-67929856D01*
X140334393Y-67929855D01*
X140135533Y-67837124D01*
X140135524Y-67837121D01*
X139923592Y-67780335D01*
X139923582Y-67780333D01*
X139705001Y-67761210D01*
X139704999Y-67761210D01*
X139486417Y-67780333D01*
X139486407Y-67780335D01*
X139274475Y-67837121D01*
X139274466Y-67837124D01*
X139075602Y-67929857D01*
X139012555Y-67974001D01*
X139572467Y-68533913D01*
X139562685Y-68535320D01*
X139431900Y-68595048D01*
X139323239Y-68689202D01*
X139245507Y-68810156D01*
X139221922Y-68890476D01*
X138659001Y-68327555D01*
X138614857Y-68390602D01*
X138522124Y-68589466D01*
X138522121Y-68589475D01*
X138465335Y-68801407D01*
X138465333Y-68801417D01*
X138446210Y-69019999D01*
X138446210Y-69020000D01*
X133343790Y-69020000D01*
X133343790Y-69019999D01*
X133324666Y-68801417D01*
X133324664Y-68801407D01*
X133267878Y-68589475D01*
X133267875Y-68589466D01*
X133175144Y-68390606D01*
X133175143Y-68390604D01*
X133130996Y-68327556D01*
X133130996Y-68327555D01*
X132568076Y-68890475D01*
X132544493Y-68810156D01*
X132466761Y-68689202D01*
X132358100Y-68595048D01*
X132227315Y-68535320D01*
X132217533Y-68533913D01*
X132777443Y-67974003D01*
X132777442Y-67974002D01*
X132714395Y-67929856D01*
X132714393Y-67929855D01*
X132515533Y-67837124D01*
X132515524Y-67837121D01*
X132303592Y-67780335D01*
X132303582Y-67780333D01*
X132085001Y-67761210D01*
X132084999Y-67761210D01*
X131866417Y-67780333D01*
X131866407Y-67780335D01*
X131654475Y-67837121D01*
X131654466Y-67837124D01*
X131455602Y-67929857D01*
X131392555Y-67974001D01*
X131952467Y-68533913D01*
X131942685Y-68535320D01*
X131811900Y-68595048D01*
X131703239Y-68689202D01*
X131625507Y-68810156D01*
X131601922Y-68890476D01*
X131039001Y-68327555D01*
X131033076Y-68336019D01*
X130978499Y-68379645D01*
X130909001Y-68386839D01*
X130846646Y-68355317D01*
X130811231Y-68295087D01*
X130807500Y-68264897D01*
X130807500Y-68217362D01*
X130807499Y-68217345D01*
X130804157Y-68186270D01*
X130800989Y-68156799D01*
X130749889Y-68019796D01*
X130662261Y-67902739D01*
X130545204Y-67815111D01*
X130408203Y-67764011D01*
X130347654Y-67757500D01*
X130347638Y-67757500D01*
X128742362Y-67757500D01*
X128742345Y-67757500D01*
X128681797Y-67764011D01*
X128681795Y-67764011D01*
X128544795Y-67815111D01*
X128427739Y-67902739D01*
X128340111Y-68019795D01*
X128289011Y-68156795D01*
X128289011Y-68156797D01*
X128282500Y-68217345D01*
X128282500Y-69822654D01*
X76962500Y-69822654D01*
X76962500Y-64748654D01*
X107591500Y-64748654D01*
X107598011Y-64809202D01*
X107598011Y-64809204D01*
X107649111Y-64946204D01*
X107736739Y-65063261D01*
X107853796Y-65150889D01*
X107968949Y-65193839D01*
X107985463Y-65199999D01*
X107990799Y-65201989D01*
X108018050Y-65204918D01*
X108051345Y-65208499D01*
X108051362Y-65208500D01*
X110548638Y-65208500D01*
X110548654Y-65208499D01*
X110575692Y-65205591D01*
X110609201Y-65201989D01*
X110614537Y-65199999D01*
X110623768Y-65196555D01*
X110746204Y-65150889D01*
X110863261Y-65063261D01*
X110950889Y-64946204D01*
X111001989Y-64809201D01*
X111005591Y-64775692D01*
X111008499Y-64748654D01*
X111008500Y-64748637D01*
X111008500Y-63500004D01*
X112595233Y-63500004D01*
X112614273Y-63754079D01*
X112670968Y-64002477D01*
X112670973Y-64002494D01*
X112764058Y-64239671D01*
X112764057Y-64239671D01*
X112891457Y-64460332D01*
X112933452Y-64512993D01*
X112933453Y-64512993D01*
X113737226Y-63709219D01*
X113775901Y-63802588D01*
X113872075Y-63927925D01*
X113997412Y-64024099D01*
X114090779Y-64062772D01*
X113286813Y-64866737D01*
X113447623Y-64976375D01*
X113447624Y-64976376D01*
X113677176Y-65086921D01*
X113677174Y-65086921D01*
X113920652Y-65162024D01*
X113920658Y-65162026D01*
X114172595Y-65199999D01*
X114172604Y-65200000D01*
X114427396Y-65200000D01*
X114427404Y-65199999D01*
X114679341Y-65162026D01*
X114679347Y-65162024D01*
X114922824Y-65086921D01*
X115152381Y-64976373D01*
X115313185Y-64866737D01*
X114509220Y-64062772D01*
X114602588Y-64024099D01*
X114727925Y-63927925D01*
X114824099Y-63802589D01*
X114862773Y-63709220D01*
X115666545Y-64512993D01*
X115708545Y-64460327D01*
X115835941Y-64239671D01*
X115929026Y-64002494D01*
X115929031Y-64002477D01*
X115985726Y-63754079D01*
X116004767Y-63500004D01*
X116004767Y-63499995D01*
X115985726Y-63245920D01*
X115929031Y-62997522D01*
X115929026Y-62997505D01*
X115835941Y-62760328D01*
X115835942Y-62760328D01*
X115708544Y-62539671D01*
X115666546Y-62487006D01*
X114862772Y-63290779D01*
X114824099Y-63197412D01*
X114727925Y-63072075D01*
X114602588Y-62975901D01*
X114509220Y-62937227D01*
X115313185Y-62133261D01*
X115152377Y-62023624D01*
X115152376Y-62023623D01*
X114922823Y-61913078D01*
X114922825Y-61913078D01*
X114679347Y-61837975D01*
X114679341Y-61837973D01*
X114427404Y-61800000D01*
X114172595Y-61800000D01*
X113920658Y-61837973D01*
X113920652Y-61837975D01*
X113677175Y-61913078D01*
X113447624Y-62023623D01*
X113447616Y-62023628D01*
X113286813Y-62133261D01*
X114090779Y-62937227D01*
X113997412Y-62975901D01*
X113872075Y-63072075D01*
X113775901Y-63197411D01*
X113737227Y-63290779D01*
X112933453Y-62487006D01*
X112891455Y-62539670D01*
X112764058Y-62760328D01*
X112670973Y-62997505D01*
X112670968Y-62997522D01*
X112614273Y-63245920D01*
X112595233Y-63499995D01*
X112595233Y-63500004D01*
X111008500Y-63500004D01*
X111008500Y-62251362D01*
X111008499Y-62251345D01*
X111005157Y-62220270D01*
X111001989Y-62190799D01*
X110950889Y-62053796D01*
X110863261Y-61936739D01*
X110746204Y-61849111D01*
X110716348Y-61837975D01*
X110609203Y-61798011D01*
X110548654Y-61791500D01*
X110548638Y-61791500D01*
X108051362Y-61791500D01*
X108051345Y-61791500D01*
X107990797Y-61798011D01*
X107990795Y-61798011D01*
X107853795Y-61849111D01*
X107736739Y-61936739D01*
X107649111Y-62053795D01*
X107598011Y-62190795D01*
X107598011Y-62190797D01*
X107591500Y-62251345D01*
X107591500Y-64748654D01*
X76962500Y-64748654D01*
X76962500Y-59567844D01*
X92380000Y-59567844D01*
X92386401Y-59627372D01*
X92386403Y-59627379D01*
X92436645Y-59762086D01*
X92436649Y-59762093D01*
X92522809Y-59877187D01*
X92522812Y-59877190D01*
X92637906Y-59963350D01*
X92637913Y-59963354D01*
X92772620Y-60013596D01*
X92772627Y-60013598D01*
X92832155Y-60019999D01*
X92832172Y-60020000D01*
X93730000Y-60020000D01*
X93730000Y-59024310D01*
X93738817Y-59029158D01*
X93897886Y-59070000D01*
X94020894Y-59070000D01*
X94142933Y-59054583D01*
X94230000Y-59020110D01*
X94230000Y-60020000D01*
X95127828Y-60020000D01*
X95127844Y-60019999D01*
X95187372Y-60013598D01*
X95187379Y-60013596D01*
X95322086Y-59963354D01*
X95322093Y-59963350D01*
X95437187Y-59877190D01*
X95437190Y-59877187D01*
X95523350Y-59762093D01*
X95523354Y-59762086D01*
X95573596Y-59627379D01*
X95573598Y-59627372D01*
X95579999Y-59567844D01*
X95580000Y-59567827D01*
X95580000Y-58670000D01*
X94580728Y-58670000D01*
X94603100Y-58622457D01*
X94633873Y-58461138D01*
X94631285Y-58420000D01*
X97396372Y-58420000D01*
X97416854Y-58680249D01*
X97477796Y-58934089D01*
X97477797Y-58934091D01*
X97577696Y-59175271D01*
X97714095Y-59397853D01*
X97714098Y-59397858D01*
X97790949Y-59487839D01*
X97883637Y-59596363D01*
X98010701Y-59704885D01*
X98082141Y-59765901D01*
X98082146Y-59765904D01*
X98304728Y-59902303D01*
X98389998Y-59937622D01*
X98545911Y-60002204D01*
X98799751Y-60063146D01*
X99060000Y-60083628D01*
X99320249Y-60063146D01*
X99574089Y-60002204D01*
X99815271Y-59902303D01*
X100037856Y-59765903D01*
X100236363Y-59596363D01*
X100405903Y-59397856D01*
X100542303Y-59175271D01*
X100642204Y-58934089D01*
X100703146Y-58680249D01*
X100723628Y-58420000D01*
X100703146Y-58159751D01*
X100642204Y-57905911D01*
X100577622Y-57749998D01*
X100542303Y-57664728D01*
X100405904Y-57442146D01*
X100405901Y-57442141D01*
X100336528Y-57360916D01*
X100236363Y-57243637D01*
X100123762Y-57147467D01*
X100037858Y-57074098D01*
X100037853Y-57074095D01*
X99815271Y-56937696D01*
X99574091Y-56837797D01*
X99574089Y-56837796D01*
X99343704Y-56782485D01*
X99320250Y-56776854D01*
X99060000Y-56756372D01*
X98799749Y-56776854D01*
X98639357Y-56815361D01*
X98545911Y-56837796D01*
X98545909Y-56837796D01*
X98545908Y-56837797D01*
X98304728Y-56937696D01*
X98082146Y-57074095D01*
X98082141Y-57074098D01*
X97883637Y-57243637D01*
X97714098Y-57442141D01*
X97714095Y-57442146D01*
X97577696Y-57664728D01*
X97482842Y-57893728D01*
X97477796Y-57905911D01*
X97416854Y-58159751D01*
X97396372Y-58420000D01*
X94631285Y-58420000D01*
X94623561Y-58297234D01*
X94582220Y-58170000D01*
X95580000Y-58170000D01*
X95580000Y-57272172D01*
X95579999Y-57272155D01*
X95573598Y-57212627D01*
X95573596Y-57212620D01*
X95523354Y-57077913D01*
X95523350Y-57077906D01*
X95437190Y-56962812D01*
X95437187Y-56962809D01*
X95322093Y-56876649D01*
X95322086Y-56876645D01*
X95187379Y-56826403D01*
X95187372Y-56826401D01*
X95127844Y-56820000D01*
X94230000Y-56820000D01*
X94230000Y-57815689D01*
X94221183Y-57810842D01*
X94062114Y-57770000D01*
X93939106Y-57770000D01*
X93817067Y-57785417D01*
X93730000Y-57819889D01*
X93730000Y-56820000D01*
X92832155Y-56820000D01*
X92772627Y-56826401D01*
X92772620Y-56826403D01*
X92637913Y-56876645D01*
X92637906Y-56876649D01*
X92522812Y-56962809D01*
X92522809Y-56962812D01*
X92436649Y-57077906D01*
X92436645Y-57077913D01*
X92386403Y-57212620D01*
X92386401Y-57212627D01*
X92380000Y-57272155D01*
X92380000Y-58170000D01*
X93379272Y-58170000D01*
X93356900Y-58217543D01*
X93326127Y-58378862D01*
X93336439Y-58542766D01*
X93377780Y-58670000D01*
X92380000Y-58670000D01*
X92380000Y-59567844D01*
X76962500Y-59567844D01*
X76962500Y-55881439D01*
X76962566Y-55878575D01*
X76965821Y-55808162D01*
X79222538Y-55808162D01*
X79232562Y-56095190D01*
X79232563Y-56095195D01*
X79282438Y-56378048D01*
X79282438Y-56378049D01*
X79371194Y-56651212D01*
X79497096Y-56909349D01*
X79497105Y-56909363D01*
X79657706Y-57147467D01*
X79657708Y-57147469D01*
X79657710Y-57147472D01*
X79849896Y-57360916D01*
X80069918Y-57545535D01*
X80313492Y-57697737D01*
X80417775Y-57744167D01*
X80575869Y-57814556D01*
X80575887Y-57814562D01*
X80851965Y-57893726D01*
X80851966Y-57893726D01*
X80851969Y-57893727D01*
X80851972Y-57893727D01*
X80851975Y-57893728D01*
X80926955Y-57904265D01*
X81136388Y-57933699D01*
X81136389Y-57933700D01*
X81136391Y-57933700D01*
X81351721Y-57933700D01*
X81384019Y-57931441D01*
X81566518Y-57918680D01*
X81566523Y-57918679D01*
X81566525Y-57918679D01*
X81706988Y-57888822D01*
X81847459Y-57858964D01*
X82117355Y-57760730D01*
X82370953Y-57625889D01*
X82603316Y-57457067D01*
X82809923Y-57257549D01*
X82986752Y-57031219D01*
X83130361Y-56782481D01*
X83237954Y-56516178D01*
X83307438Y-56237492D01*
X83337461Y-55951848D01*
X83332443Y-55808162D01*
X196062538Y-55808162D01*
X196072562Y-56095190D01*
X196072563Y-56095195D01*
X196122438Y-56378048D01*
X196122438Y-56378049D01*
X196211194Y-56651212D01*
X196337096Y-56909349D01*
X196337105Y-56909363D01*
X196497706Y-57147467D01*
X196497708Y-57147469D01*
X196497710Y-57147472D01*
X196689896Y-57360916D01*
X196909918Y-57545535D01*
X197153492Y-57697737D01*
X197257775Y-57744167D01*
X197415869Y-57814556D01*
X197415887Y-57814562D01*
X197691965Y-57893726D01*
X197691966Y-57893726D01*
X197691969Y-57893727D01*
X197691972Y-57893727D01*
X197691975Y-57893728D01*
X197766955Y-57904265D01*
X197976388Y-57933699D01*
X197976389Y-57933700D01*
X197976391Y-57933700D01*
X198191721Y-57933700D01*
X198224019Y-57931441D01*
X198406518Y-57918680D01*
X198406523Y-57918679D01*
X198406525Y-57918679D01*
X198546988Y-57888822D01*
X198687459Y-57858964D01*
X198957355Y-57760730D01*
X199210953Y-57625889D01*
X199443316Y-57457067D01*
X199649923Y-57257549D01*
X199826752Y-57031219D01*
X199970361Y-56782481D01*
X200077954Y-56516178D01*
X200147438Y-56237492D01*
X200177461Y-55951848D01*
X200167437Y-55664806D01*
X200117562Y-55381952D01*
X200028807Y-55108792D01*
X200028805Y-55108787D01*
X199902903Y-54850650D01*
X199902894Y-54850636D01*
X199742293Y-54612532D01*
X199742291Y-54612530D01*
X199742290Y-54612528D01*
X199550104Y-54399084D01*
X199330082Y-54214465D01*
X199167645Y-54112963D01*
X199086512Y-54062265D01*
X199086510Y-54062264D01*
X198824130Y-53945443D01*
X198824112Y-53945437D01*
X198548034Y-53866273D01*
X198548024Y-53866271D01*
X198263612Y-53826300D01*
X198263609Y-53826300D01*
X198048281Y-53826300D01*
X198048279Y-53826300D01*
X197833478Y-53841320D01*
X197833474Y-53841320D01*
X197552547Y-53901034D01*
X197552539Y-53901036D01*
X197282651Y-53999267D01*
X197029052Y-54134107D01*
X197029045Y-54134112D01*
X196796691Y-54302926D01*
X196796684Y-54302932D01*
X196590075Y-54502453D01*
X196413248Y-54728780D01*
X196269641Y-54977514D01*
X196269636Y-54977525D01*
X196162046Y-55243820D01*
X196092562Y-55522508D01*
X196062538Y-55808162D01*
X83332443Y-55808162D01*
X83327437Y-55664806D01*
X83277562Y-55381952D01*
X83188807Y-55108792D01*
X83188805Y-55108787D01*
X83062903Y-54850650D01*
X83062894Y-54850636D01*
X82902293Y-54612532D01*
X82902291Y-54612530D01*
X82902290Y-54612528D01*
X82710104Y-54399084D01*
X82490082Y-54214465D01*
X82327645Y-54112963D01*
X82246512Y-54062265D01*
X82246510Y-54062264D01*
X81984130Y-53945443D01*
X81984112Y-53945437D01*
X81708034Y-53866273D01*
X81708024Y-53866271D01*
X81423612Y-53826300D01*
X81423609Y-53826300D01*
X81208281Y-53826300D01*
X81208279Y-53826300D01*
X80993478Y-53841320D01*
X80993474Y-53841320D01*
X80712547Y-53901034D01*
X80712539Y-53901036D01*
X80442651Y-53999267D01*
X80189052Y-54134107D01*
X80189045Y-54134112D01*
X79956691Y-54302926D01*
X79956684Y-54302932D01*
X79750075Y-54502453D01*
X79573248Y-54728780D01*
X79429641Y-54977514D01*
X79429636Y-54977525D01*
X79322046Y-55243820D01*
X79252562Y-55522508D01*
X79222538Y-55808162D01*
X76965821Y-55808162D01*
X76980786Y-55484492D01*
X76981312Y-55478802D01*
X77035619Y-55089488D01*
X77036668Y-55083877D01*
X77126664Y-54701236D01*
X77128224Y-54695755D01*
X77253150Y-54323026D01*
X77255196Y-54317743D01*
X77413984Y-53958124D01*
X77416515Y-53953041D01*
X77607794Y-53609630D01*
X77610806Y-53604767D01*
X77729090Y-53432093D01*
X77832950Y-53280476D01*
X77836377Y-53275937D01*
X78087509Y-52973510D01*
X78091345Y-52969302D01*
X78369302Y-52691345D01*
X78373510Y-52687509D01*
X78675937Y-52436377D01*
X78680476Y-52432950D01*
X79004767Y-52210805D01*
X79009630Y-52207794D01*
X79353041Y-52016515D01*
X79358124Y-52013984D01*
X79717743Y-51855196D01*
X79723026Y-51853150D01*
X80095755Y-51728224D01*
X80101236Y-51726664D01*
X80483877Y-51636668D01*
X80489488Y-51635619D01*
X80878802Y-51581312D01*
X80884492Y-51580786D01*
X81278576Y-51562566D01*
X81281440Y-51562500D01*
X81360142Y-51562500D01*
X198039858Y-51562500D01*
X198118560Y-51562500D01*
X198121424Y-51562566D01*
G37*
%TD.AperFunction*%
%TD*%
M02*
