M48
; DRILL file {KiCad 7.0.8} date 2023 October 18, Wednesday 14:20:01
; FORMAT={-:-/ absolute / inch / decimal}
; #@! TF.CreationDate,2023-10-18T14:20:01-04:00
; #@! TF.GenerationSoftware,Kicad,Pcbnew,7.0.8
; #@! TF.FileFunction,Plated,1,2,PTH
FMAT,2
INCH
; #@! TA.AperFunction,Plated,PTH,ViaDrill
T1C0.0157
; #@! TA.AperFunction,Plated,PTH,ComponentDrill
T2C0.0394
; #@! TA.AperFunction,Plated,PTH,ComponentDrill
T3C0.0400
; #@! TA.AperFunction,Plated,PTH,ComponentDrill
T4C0.0472
; #@! TA.AperFunction,Plated,PTH,ComponentDrill
T5C0.0512
; #@! TA.AperFunction,Plated,PTH,ComponentDrill
T6C0.0630
; #@! TA.AperFunction,Plated,PTH,ComponentDrill
T7C0.1181
%
G90
G05
T1
X3.8Y-3.675
X3.8Y-3.725
X3.8Y-3.775
X3.8Y-3.825
X3.8Y-3.875
X3.85Y-3.675
X3.85Y-3.725
X3.85Y-3.775
X3.85Y-3.825
X3.85Y-3.875
X3.9Y-3.675
X3.9Y-3.725
X3.95Y-3.675
X3.95Y-3.725
X4.075Y-2.9067
X4.5Y-3.8
X4.8502Y-2.8423
X5.8252Y-2.8423
X6.12Y-4.2
X6.3172Y-4.0513
X6.46Y-3.98
X6.62Y-4.24
X6.86Y-3.98
X7.0Y-4.5
X7.2Y-4.46
X7.28Y-4.59
X7.3Y-4.15
X7.3Y-4.2
X7.4088Y-4.54
X7.5Y-4.15
X7.525Y-4.2
X7.625Y-3.075
X7.625Y-3.575
X7.825Y-4.4
T2
X5.1002Y-2.7173
X5.2002Y-2.7173
X5.5002Y-2.7173
X5.7002Y-2.7173
X6.9031Y-4.5539
X6.9031Y-4.8
X7.0016Y-4.8
X7.1Y-4.5539
X7.1Y-4.8
T3
X5.6Y-3.2
X5.6Y-3.8
X5.7Y-3.2
X5.7Y-3.8
X5.8Y-3.2
X5.8Y-3.8
X5.9Y-3.2
X5.9Y-3.8
X6.0Y-3.2
X6.0Y-3.8
X6.1Y-3.2
X6.1Y-3.8
X6.2Y-3.2
X6.2Y-3.8
X6.3Y-3.2
X6.3Y-3.8
X6.4Y-3.2
X6.4Y-3.8
X6.5Y-3.2
X6.5Y-3.8
X6.6Y-3.2
X6.6Y-3.8
X6.7Y-3.2
X6.7Y-3.8
X6.8Y-3.2
X6.8Y-3.8
X6.9Y-3.2
X6.9Y-3.8
T4
X4.3031Y-2.5
X4.5Y-2.5
T5
X3.7Y-2.3
X3.9Y-2.3
X3.9331Y-4.7
X3.9577Y-4.6232
X4.0423Y-4.6232
X4.0669Y-4.7
T6
X3.65Y-3.125
X4.0Y-3.125
X4.05Y-3.55
X4.3Y-4.125
T7
X3.7539Y-4.6803
X4.2461Y-4.6803
T2
G00X5.9606Y-4.5638
M15
G01X6.0394Y-4.5638
M16
G05
G00X5.9606Y-4.8
M15
G01X6.0394Y-4.8
M16
G05
G00X6.185Y-4.7213
M15
G01X6.185Y-4.6425
M16
G05
T0
M30
