%TF.GenerationSoftware,KiCad,Pcbnew,7.0.8*%
%TF.CreationDate,2023-10-19T15:00:40-04:00*%
%TF.ProjectId,ball_heater_controller,62616c6c-5f68-4656-9174-65725f636f6e,rev?*%
%TF.SameCoordinates,Original*%
%TF.FileFunction,Paste,Top*%
%TF.FilePolarity,Positive*%
%FSLAX46Y46*%
G04 Gerber Fmt 4.6, Leading zero omitted, Abs format (unit mm)*
G04 Created by KiCad (PCBNEW 7.0.8) date 2023-10-19 15:00:40*
%MOMM*%
%LPD*%
G01*
G04 APERTURE LIST*
G04 Aperture macros list*
%AMRoundRect*
0 Rectangle with rounded corners*
0 $1 Rounding radius*
0 $2 $3 $4 $5 $6 $7 $8 $9 X,Y pos of 4 corners*
0 Add a 4 corners polygon primitive as box body*
4,1,4,$2,$3,$4,$5,$6,$7,$8,$9,$2,$3,0*
0 Add four circle primitives for the rounded corners*
1,1,$1+$1,$2,$3*
1,1,$1+$1,$4,$5*
1,1,$1+$1,$6,$7*
1,1,$1+$1,$8,$9*
0 Add four rect primitives between the rounded corners*
20,1,$1+$1,$2,$3,$4,$5,0*
20,1,$1+$1,$4,$5,$6,$7,0*
20,1,$1+$1,$6,$7,$8,$9,0*
20,1,$1+$1,$8,$9,$2,$3,0*%
G04 Aperture macros list end*
%ADD10RoundRect,0.120000X-0.680000X0.480000X-0.680000X-0.480000X0.680000X-0.480000X0.680000X0.480000X0*%
%ADD11RoundRect,0.250000X-0.475000X0.337500X-0.475000X-0.337500X0.475000X-0.337500X0.475000X0.337500X0*%
%ADD12RoundRect,0.250000X0.350000X0.450000X-0.350000X0.450000X-0.350000X-0.450000X0.350000X-0.450000X0*%
%ADD13R,1.800000X1.200000*%
%ADD14R,1.600000X0.600000*%
%ADD15RoundRect,0.250000X-0.350000X-0.450000X0.350000X-0.450000X0.350000X0.450000X-0.350000X0.450000X0*%
%ADD16RoundRect,0.250000X-0.250000X-2.500000X0.250000X-2.500000X0.250000X2.500000X-0.250000X2.500000X0*%
%ADD17RoundRect,0.250000X-0.550000X-1.250000X0.550000X-1.250000X0.550000X1.250000X-0.550000X1.250000X0*%
%ADD18R,0.900000X0.900000*%
%ADD19R,1.600000X3.000000*%
%ADD20R,5.800000X6.200000*%
%ADD21R,2.500000X1.700000*%
%ADD22RoundRect,0.250000X0.450000X-0.350000X0.450000X0.350000X-0.450000X0.350000X-0.450000X-0.350000X0*%
%ADD23RoundRect,0.250000X0.337500X0.475000X-0.337500X0.475000X-0.337500X-0.475000X0.337500X-0.475000X0*%
%ADD24RoundRect,0.250000X-0.337500X-0.475000X0.337500X-0.475000X0.337500X0.475000X-0.337500X0.475000X0*%
%ADD25R,0.600000X0.420000*%
G04 APERTURE END LIST*
D10*
%TO.C,SW2*%
X125367500Y-88940000D03*
X128167500Y-91440000D03*
X125367500Y-93940000D03*
%TD*%
D11*
%TO.C,C12*%
X120650000Y-89132500D03*
X120650000Y-91207500D03*
%TD*%
D12*
%TO.C,R3*%
X172682500Y-106680000D03*
X170682500Y-106680000D03*
%TD*%
D13*
%TO.C,J2*%
X196020000Y-112020000D03*
X196020000Y-106420000D03*
D14*
X198620000Y-110720000D03*
X198620000Y-109720000D03*
X198620000Y-108720000D03*
X198620000Y-107720000D03*
%TD*%
D15*
%TO.C,R5*%
X165826500Y-121920000D03*
X167826500Y-121920000D03*
%TD*%
%TO.C,R4*%
X165602500Y-106680000D03*
X167602500Y-106680000D03*
%TD*%
D16*
%TO.C,J4*%
X191040000Y-81780000D03*
X193040000Y-81780000D03*
X195040000Y-81780000D03*
D17*
X188640000Y-79530000D03*
X197440000Y-79530000D03*
%TD*%
D18*
%TO.C,RN1*%
X183340000Y-108045000D03*
X183340000Y-106705000D03*
X183340000Y-105385000D03*
X183340000Y-104045000D03*
X180340000Y-104045000D03*
X180340000Y-105385000D03*
X180340000Y-106705000D03*
X180340000Y-108045000D03*
%TD*%
D15*
%TO.C,R6*%
X165826500Y-118110000D03*
X167826500Y-118110000D03*
%TD*%
D18*
%TO.C,RN2*%
X185674000Y-120276000D03*
X185674000Y-121616000D03*
X185674000Y-122936000D03*
X185674000Y-124276000D03*
X188674000Y-124276000D03*
X188674000Y-122936000D03*
X188674000Y-121616000D03*
X188674000Y-120276000D03*
%TD*%
D19*
%TO.C,Q2*%
X103885000Y-96970000D03*
D20*
X101600000Y-104140000D03*
D19*
X99315000Y-96970000D03*
%TD*%
D21*
%TO.C,D1*%
X103600000Y-111760000D03*
X99600000Y-111760000D03*
%TD*%
D11*
%TO.C,C2*%
X101600000Y-71755000D03*
X101600000Y-73830000D03*
%TD*%
D22*
%TO.C,R1*%
X113030000Y-95980000D03*
X113030000Y-93980000D03*
%TD*%
D11*
%TO.C,C5*%
X149860000Y-69045000D03*
X149860000Y-71120000D03*
%TD*%
D16*
%TO.C,J3*%
X191040000Y-94480000D03*
X193040000Y-94480000D03*
X195040000Y-94480000D03*
D17*
X188640000Y-92230000D03*
X197440000Y-92230000D03*
%TD*%
D23*
%TO.C,C7*%
X160020000Y-101600000D03*
X157945000Y-101600000D03*
%TD*%
D11*
%TO.C,C3*%
X105410000Y-71755000D03*
X105410000Y-73830000D03*
%TD*%
D24*
%TO.C,C10*%
X186108500Y-116722000D03*
X188183500Y-116722000D03*
%TD*%
D25*
%TO.C,Q1*%
X189560000Y-106380000D03*
X189560000Y-105730000D03*
X189560000Y-105080000D03*
X187660000Y-105080000D03*
X187660000Y-105730000D03*
X187660000Y-106380000D03*
%TD*%
D15*
%TO.C,R2*%
X107855000Y-93980000D03*
X109855000Y-93980000D03*
%TD*%
D24*
%TO.C,C11*%
X165819000Y-114300000D03*
X167894000Y-114300000D03*
%TD*%
D23*
%TO.C,C8*%
X167640000Y-101600000D03*
X165565000Y-101600000D03*
%TD*%
D24*
%TO.C,C9*%
X186108500Y-113712000D03*
X188183500Y-113712000D03*
%TD*%
%TO.C,C6*%
X170645000Y-101600000D03*
X172720000Y-101600000D03*
%TD*%
D11*
%TO.C,C4*%
X124460000Y-69045000D03*
X124460000Y-71120000D03*
%TD*%
M02*
